SplineFontDB: 3.0
FontName: RoundStyle-BoldOblique
FullName: Round Style Bold Oblique
FamilyName: Round Style
Weight: Bold
Copyright: Copyright (c) 2020-2024 by Wojciech Kalinowski "wmk69" with Reserved Font Name "RoundStyle-BoldOblique".\nThis Font Software is licensed under the SIL Open Font License, Version 1.1.
Version: 3.1.0; 2021-01-15
ItalicAngle: -12
UnderlinePosition: -80
UnderlineWidth: 320
Ascent: 1638
Descent: 410
InvalidEm: 0
LayerCount: 2
Layer: 0 1 "Warstwa t+AUIA-a" 1
Layer: 1 1 "Plan pierwszy" 0
XUID: [1021 783 23647091 2952791]
StyleMap: 0x0021
FSType: 0
OS2Version: 3
OS2_WeightWidthSlopeOnly: 0
OS2_UseTypoMetrics: 1
CreationTime: 1260698820
ModificationTime: 1621079073
PfmFamily: 17
TTFWeight: 700
TTFWidth: 5
LineGap: 200
VLineGap: 0
Panose: 2 2 8 3 7 5 8 13 4 4
OS2TypoAscent: 2000
OS2TypoAOffset: 0
OS2TypoDescent: -500
OS2TypoDOffset: 0
OS2TypoLinegap: 200
OS2WinAscent: 2000
OS2WinAOffset: 0
OS2WinDescent: 500
OS2WinDOffset: 0
HheadAscent: 2000
HheadAOffset: 0
HheadDescent: -500
HheadDOffset: 0
OS2SubXSize: 1434
OS2SubYSize: 1331
OS2SubXOff: 0
OS2SubYOff: 287
OS2SupXSize: 1434
OS2SupYSize: 1331
OS2SupXOff: 0
OS2SupYOff: 977
OS2StrikeYSize: 102
OS2StrikeYPos: 512
OS2CapHeight: 1510
OS2XHeight: 1100
OS2Vendor: '    '
OS2CodePages: 20000093.00000000
OS2UnicodeRanges: 8000002f.4000204b.00000000.00000000
Lookup: 258 0 0 "'kern' Horizontal Kerning lookup 0-0" { "'kern' Horizontal Kerning lookup 0-1 subtable" [307,0,4] } ['kern' ('DFLT' <'dflt' > 'grek' <'dflt' > 'latn' <'dflt' > ) ]
MarkAttachClasses: 1
DEI: 91125
KernClass2: 63 50 "'kern' Horizontal Kerning lookup 0-1 subtable"
 94 A M Agrave Aacute Acircumflex Atilde Adieresis Aring Amacron Abreve Aogonek Aringacute uni1E40
 28 B germandbls uni1E02 uni1E9E
 140 C E AE Ccedilla Egrave Eacute Ecircumflex Edieresis Cacute Ccircumflex Cdotaccent Ccaron Emacron Ebreve Edotaccent Eogonek Ecaron OE AEacute

StartChar: .notdef
Encoding: 65536 -1 0
Width: 1054
Flags: W
HStem: 0 80<367 721> 1430 80<654 1008>
VStem: 120 814<0 814> 441 814<696 1510>
DStem2: 120 0 349.995 0 0.207912 0.978148<129.606 1509.78> 703.995 0 934 0 0.207912 0.978148<81.7872 1461.96>
LayerCount: 2
Fore
SplineSet
120 0 m 1,0,-1
 441 1510 l 1,1,-1
 1255 1510 l 1,2,-1
 934 0 l 1,3,-1
 120 0 l 1,0,-1
367 80 m 1,4,-1
 721 80 l 1,5,-1
 1008 1430 l 1,6,-1
 654 1430 l 1,7,-1
 367 80 l 1,4,-1
EndSplineSet
Validated: 19457
EndChar

StartChar: exclam
Encoding: 33 33 4
Width: 704
GlyphClass: 2
Flags: W
HStem: -20 370<297.695 476.234> 1510 20G<639 714.5>
VStem: 452 372<1238.17 1434>
LayerCount: 2
Fore
SplineSet
348 -20 m 0,0,1
 270 -20 270 -20 230 34 c 0,2,3
 201 73 201 73 201 124 c 0,4,5
 201 144 201 144 205 165 c 0,6,7
 221 242 221 242 285.5 296 c 128,-1,8
 350 350 350 350 426 350 c 128,-1,9
 502 350 502 350 544 296 c 0,10,11
 573 258 573 258 573 206 c 0,12,13
 573 186 573 186 569 165 c 0,14,15
 553 88 553 88 488.5 34 c 128,-1,16
 424 -20 424 -20 348 -20 c 0,0,1
677 1530 m 0,17,18
 752 1530 752 1530 794 1476 c 0,19,20
 824 1437 824 1437 824 1386 c 0,21,22
 824 1366 824 1366 820 1345 c 0,23,24
 816 1328 816 1328 808 1307 c 2,25,-1
 451 426 l 1,26,-1
 435 426 l 1,27,-1
 452 1307 l 2,28,29
 452 1328 452 1328 456 1345 c 0,30,31
 472 1422 472 1422 536.5 1476 c 128,-1,32
 601 1530 601 1530 677 1530 c 0,17,18
EndSplineSet
Validated: 19457
EndChar

StartChar: quotedbl
Encoding: 34 34 5
Width: 502
GlyphClass: 2
Flags: W
HStem: 1156 394<349 446 631 728>
VStem: 266 180<1156 1336> 349 180<1370 1550> 548 180<1156 1336> 631 180<1370 1550>
DStem2: 266 1156 446 1156 0.207912 0.978148<37.4241 402.647> 548 1156 728 1156 0.207912 0.978148<37.4241 402.647>
LayerCount: 2
Fore
SplineSet
631 1550 m 1,0,-1
 811 1550 l 1,1,-1
 728 1156 l 1,2,-1
 548 1156 l 1,3,-1
 631 1550 l 1,0,-1
349 1550 m 1,4,-1
 529 1550 l 1,5,-1
 446 1156 l 1,6,-1
 266 1156 l 1,7,-1
 349 1550 l 1,4,-1
EndSplineSet
Validated: 19457
EndChar

StartChar: numbersign
Encoding: 35 35 6
Width: 1318
GlyphClass: 2
Flags: W
HStem: 501 161<262 513 709 856 1052 1304> 844 161<334 586 782 929 1125 1376>
VStem: 452 161<214 375> 681 161<1130 1291> 796 161<215 376> 1025 161<1131 1292>
DStem2: 452 214 613 214 0.207912 0.978148<33.4738 293.411 491.643 644.093 842.326 1101.08> 795.787 214 956.787 214 0.207912 0.978148<34.4961 293.247 491.48 643.929 842.162 1102.1>
LayerCount: 2
Fore
SplineSet
681 1291 m 1,0,-1
 842 1291 l 1,1,-1
 782 1005 l 1,2,-1
 964 1005 l 1,3,-1
 1025 1292 l 1,4,-1
 1186 1292 l 1,5,-1
 1125 1005 l 1,6,-1
 1411 1005 l 1,7,-1
 1376 844 l 1,8,-1
 1090 844 l 1,9,-1
 1052 662 l 1,10,-1
 1339 662 l 1,11,-1
 1304 501 l 1,12,-1
 1017 501 l 1,13,-1
 957 215 l 1,14,-1
 796 215 l 1,15,-1
 856 501 l 1,16,-1
 674 501 l 1,17,-1
 613 214 l 1,18,-1
 452 214 l 1,19,-1
 513 501 l 1,20,-1
 227 501 l 1,21,-1
 262 662 l 1,22,-1
 548 662 l 1,23,-1
 586 844 l 1,24,-1
 299 844 l 1,25,-1
 334 1005 l 1,26,-1
 621 1005 l 1,27,-1
 681 1291 l 1,0,-1
709 662 m 1,28,-1
 891 662 l 1,29,-1
 929 844 l 1,30,-1
 747 844 l 1,31,-1
 709 662 l 1,28,-1
EndSplineSet
Validated: 19457
EndChar

StartChar: dollar
Encoding: 36 36 7
Width: 1330
GlyphClass: 2
Flags: W
HStem: -20 120<498.455 652> 1100 21G<1104 1137.02>
VStem: 499 294<1089 1258.16> 1067 331<399.217 630.227>
DStem2: 635 -100 755 -100 0.207912 0.978148<24.9494 81.7863 258.925 853.01 1187.75 1536.48 1687.15 1748.1>
LayerCount: 2
Fore
SplineSet
652 -20 m 1,0,1
 354 -20 354 -20 234 122 c 0,2,3
 157 213 157 213 128 368 c 1,4,-1
 455 627 l 1,5,-1
 463 620 l 1,6,7
 419 523 419 523 408 440 c 0,8,9
 403 403 403 403 403 369 c 0,10,11
 403 283 403 283 434 216 c 0,12,13
 489 100 489 100 677 100 c 1,14,-1
 819 765 l 1,15,-1
 704 822 l 2,16,17
 499 924 499 924 499 1089 c 0,18,19
 499 1119 499 1119 506 1151 c 0,20,21
 543 1324 543 1324 707 1440 c 0,22,23
 820 1520 820 1520 981 1529 c 1,24,-1
 998 1610 l 1,25,-1
 1118 1610 l 1,26,-1
 1100 1526 l 1,27,28
 1242 1509 1242 1509 1311 1426 c 0,29,30
 1352 1376 1352 1376 1366 1303 c 1,31,-1
 1112 1100 l 1,32,-1
 1104 1107 l 1,33,34
 1129 1168 1129 1168 1139 1217 c 0,35,36
 1145 1247 1145 1247 1145 1273 c 0,37,38
 1145 1314 1145 1314 1130 1344 c 0,39,40
 1111 1382 1111 1382 1073 1398 c 1,41,-1
 989 1003 l 1,42,-1
 1156 920 l 2,43,44
 1398 800 1398 800 1398 592 c 0,45,46
 1398 550 1398 550 1388 506 c 0,47,48
 1343 294 1343 294 1140 144 c 0,49,50
 974 21 974 21 774 -10 c 1,51,-1
 755 -100 l 1,52,-1
 635 -100 l 1,53,-1
 652 -20 l 1,0,1
881 1062 m 1,54,-1
 954 1403 l 1,55,56
 919 1394 919 1394 889 1371 c 0,57,58
 822 1317 822 1317 800 1242 c 0,59,60
 793 1219 793 1219 793 1198 c 0,61,62
 793 1122 793 1122 881 1062 c 1,54,-1
927 710 m 1,63,-1
 803 129 l 1,64,65
 866 157 866 157 924 211 c 0,66,67
 1012 294 1012 294 1053 423 c 0,68,69
 1067 467 1067 467 1067 507 c 0,70,71
 1067 632 1067 632 927 710 c 1,63,-1
EndSplineSet
Validated: 19457
EndChar

StartChar: percent
Encoding: 37 37 8
Width: 1806
GlyphClass: 2
Flags: W
HStem: -20 70<1265.67 1401.94> 584 70<1364.05 1500.9> 856 70<628.677 764.735> 1460 70<727.082 861.442>
VStem: 366 242<974.469 1290.16> 883 242<1095.6 1409.99> 1002 243<98.36 414.157> 1520 241<223.211 533.994>
DStem2: 454 102 657 -20 0.580008 0.814611<18.359 1752.55>
LayerCount: 2
Fore
SplineSet
1327 50 m 0,0,1
 1383 50 1383 50 1429 117 c 0,2,3
 1470 178 1470 178 1500 317 c 0,4,5
 1519 407 1519 407 1520 464 c 0,6,7
 1520 495 1520 495 1514 517 c 0,8,9
 1496 584 1496 584 1439 584 c 128,-1,10
 1382 584 1382 584 1336 517 c 0,11,12
 1294 456 1294 456 1265 318 c 0,13,14
 1245 226 1245 226 1245 168 c 0,15,16
 1245 137 1245 137 1251 116 c 0,17,18
 1268 50 1268 50 1327 50 c 0,0,1
802 1460 m 128,-1,20
 745 1460 745 1460 699 1393 c 0,21,22
 657 1332 657 1332 628 1194 c 0,23,24
 608 1102 608 1102 608 1044 c 0,25,26
 608 1013 608 1013 614 992 c 0,27,28
 631 926 631 926 690 926 c 0,29,30
 746 926 746 926 792 993 c 0,31,32
 834 1054 834 1054 864 1193 c 0,33,34
 883 1283 883 1283 883 1340 c 0,35,36
 883 1371 883 1371 877 1393 c 0,37,19
 859 1460 859 1460 802 1460 c 128,-1,20
818 1530 m 0,38,39
 988 1530 988 1530 1068 1428 c 0,40,41
 1125 1355 1125 1355 1125 1264 c 0,42,43
 1125 1230 1125 1230 1117 1193 c 0,44,45
 1087 1053 1087 1053 973 962 c 0,46,47
 841 856 841 856 672 856 c 0,48,49
 500 856 500 856 422 958 c 0,50,51
 366 1031 366 1031 366 1123 c 0,52,53
 366 1156 366 1156 373 1192 c 0,54,55
 403 1332 403 1332 516 1424 c 0,56,57
 643 1530 643 1530 818 1530 c 0,38,39
1309 -20 m 0,58,59
 1137 -20 1137 -20 1058 82 c 0,60,61
 1002 154 1002 154 1002 245 c 0,62,63
 1002 279 1002 279 1010 316 c 0,64,65
 1040 456 1040 456 1152 548 c 0,66,67
 1280 654 1280 654 1455 654 c 0,68,69
 1625 654 1625 654 1704 552 c 0,70,71
 1761 479 1761 479 1761 388 c 0,72,73
 1761 354 1761 354 1753 317 c 0,74,75
 1723 177 1723 177 1610 86 c 0,76,77
 1479 -20 1479 -20 1309 -20 c 0,58,59
657 -20 m 1,78,-1
 454 102 l 1,79,-1
 1470 1530 l 1,80,-1
 1683 1421 l 1,81,-1
 657 -20 l 1,78,-1
EndSplineSet
Validated: 19457
EndChar

StartChar: ampersand
Encoding: 38 38 9
Width: 1966
GlyphClass: 2
Flags: W
HStem: -20 120<659.144 1045.33> 0 21G<1485.19 1825> 1090 10<1605 1611.92> 1420 110<1002.53 1183.84>
VStem: 216 336<221.993 603.609> 630 288<1084.69 1329.5> 1748 284<768.93 1007.83>
DStem2: 1307 1061 1034 944 0.438724 -0.898622<0 689.278 802.019 1035.92>
LayerCount: 2
Fore
SplineSet
1142 183 m 0,0,1
 1242 241 1242 241 1339 321 c 1,2,-1
 1034 944 l 1,3,4
 844 927 844 927 711 788 c 0,5,6
 603 674 603 674 567 504 c 0,7,8
 552 434 552 434 552 375 c 0,9,10
 552 288 552 288 585 226 c 0,11,12
 650 100 650 100 838 100 c 0,13,14
 998 100 998 100 1142 183 c 0,0,1
1605 1100 m 1,15,16
 2032 1100 2032 1100 2032 905 c 0,17,18
 2032 882 2032 882 2026 856 c 0,19,20
 1983 674 1983 674 1646 460 c 1,21,-1
 1640 469 l 1,22,23
 1707 618 1707 618 1736 758 c 0,24,25
 1748 815 1748 815 1748 864 c 0,26,27
 1748 1031 1748 1031 1603 1090 c 1,28,-1
 1605 1100 l 1,15,16
1825 0 m 1,29,-1
 1495 0 l 1,30,-1
 1392 210 l 1,31,32
 1311 151 1311 151 1245 113 c 0,33,34
 1015 -20 1015 -20 751 -20 c 0,35,36
 447 -20 447 -20 314 141 c 0,37,38
 216 260 216 260 216 405 c 0,39,40
 216 453 216 453 227 504 c 0,41,42
 271 710 271 710 428 843 c 0,43,44
 561 955 561 955 764 1003 c 1,45,46
 692 1032 692 1032 663 1074 c 0,47,48
 630 1122 630 1122 630 1186 c 0,49,50
 630 1216 630 1216 637 1249 c 0,51,52
 660 1356 660 1356 765 1435 c 0,53,54
 892 1530 892 1530 1087 1530 c 0,55,56
 1272 1530 1272 1530 1348 1451 c 0,57,58
 1383 1415 1383 1415 1399 1357 c 1,59,-1
 1169 1169 l 1,60,-1
 1163 1176 l 1,61,62
 1188 1232 1188 1232 1198 1279 c 0,63,64
 1202 1298 1202 1298 1202 1315 c 0,65,66
 1202 1349 1202 1349 1186 1377 c 0,67,68
 1162 1420 1162 1420 1107 1420 c 0,69,70
 1061 1420 1061 1420 1025 1395 c 0,71,72
 948 1342 948 1342 925 1239 c 0,73,74
 918 1207 918 1207 918 1181 c 0,75,76
 918 1061 918 1061 1060 1061 c 2,77,-1
 1307 1061 l 1,78,-1
 1825 0 l 1,29,-1
EndSplineSet
Validated: 19457
EndChar

StartChar: quotesingle
Encoding: 39 39 10
Width: 220
GlyphClass: 2
Flags: W
HStem: 1156 394<349 446>
VStem: 266 180<1156 1336> 349 180<1370 1550>
DStem2: 266 1156 446 1156 0.207912 0.978148<37.4241 402.647>
LayerCount: 2
Fore
SplineSet
349 1550 m 1,0,-1
 529 1550 l 1,1,-1
 446 1156 l 1,2,-1
 266 1156 l 1,3,-1
 349 1550 l 1,0,-1
EndSplineSet
Validated: 19457
EndChar

StartChar: parenleft
Encoding: 40 40 11
Width: 867
GlyphClass: 2
Flags: W
VStem: 293 305<48.6439 716.751>
LayerCount: 2
Fore
SplineSet
874 1760 m 1,0,-1
 1121 1760 l 1,1,2
 773 1339 773 1339 650 755 c 0,3,4
 598 508 598 508 598 287 c 0,5,6
 598 -9 598 -9 694 -250 c 1,7,-1
 447 -250 l 1,8,9
 293 63 293 63 293 407 c 0,10,11
 293 581 293 581 330 755 c 0,12,13
 444 1292 444 1292 874 1760 c 1,0,-1
EndSplineSet
Validated: 19457
EndChar

StartChar: parenright
Encoding: 41 41 12
Width: 867
GlyphClass: 2
Flags: W
VStem: 590 305<793.105 1461.36>
LayerCount: 2
Fore
SplineSet
741 1760 m 1,0,1
 895 1447 895 1447 895 1103 c 0,2,3
 895 929 895 929 858 755 c 0,4,5
 744 218 744 218 314 -250 c 1,6,-1
 67 -250 l 1,7,8
 414 171 414 171 538 755 c 0,9,10
 590 1000 590 1000 590 1223 c 0,11,12
 590 1519 590 1519 494 1760 c 1,13,-1
 741 1760 l 1,0,1
EndSplineSet
Validated: 19457
EndChar

StartChar: asterisk
Encoding: 42 42 13
Width: 728
GlyphClass: 2
Flags: W
VStem: 461 170<854 1024> 608 170<1380 1550>
DStem2: 254 1102 308 954 0.889379 0.45717<0 199.968 541.602 741.57> 413 1450 297 1302 0.835436 -0.549587<0 166.373 450.422 617.631> 461 854 631 854 0.207912 0.978148<35.345 205.34 541.359 711.354>
LayerCount: 2
Fore
SplineSet
608 1550 m 1,0,-1
 778 1550 l 1,1,-1
 736 1349 l 1,2,-1
 931 1450 l 1,3,-1
 985 1302 l 1,4,-1
 789 1202 l 1,5,-1
 942 1102 l 1,6,-1
 826 954 l 1,7,-1
 673 1055 l 1,8,-1
 631 854 l 1,9,-1
 461 854 l 1,10,-1
 503 1055 l 1,11,-1
 308 954 l 1,12,-1
 254 1102 l 1,13,-1
 449 1202 l 1,14,-1
 297 1302 l 1,15,-1
 413 1450 l 1,16,-1
 566 1349 l 1,17,-1
 608 1550 l 1,0,-1
EndSplineSet
Validated: 19457
EndChar

StartChar: plus
Encoding: 43 43 14
Width: 1192
GlyphClass: 2
Flags: W
HStem: 650 210<303 629 884 1210>
VStem: 550 210<279 489> 753 210<1021 1231>
DStem2: 550 279 760 279 0.207912 0.978148<43.6615 379.318 637.746 973.403>
LayerCount: 2
Fore
SplineSet
753 1231 m 1,0,-1
 963 1231 l 1,1,-1
 884 860 l 1,2,-1
 1255 860 l 1,3,-1
 1210 650 l 1,4,-1
 839 650 l 1,5,-1
 760 279 l 1,6,-1
 550 279 l 1,7,-1
 629 650 l 1,8,-1
 258 650 l 1,9,-1
 303 860 l 1,10,-1
 674 860 l 1,11,-1
 753 1231 l 1,0,-1
EndSplineSet
Validated: 19457
EndChar

StartChar: comma
Encoding: 44 44 15
Width: 368
GlyphClass: 2
Flags: W
HStem: -324 633
VStem: 112 253<-56.0557 127.203>
LayerCount: 2
Fore
SplineSet
260 309 m 1,0,1
 365 231 365 231 365 111 c 0,2,3
 365 79 365 79 358 45 c 0,4,5
 306 -199 306 -199 -59 -324 c 1,6,-1
 -57 -314 l 1,7,8
 76 -194 76 -194 105 -58 c 0,9,10
 112 -23 112 -23 112 7 c 0,11,12
 112 91 112 91 55 140 c 1,13,-1
 260 309 l 1,0,1
EndSplineSet
Validated: 19457
EndChar

StartChar: hyphen
Encoding: 45 45 16
Width: 1192
GlyphClass: 2
Flags: W
HStem: 650 210<303 1210>
LayerCount: 2
Fore
SplineSet
303 860 m 1,0,-1
 1255 860 l 1,1,-1
 1210 650 l 1,2,-1
 258 650 l 1,3,-1
 303 860 l 1,0,-1
EndSplineSet
Validated: 19457
EndChar

StartChar: period
Encoding: 46 46 17
Width: 404
GlyphClass: 2
Flags: W
HStem: -20 370<147.766 326.305>
VStem: 51 372<75.783 254>
LayerCount: 2
Fore
SplineSet
198 -20 m 128,-1,1
 122 -20 122 -20 80 34 c 0,2,3
 51 72 51 72 51 124 c 0,4,5
 51 144 51 144 55 165 c 0,6,7
 71 242 71 242 135.5 296 c 128,-1,8
 200 350 200 350 276 350 c 0,9,10
 354 350 354 350 394 296 c 0,11,12
 423 257 423 257 423 206 c 0,13,14
 423 186 423 186 419 165 c 0,15,16
 403 88 403 88 338.5 34 c 128,-1,0
 274 -20 274 -20 198 -20 c 128,-1,1
EndSplineSet
Validated: 19457
EndChar

StartChar: slash
Encoding: 47 47 18
Width: 1159
GlyphClass: 2
Flags: W
DStem2: -1 -53 239 -180 0.579737 0.814804<35.6569 2140.24>
LayerCount: 2
Fore
SplineSet
239 -180 m 1,0,-1
 -1 -53 l 1,1,-1
 1241 1690 l 1,2,-1
 1482 1567 l 1,3,-1
 239 -180 l 1,0,-1
EndSplineSet
Validated: 19457
EndChar

StartChar: zero
Encoding: 48 48 19
Width: 1766
GlyphClass: 2
Flags: W
HStem: -20 120<736.075 1091.67> 1410 120<994.927 1350.62>
VStem: 208 340<328.713 840.835> 1539 339<673.728 1181.69>
LayerCount: 2
Fore
SplineSet
904 100 m 128,-1,1
 1105 100 1105 100 1280 289 c 0,2,3
 1458 481 1458 481 1516 755 c 0,4,5
 1538 859 1538 859 1539 951 c 0,6,7
 1539 1102 1539 1102 1479 1221 c 0,8,9
 1384 1410 1384 1410 1183 1410 c 128,-1,10
 982 1410 982 1410 807 1221 c 0,11,12
 628 1029 628 1029 570 755 c 0,13,14
 548 651 548 651 548 559 c 0,15,16
 548 408 548 408 608 289 c 0,17,0
 703 100 703 100 904 100 c 128,-1,1
879 -20 m 0,18,19
 482 -20 482 -20 309 226 c 0,20,21
 208 369 208 369 208 564 c 0,22,23
 208 654 208 654 230 755 c 0,24,25
 298 1076 298 1076 535 1284 c 0,26,27
 814 1530 814 1530 1208 1530 c 0,28,29
 1603 1530 1603 1530 1778 1284 c 0,30,31
 1878 1142 1878 1142 1878 949 c 0,32,33
 1878 858 1878 858 1856 755 c 0,34,35
 1787 432 1787 432 1552 226 c 0,36,37
 1271 -20 1271 -20 879 -20 c 0,18,19
EndSplineSet
Validated: 19457
EndChar

StartChar: one
Encoding: 49 49 20
Width: 760
GlyphClass: 2
Flags: W
HStem: 0 21G<220 544.247>
VStem: 220 320<0 320>
DStem2: 220 0 540 0 0.207912 0.978148<66.5317 1224.39>
LayerCount: 2
Fore
SplineSet
220 0 m 1,0,-1
 460 1130 l 2,1,2
 468 1169 468 1169 468 1200 c 0,3,4
 468 1340 468 1340 305 1340 c 1,5,-1
 307 1350 l 1,6,-1
 867 1540 l 1,7,-1
 540 0 l 1,8,-1
 220 0 l 1,0,-1
EndSplineSet
Validated: 19457
EndChar

StartChar: two
Encoding: 50 50 21
Width: 1384
GlyphClass: 2
Flags: W
HStem: 0 140<120 1235.91> 1409 121<828.268 1109.83>
VStem: 1171 330<1010.56 1337.03> 1314 10<271.387 280>
LayerCount: 2
Fore
SplineSet
90 0 m 1,0,-1
 120 140 l 1,1,-1
 1104 140 l 2,2,3
 1237 140 1237 140 1314 280 c 1,4,-1
 1324 280 l 1,5,-1
 1264 0 l 1,6,-1
 90 0 l 1,0,-1
1028 1530 m 0,7,8
 1278 1530 1278 1530 1397 1413 c 0,9,10
 1501 1310 1501 1310 1501 1165 c 0,11,12
 1501 1117 1501 1117 1490 1065 c 0,13,14
 1427 768 1427 768 1086 613 c 2,15,-1
 769 469 l 2,16,17
 481 339 481 339 189 196 c 1,18,-1
 184 202 l 1,19,20
 339 375 339 375 641 576 c 2,21,-1
 892 742 l 2,22,23
 1113 889 1113 889 1161 1115 c 0,24,25
 1171 1161 1171 1161 1171 1201 c 0,26,27
 1171 1265 1171 1265 1146 1315 c 0,28,29
 1099 1409 1099 1409 980 1409 c 0,30,31
 871 1409 871 1409 769 1322 c 0,32,33
 659 1229 659 1229 624 1081 c 0,34,35
 607 1010 607 1010 606 933 c 1,36,-1
 599 925 l 1,37,-1
 374 1202 l 1,38,39
 467 1309 467 1309 593 1398 c 0,40,41
 780 1530 780 1530 1028 1530 c 0,7,8
EndSplineSet
Validated: 19457
EndChar

StartChar: three
Encoding: 51 51 22
Width: 1425
GlyphClass: 2
Flags: W
HStem: -20 120<541.728 834.137> 1390 120<689.41 1049>
VStem: 602 10<1250 1258.61> 655 335<936 1271> 1100 330<451.733 792.733>
DStem2: 655 936 990 936 0.656081 0.75469<219.787 601.125>
LayerCount: 2
Fore
SplineSet
658 -20 m 0,0,1
 416 -20 416 -20 290 112 c 0,2,3
 204 202 204 202 155 306 c 1,4,-1
 496 583 l 1,5,-1
 500 575 l 1,6,7
 472 512 472 512 458 449 c 0,8,9
 447 399 447 399 447 355 c 0,10,11
 447 279 447 279 479 219 c 0,12,13
 542 100 542 100 677 100 c 0,14,15
 818 100 818 100 931 224 c 0,16,17
 1038 343 1038 343 1080 543 c 0,18,19
 1100 637 1100 637 1100 716 c 0,20,21
 1100 857 1100 857 1035 947 c 1,22,-1
 1043 956 l 1,23,24
 1245 956 1245 956 1347 845 c 0,25,26
 1430 754 1430 754 1430 628 c 0,27,28
 1430 583 1430 583 1419 534 c 0,29,30
 1370 303 1370 303 1169 140 c 0,31,32
 971 -20 971 -20 658 -20 c 0,0,1
657 1510 m 1,33,-1
 1489 1510 l 1,34,-1
 990 936 l 1,35,-1
 655 936 l 1,36,-1
 1049 1390 l 1,37,-1
 821 1390 l 2,38,39
 688 1390 688 1390 612 1250 c 1,40,-1
 602 1250 l 1,41,-1
 657 1510 l 1,33,-1
EndSplineSet
Validated: 19457
EndChar

StartChar: four
Encoding: 52 52 23
Width: 1484
GlyphClass: 2
Flags: W
HStem: 0 21G<944 1268.25> 257 10<927.768 936> 1080 20G<1173.75 1498> 1490 20G<696.5 1183>
VStem: 266 342<479.539 843.349> 944 320<0 320> 1178 320<780 1100>
DStem2: 944 0 1264 0 0.207912 0.978148<66.5317 1124.61>
LayerCount: 2
Fore
SplineSet
1033 1510 m 1,0,-1
 1183 1510 l 1,1,2
 710 1174 710 1174 619 750 c 0,3,4
 608 696 608 696 608 648 c 0,5,6
 608 386 608 386 938 267 c 1,7,-1
 936 257 l 1,8,9
 266 257 266 257 266 639 c 0,10,11
 266 691 266 691 279 750 c 0,12,13
 360 1130 360 1130 1033 1510 c 1,0,-1
1264 0 m 1,14,-1
 944 0 l 1,15,-1
 1178 1100 l 1,16,-1
 1498 1100 l 1,17,-1
 1264 0 l 1,14,-1
EndSplineSet
Validated: 19457
EndChar

StartChar: five
Encoding: 53 53 24
Width: 1425
GlyphClass: 2
Flags: W
HStem: -20 120<535.705 842.306> 937 71<850.15 1168> 1390 120<922 1334.73>
VStem: 1090 340<425.455 832.796> 1372 10<1250 1271.02>
DStem2: 415 897 732 897 0.36061 0.932717<114.313 642.659>
LayerCount: 2
Fore
SplineSet
652 1510 m 1,0,-1
 1437 1510 l 1,1,-1
 1382 1250 l 1,2,-1
 1372 1250 l 1,3,4
 1355 1390 1355 1390 1221 1390 c 2,5,-1
 922 1390 l 1,6,-1
 732 897 l 1,7,-1
 415 897 l 1,8,-1
 652 1510 l 1,0,-1
658 -20 m 0,9,10
 417 -20 417 -20 290 112 c 0,11,12
 207 197 207 197 155 305 c 1,13,-1
 496 582 l 1,14,-1
 500 574 l 1,15,16
 471 508 471 508 456 439 c 0,17,18
 446 394 446 394 446 352 c 0,19,20
 446 280 446 280 475 218 c 0,21,22
 531 100 531 100 683 100 c 0,23,24
 824 100 824 100 931 221 c 128,-1,25
 1038 342 1038 342 1074 512 c 0,26,27
 1090 587 1090 587 1090 651 c 0,28,29
 1090 734 1090 734 1063 799 c 0,30,31
 1006 937 1006 937 858 937 c 0,32,33
 816 937 816 937 771 925 c 1,34,-1
 775 936 l 1,35,36
 889 1008 889 1008 1057 1008 c 0,37,38
 1279 1008 1279 1008 1377 848 c 0,39,40
 1430 761 1430 761 1430 648 c 0,41,42
 1430 591 1430 591 1417 527 c 0,43,44
 1370 304 1370 304 1169 141 c 0,45,46
 971 -20 971 -20 658 -20 c 0,9,10
EndSplineSet
Validated: 19457
EndChar

StartChar: six
Encoding: 54 54 25
Width: 1525
GlyphClass: 2
Flags: W
HStem: -20 120<661.064 938.906> 933 74<917.073 1218.5> 1520 10<1565.55 1577>
VStem: 226 334<230.357 661.781> 1191 339<422.851 819.235>
LayerCount: 2
Fore
SplineSet
769 -20 m 0,0,1
 470 -20 470 -20 327 144 c 0,2,3
 226 261 226 261 226 431 c 0,4,5
 226 497 226 497 241 571 c 0,6,7
 319 937 319 937 662 1218 c 0,8,9
 1042 1530 1042 1530 1579 1530 c 1,10,-1
 1577 1520 l 1,11,12
 1210 1421 1210 1421 936 1177 c 0,13,14
 657 928 657 928 582 576 c 0,15,16
 560 474 560 474 560 394 c 0,17,18
 560 295 560 295 593 230 c 0,19,20
 658 100 658 100 790 100 c 128,-1,21
 922 100 922 100 1030 222.5 c 128,-1,22
 1138 345 1138 345 1176 521 c 0,23,24
 1191 593 1191 593 1191 653 c 0,25,26
 1191 764 1191 764 1140 835 c 0,27,28
 1070 933 1070 933 936 933 c 0,29,30
 878 933 878 933 820 914 c 1,31,-1
 817 924 l 1,32,33
 963 1007 963 1007 1115 1007 c 0,34,35
 1322 1007 1322 1007 1435 887 c 0,36,37
 1530 786 1530 786 1530 640 c 0,38,39
 1530 586 1530 586 1517 526 c 0,40,41
 1469 301 1469 301 1278 148 c 0,42,43
 1070 -20 1070 -20 769 -20 c 0,0,1
EndSplineSet
Validated: 19457
EndChar

StartChar: seven
Encoding: 55 55 26
Width: 1189
GlyphClass: 2
Flags: W
HStem: 0 21G<194 800> 1390 120<373.41 893.832>
VStem: 286 10<1250 1258.61> 984 381<1004.49 1312.98>
LayerCount: 2
Fore
SplineSet
194 0 m 1,0,1
 871 621 871 621 975 1111 c 0,2,3
 984 1153 984 1153 984 1189 c 0,4,5
 984 1390 984 1390 705 1390 c 2,6,-1
 505 1390 l 2,7,8
 372 1390 372 1390 296 1250 c 1,9,-1
 286 1250 l 1,10,-1
 341 1510 l 1,11,-1
 771 1510 l 2,12,13
 1365 1510 1365 1510 1365 1196 c 0,14,15
 1365 1156 1365 1156 1355 1111 c 0,16,17
 1256 644 1256 644 344 0 c 1,18,-1
 194 0 l 1,0,1
EndSplineSet
Validated: 19457
EndChar

StartChar: eight
Encoding: 56 56 27
Width: 1525
GlyphClass: 2
Flags: W
HStem: -20 120<606.292 924.855> 1430 100<993.833 1218.28>
VStem: 217 278<216.525 614.257> 631 283<1109.22 1342.2> 1191 341<435.958 807.426> 1247 182<1174 1401.61>
LayerCount: 2
Fore
SplineSet
753 -20 m 0,0,1
 437 -20 437 -20 309 140 c 0,2,3
 217 257 217 257 217 402 c 0,4,5
 217 453 217 453 228 508 c 0,6,7
 270 706 270 706 419 832 c 0,8,9
 566 957 566 957 778 979 c 1,10,-1
 780 969 l 1,11,12
 679 889 679 889 615 792 c 0,13,14
 544 685 544 685 510 524 c 0,15,16
 495 453 495 453 495 392 c 0,17,18
 495 297 495 297 532 229 c 0,19,20
 602 100 602 100 755 100 c 0,21,22
 919 100 919 100 1041 237 c 0,23,24
 1139 347 1139 347 1179 532 c 0,25,26
 1191 591 1191 591 1191 642 c 0,27,28
 1191 738 1191 738 1147 807 c 0,29,30
 1080 909 1080 909 931 954 c 0,31,32
 631 1046 631 1046 631 1208 c 0,33,34
 631 1227 631 1227 635 1247 c 0,35,36
 661 1367 661 1367 792 1453 c 0,37,38
 908 1530 908 1530 1095 1530 c 0,39,40
 1268 1530 1268 1530 1357 1452 c 0,41,42
 1429 1388 1429 1388 1429 1307 c 0,43,44
 1429 1286 1429 1286 1424 1263 c 0,45,46
 1405 1174 1405 1174 1326 1111 c 0,47,48
 1259 1058 1259 1058 1177 1041 c 1,49,-1
 1172 1049 l 1,50,51
 1220 1132 1220 1132 1240 1226 c 0,52,53
 1247 1259 1247 1259 1247 1288 c 0,54,55
 1247 1338 1247 1338 1228 1372 c 0,56,57
 1196 1430 1196 1430 1114 1430 c 0,58,59
 1046 1430 1046 1430 990.5 1384 c 128,-1,60
 935 1338 935 1338 920 1267 c 0,61,62
 914 1240 914 1240 914 1215 c 0,63,64
 914 1153 914 1153 953 1112 c 0,65,66
 1004 1058 1004 1058 1153 1027 c 0,67,68
 1372 982 1372 982 1468 848 c 0,69,70
 1532 759 1532 759 1532 645 c 0,71,72
 1532 598 1532 598 1521 548 c 0,73,74
 1469 303 1469 303 1278 147 c 0,75,76
 1072 -20 1072 -20 753 -20 c 0,0,1
EndSplineSet
Validated: 19457
EndChar

StartChar: nine
Encoding: 57 57 28
Width: 1525
GlyphClass: 2
Flags: W
HStem: -20 10<269 280.446> 503 74<627.5 928.927> 1410 120<907.303 1184.94>
VStem: 316 339<690.759 1087.15> 1286 334<848.219 1279.64>
LayerCount: 2
Fore
SplineSet
267 -20 m 1,0,-1
 269 -10 l 1,1,2
 636 89 636 89 910 333 c 0,3,4
 1189 582 1189 582 1264 934 c 0,5,6
 1286 1036 1286 1036 1286 1116 c 0,7,8
 1286 1215 1286 1215 1253 1280 c 0,9,10
 1188 1410 1188 1410 1056 1410 c 128,-1,11
 924 1410 924 1410 816 1287.5 c 128,-1,12
 708 1165 708 1165 670 989 c 0,13,14
 655 917 655 917 655 856 c 0,15,16
 655 746 655 746 705 675 c 0,17,18
 775 577 775 577 910 577 c 0,19,20
 968 577 968 577 1026 596 c 1,21,-1
 1029 586 l 1,22,23
 883 503 883 503 731 503 c 0,24,25
 524 503 524 503 411 623 c 0,26,27
 316 724 316 724 316 870 c 0,28,29
 316 924 316 924 329 984 c 0,30,31
 377 1209 377 1209 568 1362 c 0,32,33
 777 1530 777 1530 1077 1530 c 0,34,35
 1376 1530 1376 1530 1519 1366 c 0,36,37
 1620 1249 1620 1249 1620 1079 c 0,38,39
 1620 1013 1620 1013 1605 939 c 0,40,41
 1527 573 1527 573 1184 292 c 0,42,43
 804 -20 804 -20 267 -20 c 1,0,-1
EndSplineSet
Validated: 19457
EndChar

StartChar: colon
Encoding: 58 58 29
Width: 404
GlyphClass: 2
Flags: W
HStem: -20 370<147.766 326.305> 570 370<273.356 451.135>
VStem: 51 498
LayerCount: 2
Fore
SplineSet
402 940 m 0,0,1
 480 940 480 940 520 886 c 0,2,3
 549 847 549 847 549 797 c 0,4,5
 549 777 549 777 544 755 c 0,6,7
 528 678 528 678 463.5 624 c 128,-1,8
 399 570 399 570 323 570 c 0,9,10
 248 570 248 570 206 624 c 0,11,12
 176 663 176 663 176 713 c 0,13,14
 176 733 176 733 180 755 c 0,15,16
 196 832 196 832 261 886 c 128,-1,17
 326 940 326 940 402 940 c 0,0,1
198 -20 m 128,-1,19
 122 -20 122 -20 80 34 c 0,20,21
 51 71 51 71 51 124 c 0,22,23
 51 144 51 144 55 165 c 0,24,25
 71 242 71 242 135.5 296 c 128,-1,26
 200 350 200 350 276 350 c 0,27,28
 354 350 354 350 394 296 c 0,29,30
 423 257 423 257 423 206 c 0,31,32
 423 186 423 186 419 165 c 0,33,34
 403 88 403 88 338.5 34 c 128,-1,18
 274 -20 274 -20 198 -20 c 128,-1,19
EndSplineSet
Validated: 19457
EndChar

StartChar: semicolon
Encoding: 59 59 30
Width: 404
GlyphClass: 2
Flags: W
HStem: 570 370<273.356 451.135>
VStem: 112 253<-56.0557 127.203>
LayerCount: 2
Fore
SplineSet
260 309 m 1,0,1
 365 231 365 231 365 111 c 0,2,3
 365 79 365 79 358 45 c 0,4,5
 306 -199 306 -199 -59 -324 c 1,6,-1
 -57 -314 l 1,7,8
 76 -194 76 -194 105 -58 c 0,9,10
 112 -23 112 -23 112 7 c 0,11,12
 112 91 112 91 55 140 c 1,13,-1
 260 309 l 1,0,1
402 940 m 0,14,15
 480 940 480 940 520 886 c 0,16,17
 549 847 549 847 549 797 c 0,18,19
 549 777 549 777 544 755 c 0,20,21
 528 678 528 678 463.5 624 c 128,-1,22
 399 570 399 570 323 570 c 0,23,24
 248 570 248 570 206 624 c 0,25,26
 176 663 176 663 176 713 c 0,27,28
 176 733 176 733 180 755 c 0,29,30
 196 832 196 832 261 886 c 128,-1,31
 326 940 326 940 402 940 c 0,14,15
EndSplineSet
Validated: 19457
EndChar

StartChar: less
Encoding: 60 60 31
Width: 1166
GlyphClass: 2
Flags: W
DStem2: 484 790 258 650 0.821386 -0.570373<0 698.956> 303 860 484 790 0.889632 0.456678<129.056 986.863>
LayerCount: 2
Fore
SplineSet
303 860 m 1,0,-1
 1203 1322 l 1,1,-1
 1247 1182 l 1,2,-1
 484 790 l 1,3,-1
 1077 379 l 1,4,-1
 919 191 l 1,5,-1
 258 650 l 1,6,-1
 303 860 l 1,0,-1
EndSplineSet
Validated: 19457
EndChar

StartChar: equal
Encoding: 61 61 32
Width: 1192
GlyphClass: 2
Flags: W
HStem: 440 210<258 1166> 859 210<347 1255>
LayerCount: 2
Fore
SplineSet
258 650 m 1,0,-1
 1210 650 l 1,1,-1
 1166 440 l 1,2,-1
 214 440 l 1,3,-1
 258 650 l 1,0,-1
347 1069 m 1,4,-1
 1299 1069 l 1,5,-1
 1255 859 l 1,6,-1
 303 859 l 1,7,-1
 347 1069 l 1,4,-1
EndSplineSet
Validated: 19457
EndChar

StartChar: greater
Encoding: 62 62 33
Width: 1166
GlyphClass: 2
Flags: W
DStem2: 240 328 284 188 0.889632 0.456678<0 857.807> 568 1319 410 1131 0.821386 -0.570373<0 698.956>
LayerCount: 2
Fore
SplineSet
1184 650 m 1,0,-1
 284 188 l 1,1,-1
 240 328 l 1,2,-1
 1003 720 l 1,3,-1
 410 1131 l 1,4,-1
 568 1319 l 1,5,-1
 1229 860 l 1,6,-1
 1184 650 l 1,0,-1
EndSplineSet
Validated: 19457
EndChar

StartChar: question
Encoding: 63 63 34
Width: 1380
GlyphClass: 2
Flags: W
HStem: -20 370<599.356 776.644> 1410 120<815.117 1092.87>
VStem: 1162 337<982.305 1338.95>
LayerCount: 2
Fore
SplineSet
649 -20 m 0,0,1
 574 -20 574 -20 532 34 c 0,2,3
 502 73 502 73 502 124 c 0,4,5
 502 144 502 144 506 165 c 0,6,7
 522 242 522 242 586.5 296 c 128,-1,8
 651 350 651 350 727 350 c 0,9,10
 802 350 802 350 844 296 c 0,11,12
 874 257 874 257 874 206 c 0,13,14
 874 186 874 186 870 165 c 0,15,16
 854 88 854 88 789.5 34 c 128,-1,17
 725 -20 725 -20 649 -20 c 0,0,1
1029 1530 m 0,18,19
 1281 1530 1281 1530 1398 1413 c 0,20,21
 1499 1312 1499 1312 1499 1172 c 0,22,23
 1499 1127 1499 1127 1489 1078 c 0,24,25
 1432 811 1432 811 1153 670 c 2,26,-1
 1005 595 l 2,27,28
 861 522 861 522 748 426 c 1,29,-1
 738 426 l 1,30,31
 726 447 726 447 726 474 c 0,32,33
 726 489 726 489 730 506 c 0,34,35
 748 592 748 592 849 681 c 2,36,-1
 985 801 l 2,37,38
 1114 915 1114 915 1152 1091 c 0,39,40
 1162 1140 1162 1140 1162 1184 c 0,41,42
 1162 1258 1162 1258 1132 1317 c 0,43,44
 1084 1410 1084 1410 973 1410 c 0,45,46
 848 1410 848 1410 762 1323 c 0,47,48
 659 1218 659 1218 626 1081 c 0,49,50
 611 1020 611 1020 607 933 c 1,51,-1
 600 925 l 1,52,-1
 375 1202 l 1,53,54
 468 1309 468 1309 594 1398 c 0,55,56
 781 1530 781 1530 1029 1530 c 0,18,19
EndSplineSet
Validated: 19457
EndChar

StartChar: at
Encoding: 64 64 35
Width: 1644
GlyphClass: 2
Flags: W
HStem: 0 110<983.02 1197> 0 10<1606.2 1614> 1010 110<950.103 1258.93>
VStem: 169 319<-100.857 422.065> 633 302<157.698 432.619> 1323 296<494.188 925.719>
DStem2: 1082.22 -430 1382.21 -430 0.207912 0.978148<652.758 1224.6>
LayerCount: 2
Fore
SplineSet
1614 0 m 1,0,-1
 974 0 l 2,1,2
 771 0 771 0 690 99 c 0,3,4
 633 170 633 170 633 262 c 0,5,6
 633 295 633 295 640 330 c 0,7,8
 669 467 669 467 780 552 c 0,9,10
 923 662 923 662 1169 662 c 1,11,-1
 1167 652 l 1,12,13
 1085 600 1085 600 1029 533 c 0,14,15
 964 455 964 455 943 355 c 0,16,17
 935 316 935 316 935 283 c 0,18,19
 935 220 935 220 964 177 c 0,20,21
 1009 110 1009 110 1115 110 c 2,22,-1
 1197 110 l 1,23,-1
 1304 612 l 2,24,25
 1323 702 1323 702 1323 773 c 0,26,27
 1323 825 1323 825 1313 866 c 0,28,29
 1279 1010 1279 1010 1127 1010 c 0,30,31
 932 1010 932 1010 750 809 c 0,32,33
 567 608 567 608 510 337 c 0,34,35
 488 233 488 233 488 140 c 0,36,37
 488 -13 488 -13 547 -136 c 0,38,39
 628 -304 628 -304 815 -420 c 1,40,-1
 813 -430 l 1,41,42
 426 -430 426 -430 268 -201 c 0,43,44
 169 -57 169 -57 169 139 c 0,45,46
 169 231 169 231 191 335 c 0,47,48
 260 660 260 660 497 871 c 0,49,50
 776 1120 776 1120 1141 1120 c 0,51,52
 1454 1120 1454 1120 1567 939 c 0,53,54
 1619 856 1619 856 1619 743 c 0,55,56
 1619 682 1619 682 1604 613 c 2,57,-1
 1514 190 l 2,58,59
 1509 166 1509 166 1509 146 c 0,60,61
 1509 49 1509 49 1616 10 c 1,62,-1
 1614 0 l 1,0,-1
EndSplineSet
Validated: 19457
EndChar

StartChar: A
Encoding: 65 65 36
Width: 1671
GlyphClass: 2
Flags: W
HStem: 0 21G<5 334.863 1000 1299.5> 695 120<846 1284> 1490 20G<785 1293>
VStem: 5 317<0 317> 1389 324<401.03 859.375>
DStem2: 5 0 322 0 0.54087 0.841106<171.456 997.794 1140.37 1652.17>
LayerCount: 2
Fore
SplineSet
998 0 m 1,0,1
 1000 10 l 1,2,3
 1289 133 1289 133 1355 440 c 0,4,5
 1389 600 1389 600 1389 765 c 0,6,7
 1389 1068 1389 1068 1274 1386 c 1,8,-1
 1281 1394 l 1,9,10
 1713 1015 1713 1015 1713 606 c 0,11,12
 1713 523 1713 523 1695 440 c 0,13,14
 1601 0 1601 0 998 0 c 1,0,1
5 0 m 1,15,-1
 855 1322 l 2,16,17
 876 1355 876 1355 881 1380 c 0,18,19
 883 1390 883 1390 883 1400 c 0,20,21
 883 1464 883 1464 785 1500 c 1,22,-1
 787 1510 l 1,23,-1
 1293 1510 l 1,24,-1
 846 815 l 1,25,-1
 1309 815 l 1,26,-1
 1284 695 l 1,27,-1
 769 695 l 1,28,-1
 322 0 l 1,29,-1
 5 0 l 1,15,-1
EndSplineSet
Validated: 1
EndChar

StartChar: B
Encoding: 66 66 37
Width: 1378
GlyphClass: 2
Flags: W
HStem: 0 21G<170 494.245 612 785> 909 120<786 927.125> 1390 120<785 989.125> 1500 10<351 358.796>
VStem: 170 320<0 320> 1028 297<1141.88 1345.81> 1089 343<423.712 785.074>
DStem2: 170 0 490 0 0.207912 0.978148<66.5317 1393.04>
LayerCount: 2
Fore
SplineSet
170 0 m 1,0,-1
 451 1320 l 2,1,2
 456 1344 456 1344 456 1364 c 0,3,4
 456 1461 456 1461 349 1500 c 1,5,-1
 351 1510 l 1,6,-1
 932 1510 l 2,7,8
 1169 1510 1169 1510 1270 1415 c 0,9,10
 1325 1363 1325 1363 1325 1284 c 0,11,12
 1325 1265 1325 1265 1322 1245 c 0,13,14
 1309 1152 1309 1152 1227 1085 c 0,15,16
 1153 1023 1153 1023 1059 990 c 1,17,18
 1274 961 1274 961 1368 843 c 0,19,20
 1432 762 1432 762 1432 641 c 0,21,22
 1432 584 1432 584 1418 518 c 0,23,24
 1374 309 1374 309 1183 167 c 0,25,26
 960 0 960 0 610 0 c 1,27,-1
 612 10 l 1,28,29
 793 92 793 92 913 212 c 0,30,31
 1040 340 1040 340 1075 504 c 0,32,33
 1089 569 1089 569 1089 623 c 0,34,35
 1089 708 1089 708 1055 768 c 0,36,37
 975 909 975 909 760 909 c 9,38,-1
 786 1029 l 1,39,40
 873 1029 873 1029 939.5 1081.5 c 128,-1,41
 1006 1134 1006 1134 1024 1218 c 0,42,43
 1028 1238 1028 1238 1028 1256 c 0,44,45
 1028 1309 1028 1309 991 1347 c 0,46,47
 950 1390 950 1390 861 1390 c 2,48,-1
 785 1390 l 1,49,-1
 490 0 l 1,50,-1
 170 0 l 1,0,-1
EndSplineSet
Validated: 19457
EndChar

StartChar: C
Encoding: 67 67 38
Width: 1654
GlyphClass: 2
Flags: W
HStem: -20 130<771.603 1182.06> 1410 120<985.347 1352.57>
VStem: 209 343<349.807 842.211>
LayerCount: 2
Fore
SplineSet
879 -20 m 0,0,1
 482 -20 482 -20 309 226 c 0,2,3
 209 368 209 368 209 562 c 0,4,5
 209 653 209 653 231 756 c 0,6,7
 299 1078 299 1078 534 1284 c 0,8,9
 815 1530 815 1530 1217 1530 c 0,10,11
 1620 1530 1620 1530 1788 1262 c 1,12,-1
 1470 1010 l 1,13,-1
 1463 1018 l 1,14,15
 1475 1073 1475 1073 1475 1122 c 0,16,17
 1475 1213 1475 1213 1434 1283 c 0,18,19
 1360 1410 1360 1410 1181 1410 c 0,20,21
 961 1410 961 1410 800 1220 c 0,22,23
 626 1016 626 1016 572 762 c 0,24,25
 552 666 552 666 552 580 c 0,26,27
 552 430 552 430 614 312 c 0,28,29
 721 110 721 110 983 110 c 0,30,31
 1348 110 1348 110 1648 340 c 1,32,-1
 1655 334 l 1,33,34
 1345 -20 1345 -20 879 -20 c 0,0,1
EndSplineSet
Validated: 19457
EndChar

StartChar: D
Encoding: 68 68 39
Width: 1646
GlyphClass: 2
Flags: W
HStem: 0 10<612 626.134> 1390 120<785 1194.5> 1500 10<351 358.796>
VStem: 170 320<0 320> 1418 339<674.757 1161.27>
DStem2: 170 0 490 0 0.207912 0.978148<66.5317 1393.04>
LayerCount: 2
Fore
SplineSet
170 0 m 1,0,-1
 451 1320 l 2,1,2
 456 1344 456 1344 456 1364 c 0,3,4
 456 1461 456 1461 349 1500 c 1,5,-1
 351 1510 l 1,6,-1
 1067 1510 l 2,7,8
 1499 1510 1499 1510 1665 1265 c 0,9,10
 1757 1129 1757 1129 1757 944 c 0,11,12
 1757 855 1757 855 1736 755 c 0,13,14
 1675 468 1675 468 1425 255 c 0,15,16
 1128 1 1128 1 610 0 c 1,17,-1
 612 10 l 1,18,19
 937 80 937 80 1161 318 c 0,20,21
 1346 515 1346 515 1396 755 c 0,22,23
 1418 858 1418 858 1418 946 c 0,24,25
 1418 1110 1418 1110 1341 1220 c 0,26,27
 1223 1390 1223 1390 991 1390 c 2,28,-1
 785 1390 l 1,29,-1
 490 0 l 1,30,-1
 170 0 l 1,0,-1
EndSplineSet
Validated: 19457
EndChar

StartChar: E
Encoding: 69 69 40
Width: 1654
GlyphClass: 2
Flags: W
HStem: -20 130<771.603 1182.06> 695 120<584 1331> 1410 120<986.978 1352.57>
VStem: 209 342<349.663 692.961>
LayerCount: 2
Fore
SplineSet
879 -20 m 0,0,1
 482 -20 482 -20 309 226 c 0,2,3
 209 368 209 368 209 562 c 0,4,5
 209 653 209 653 231 756 c 0,6,7
 299 1078 299 1078 534 1284 c 0,8,9
 815 1530 815 1530 1217 1530 c 0,10,11
 1620 1530 1620 1530 1788 1262 c 1,12,-1
 1470 1010 l 1,13,-1
 1463 1018 l 1,14,15
 1475 1073 1475 1073 1475 1122 c 0,16,17
 1475 1213 1475 1213 1434 1283 c 0,18,19
 1360 1410 1360 1410 1181 1410 c 0,20,21
 968 1410 968 1410 799 1218 c 0,22,23
 645 1044 645 1044 584 815 c 1,24,-1
 1356 815 l 1,25,-1
 1331 695 l 1,26,-1
 560 695 l 1,27,28
 551 635 551 635 551 579 c 0,29,30
 551 429 551 429 614 312 c 0,31,32
 721 110 721 110 983 110 c 0,33,34
 1348 110 1348 110 1648 340 c 1,35,-1
 1655 334 l 1,36,37
 1345 -20 1345 -20 879 -20 c 0,0,1
EndSplineSet
Validated: 19457
EndChar

StartChar: F
Encoding: 70 70 41
Width: 1078
GlyphClass: 2
Flags: W
HStem: 0 21G<170 494.259> 695 120<663 1030> 1390 120<785 1286.73> 1500 10<351 358.796>
VStem: 170 320<0 320> 1324 10<1250 1271.02>
DStem2: 170 0 490 0 0.207912 0.978148<66.5317 777.115 899.691 1393.04>
LayerCount: 2
Fore
SplineSet
170 0 m 1,0,-1
 451 1320 l 2,1,2
 456 1344 456 1344 456 1364 c 0,3,4
 456 1461 456 1461 349 1500 c 1,5,-1
 351 1510 l 1,6,-1
 1389 1510 l 1,7,-1
 1334 1250 l 1,8,-1
 1324 1250 l 1,9,10
 1307 1390 1307 1390 1173 1390 c 2,11,-1
 785 1390 l 1,12,-1
 663 815 l 1,13,-1
 1055 815 l 1,14,-1
 1030 695 l 1,15,-1
 638 695 l 1,16,-1
 490 0 l 1,17,-1
 170 0 l 1,0,-1
EndSplineSet
Validated: 19457
EndChar

StartChar: G
Encoding: 71 71 42
Width: 1725
GlyphClass: 2
Flags: W
HStem: -20 130<768.781 1152.81> 663 10<1288 1295.8> 1410 120<985.097 1352.57>
VStem: 209 343<349.807 841.552>
LayerCount: 2
Fore
SplineSet
879 -20 m 0,0,1
 482 -20 482 -20 309 226 c 0,2,3
 209 368 209 368 209 562 c 0,4,5
 209 653 209 653 231 756 c 0,6,7
 299 1078 299 1078 534 1284 c 0,8,9
 815 1530 815 1530 1217 1530 c 0,10,11
 1620 1530 1620 1530 1788 1262 c 1,12,-1
 1470 1010 l 1,13,-1
 1463 1018 l 1,14,15
 1475 1073 1475 1073 1475 1122 c 0,16,17
 1475 1213 1475 1213 1434 1283 c 0,18,19
 1360 1410 1360 1410 1181 1410 c 0,20,21
 960 1410 960 1410 800 1220 c 0,22,23
 625 1011 625 1011 572 762 c 0,24,25
 552 666 552 666 552 580 c 0,26,27
 552 430 552 430 614 312 c 0,28,29
 721 110 721 110 963 110 c 0,30,31
 1167 110 1167 110 1302 275 c 0,32,33
 1357 343 1357 343 1373 414 c 2,34,-1
 1388 483 l 2,35,36
 1393 505 1393 505 1393 524 c 0,37,38
 1393 617 1393 617 1286 663 c 1,39,-1
 1288 673 l 1,40,-1
 1748 673 l 1,41,-1
 1682 361 l 1,42,43
 1360 -20 1360 -20 879 -20 c 0,0,1
EndSplineSet
Validated: 19457
EndChar

StartChar: H
Encoding: 72 72 43
Width: 1612
GlyphClass: 2
Flags: W
HStem: 0 10<1574.2 1582> 695 120<663 1270> 1500 10<351 358.796>
VStem: 170 320<0 320> 1443 320<1190 1510>
DStem2: 170 0 490 0 0.207912 0.978148<66.5317 777.115 899.691 1393.04> 1122 0 1441.61 0 0.207912 0.978148<217.231 710.584 833.159 1543.74>
CounterMasks: 1 e0
LayerCount: 2
Fore
SplineSet
170 0 m 1,0,-1
 451 1320 l 2,1,2
 456 1344 456 1344 456 1364 c 0,3,4
 456 1461 456 1461 349 1500 c 1,5,-1
 351 1510 l 1,6,-1
 811 1510 l 1,7,-1
 663 815 l 1,8,-1
 1295 815 l 1,9,-1
 1443 1510 l 1,10,-1
 1763 1510 l 1,11,-1
 1482 190 l 2,12,13
 1477 166 1477 166 1477 146 c 0,14,15
 1477 49 1477 49 1584 10 c 1,16,-1
 1582 0 l 1,17,-1
 1122 0 l 1,18,-1
 1270 695 l 1,19,-1
 638 695 l 1,20,-1
 490 0 l 1,21,-1
 170 0 l 1,0,-1
EndSplineSet
Validated: 19457
EndChar

StartChar: I
Encoding: 73 73 44
Width: 660
GlyphClass: 2
Flags: W
HStem: 0 21G<170 494.252> 1500 10<351 358.796>
VStem: 170 320<0 320>
DStem2: 170 0 490 0 0.207912 0.978148<66.5317 1393.04>
LayerCount: 2
Fore
SplineSet
170 0 m 1,0,-1
 451 1320 l 2,1,2
 456 1344 456 1344 456 1364 c 0,3,4
 456 1461 456 1461 349 1500 c 1,5,-1
 351 1510 l 1,6,-1
 811 1510 l 1,7,-1
 490 0 l 1,8,-1
 170 0 l 1,0,-1
EndSplineSet
Validated: 19457
EndChar

StartChar: J
Encoding: 74 74 45
Width: 1282
GlyphClass: 2
Flags: W
HStem: -20 120<403.444 666.329> 1390 120<567.41 1087>
VStem: 480 10<1250 1258.61>
DStem2: 787.993 -20 1107.63 -20 0.207912 0.978148<404.535 1441.36>
LayerCount: 2
Fore
SplineSet
491.5 -20 m 128,-1,1
 201 -20 201 -20 67 223 c 1,2,-1
 379 472 l 1,3,-1
 386 465 l 1,4,5
 365 410 365 410 353 353 c 0,6,7
 345 316 345 316 345 284 c 0,8,9
 345 236 345 236 363 198 c 0,10,11
 410 100 410 100 536 100 c 0,12,13
 613 100 613 100 699 166 c 0,14,15
 852 283 852 283 910 554 c 2,16,-1
 1087 1390 l 1,17,-1
 699 1390 l 2,18,19
 566 1390 566 1390 490 1250 c 1,20,-1
 480 1250 l 1,21,-1
 535 1510 l 1,22,-1
 1433 1510 l 1,23,-1
 1229 551 l 2,24,25
 1179 315 1179 315 996 161 c 0,26,0
 782 -20 782 -20 491.5 -20 c 128,-1,1
EndSplineSet
Validated: 19457
EndChar

StartChar: K
Encoding: 75 75 46
Width: 1566
GlyphClass: 2
Flags: W
HStem: 0 21G<170 494.252 1084.35 1496> 1500 10<351 358.796>
VStem: 170 320<0 320> 1100 396<0 396> 1257 341<972.83 1351.56>
DStem2: 170 0 490 0 0.207912 0.978148<66.5317 1393.04>
LayerCount: 2
Fore
SplineSet
170 0 m 1,0,-1
 451 1320 l 2,1,2
 456 1344 456 1344 456 1364 c 0,3,4
 456 1461 456 1461 349 1500 c 1,5,-1
 351 1510 l 1,6,-1
 811 1510 l 1,7,-1
 490 0 l 1,8,-1
 170 0 l 1,0,-1
1496 0 m 1,9,-1
 1100 0 l 5,10,-1
 812 368 l 1,11,12
 699 330 699 330 615 313 c 1,13,-1
 614 323 l 1,14,15
 1140 583 1140 583 1244 1075 c 0,16,17
 1257 1136 1257 1136 1257 1192 c 0,18,19
 1257 1378 1257 1378 1110 1500 c 1,20,-1
 1112 1510 l 1,21,22
 1598 1510 1598 1510 1598 1188 c 0,23,24
 1598 1135 1598 1135 1585 1074 c 0,25,26
 1516 755 1516 755 1110 485 c 1,27,-1
 1496 0 l 1,9,-1
EndSplineSet
Validated: 19457
EndChar

StartChar: L
Encoding: 76 76 47
Width: 1078
GlyphClass: 2
Flags: W
HStem: 0 120<516 1035.59> 1500 10<351 358.796>
VStem: 1113 10<251.387 260>
DStem2: 170 0 490.493 0 0.207912 0.978148<189.315 1393.04>
LayerCount: 2
Fore
SplineSet
170 0 m 1,0,-1
 451 1320 l 2,1,2
 456 1344 456 1344 456 1364 c 0,3,4
 456 1461 456 1461 349 1500 c 1,5,-1
 351 1510 l 1,6,-1
 811 1510 l 1,7,-1
 516 120 l 1,8,-1
 904 120 l 2,9,10
 1037 120 1037 120 1113 260 c 1,11,-1
 1123 260 l 1,12,-1
 1068 0 l 1,13,-1
 170 0 l 1,0,-1
EndSplineSet
Validated: 19457
EndChar

StartChar: M
Encoding: 77 77 48
Width: 2386
GlyphClass: 2
Flags: W
HStem: 0 21G<5 343.987 771 1025 1715 2014.5> 1490 20G<595 1088 1552 2032>
VStem: 2104 324<401.03 859.375>
DStem2: 5 0 334 0 0.44674 0.894664<146.977 1563.21> 1424 907 1440 323 0.446309 0.894879<0 545.371>
LayerCount: 2
Fore
SplineSet
769 0 m 1,0,-1
 771 10 l 1,1,2
 1061 135 1061 135 1126 440 c 0,3,4
 1160 600 1160 600 1160 765 c 0,5,6
 1160 1068 1160 1068 1045 1386 c 1,7,-1
 1052 1394 l 1,8,9
 1320 1167 1320 1167 1424 907 c 1,10,-1
 1622 1322 l 2,11,12
 1640 1360 1640 1360 1646 1388 c 0,13,14
 1648 1396 1648 1396 1648 1405 c 0,15,16
 1648 1464 1648 1464 1552 1500 c 1,17,-1
 1554 1510 l 1,18,-1
 2032 1510 l 1,19,-1
 1440 323 l 2,20,21
 1281 4 1281 4 769 0 c 1,0,-1
1713 0 m 1,22,-1
 1715 10 l 1,23,24
 2004 133 2004 133 2070 440 c 0,25,26
 2104 600 2104 600 2104 765 c 0,27,28
 2104 1068 2104 1068 1989 1386 c 1,29,-1
 1996 1394 l 1,30,31
 2428 1015 2428 1015 2428 606 c 0,32,33
 2428 523 2428 523 2410 440 c 0,34,35
 2316 0 2316 0 1713 0 c 1,22,-1
5 0 m 1,36,-1
 665 1322 l 2,37,38
 682 1357 682 1357 689 1388 c 0,39,40
 691 1396 691 1396 691 1405 c 0,41,42
 691 1464 691 1464 595 1500 c 1,43,-1
 597 1510 l 1,44,-1
 1088 1510 l 1,45,-1
 334 0 l 1,46,-1
 5 0 l 1,36,-1
EndSplineSet
Validated: 1
EndChar

StartChar: N
Encoding: 78 78 49
Width: 1612
GlyphClass: 2
Flags: W
HStem: 0 10<841 850.134> 1500 10<351 358.796>
VStem: 170 320<0 320> 1453 310<1200 1510>
DStem2: 170 0 490 0 0.207912 0.978148<66.5317 1393.04> 1113.56 0 1441.59 0 0.207912 0.978148<314.671 667.021 1070.2 1547.58>
LayerCount: 2
Fore
SplineSet
170 0 m 1,0,-1
 451 1320 l 2,1,2
 456 1344 456 1344 456 1364 c 0,3,4
 456 1461 456 1461 349 1500 c 1,5,-1
 351 1510 l 1,6,-1
 811 1510 l 1,7,-1
 490 0 l 1,8,-1
 170 0 l 1,0,-1
839 0 m 1,9,-1
 841 10 l 1,10,11
 1135 100 1135 100 1209 449 c 0,12,13
 1232 556 1232 556 1232 660 c 0,14,15
 1232 1078 1232 1078 861 1435 c 1,16,-1
 869 1444 l 1,17,18
 1172 1288 1172 1288 1354 1043 c 1,19,-1
 1453 1510 l 1,20,-1
 1763 1510 l 1,21,-1
 1540 463 l 2,22,23
 1442 0 1442 0 839 0 c 1,9,-1
EndSplineSet
Validated: 19457
EndChar

StartChar: O
Encoding: 79 79 50
Width: 1766
GlyphClass: 2
Flags: W
HStem: -20 120<736.075 1091.67> 1410 120<994.927 1350.62>
VStem: 208 340<328.713 840.835> 1539 339<673.728 1181.69>
LayerCount: 2
Fore
SplineSet
904 100 m 128,-1,1
 1105 100 1105 100 1280 289 c 0,2,3
 1458 481 1458 481 1516 755 c 0,4,5
 1538 859 1538 859 1539 951 c 0,6,7
 1539 1102 1539 1102 1479 1221 c 0,8,9
 1384 1410 1384 1410 1183 1410 c 128,-1,10
 982 1410 982 1410 807 1221 c 0,11,12
 628 1029 628 1029 570 755 c 0,13,14
 548 651 548 651 548 559 c 0,15,16
 548 408 548 408 608 289 c 0,17,0
 703 100 703 100 904 100 c 128,-1,1
879 -20 m 0,18,19
 482 -20 482 -20 309 226 c 0,20,21
 208 369 208 369 208 564 c 0,22,23
 208 654 208 654 230 755 c 0,24,25
 298 1076 298 1076 535 1284 c 0,26,27
 814 1530 814 1530 1208 1530 c 0,28,29
 1603 1530 1603 1530 1778 1284 c 0,30,31
 1878 1142 1878 1142 1878 949 c 0,32,33
 1878 858 1878 858 1856 755 c 0,34,35
 1787 432 1787 432 1552 226 c 0,36,37
 1271 -20 1271 -20 879 -20 c 0,18,19
EndSplineSet
Validated: 19457
EndChar

StartChar: P
Encoding: 80 80 51
Width: 1384
GlyphClass: 2
Flags: W
HStem: 0 21G<170 494.245> 1390 120<785 1048.52> 1500 10<351 358.796>
VStem: 170 320<0 320> 1190 341<851.812 1250.31>
DStem2: 170 0 490 0 0.207912 0.978148<66.5317 1393.04>
LayerCount: 2
Fore
SplineSet
170 0 m 1,0,-1
 451 1320 l 2,1,2
 456 1344 456 1344 456 1364 c 0,3,4
 456 1461 456 1461 349 1500 c 1,5,-1
 351 1510 l 1,6,-1
 986 1510 l 2,7,8
 1280 1510 1280 1510 1424 1352 c 0,9,10
 1531 1234 1531 1234 1531 1074 c 0,11,12
 1531 1021 1531 1021 1519 963 c 0,13,14
 1469 728 1469 728 1300 566 c 0,15,16
 1073 349 1073 349 678 349 c 1,17,-1
 680 359 l 1,18,19
 873 453 873 453 1000 592 c 0,20,21
 1131 735 1131 735 1173 931 c 0,22,23
 1190 1010 1190 1010 1190 1075 c 0,24,25
 1190 1178 1190 1178 1148 1247 c 0,26,27
 1061 1390 1061 1390 879 1390 c 2,28,-1
 785 1390 l 1,29,-1
 490 0 l 1,30,-1
 170 0 l 1,0,-1
EndSplineSet
Validated: 19457
EndChar

StartChar: Q
Encoding: 81 81 52
Width: 1766
GlyphClass: 2
Flags: W
HStem: 0 21G<681 881 1016.14 1403> 1410 120<994.677 1351.27>
VStem: 208 340<329.086 840.439> 1538 340<671.611 1181.49>
LayerCount: 2
Fore
SplineSet
1403 0 m 1,0,-1
 1031 0 l 1,1,-1
 713 428 l 1,2,-1
 1088 428 l 1,3,-1
 1221 248 l 1,4,5
 1456 472 1456 472 1516 755 c 0,6,7
 1538 858 1538 858 1538 950 c 0,8,9
 1538 1101 1538 1101 1479 1221 c 0,10,11
 1386 1410 1386 1410 1183 1410 c 0,12,13
 981 1410 981 1410 807 1221 c 0,14,15
 627 1026 627 1026 570 755 c 0,16,17
 548 649 548 649 548 556 c 0,18,19
 548 409 548 409 604 295 c 0,20,21
 688 125 688 125 881 -10 c 1,22,-1
 879 -20 l 1,23,24
 483 -20 483 -20 309 226 c 0,25,26
 208 369 208 369 208 564 c 0,27,28
 208 654 208 654 230 755 c 0,29,30
 298 1076 298 1076 535 1284 c 0,31,32
 814 1530 814 1530 1208 1530 c 0,33,34
 1604 1530 1604 1530 1778 1284 c 0,35,36
 1878 1142 1878 1142 1878 948 c 0,37,38
 1878 857 1878 857 1856 755 c 0,39,40
 1786 428 1786 428 1552 227 c 0,41,42
 1467 154 1467 154 1337 92 c 1,43,-1
 1403 0 l 1,0,-1
EndSplineSet
Validated: 19457
EndChar

StartChar: R
Encoding: 82 82 53
Width: 1501
GlyphClass: 2
Flags: W
HStem: 0 21G<170 494.245 1083.37 1496> 1390 120<785 1048.52> 1500 10<351 358.796>
VStem: 170 320<0 320> 1099 397<0 397> 1190 339<835.641 1250.47>
DStem2: 170 0 490 0 0.207912 0.978148<66.5317 1393.04>
LayerCount: 2
Fore
SplineSet
170 0 m 1,0,-1
 451 1320 l 2,1,2
 456 1344 456 1344 456 1364 c 0,3,4
 456 1461 456 1461 349 1500 c 1,5,-1
 351 1510 l 1,6,-1
 986 1510 l 2,7,8
 1280 1510 1280 1510 1424 1352 c 0,9,10
 1529 1236 1529 1236 1529 1070 c 0,11,12
 1529 1019 1529 1019 1519 963 c 0,13,14
 1477 724 1477 724 1300 566 c 0,15,16
 1234 505 1234 505 1138 451 c 1,17,-1
 1496 0 l 1,18,-1
 1099 0 l 1,19,-1
 820 357 l 1,20,21
 752 349 752 349 678 349 c 1,22,-1
 680 359 l 1,23,24
 873 453 873 453 1000 592 c 0,25,26
 1131 735 1131 735 1173 931 c 0,27,28
 1190 1010 1190 1010 1190 1075 c 0,29,30
 1190 1178 1190 1178 1148 1247 c 0,31,32
 1061 1390 1061 1390 879 1390 c 2,33,-1
 785 1390 l 1,34,-1
 490 0 l 1,35,-1
 170 0 l 1,0,-1
EndSplineSet
Validated: 19457
EndChar

StartChar: S
Encoding: 83 83 54
Width: 1330
GlyphClass: 2
Flags: W
HStem: -20 120<503.211 831.907> 1100 21G<1104 1137.02> 1410 120<882.734 1115.21>
VStem: 499 306<1089 1257.41> 1066 332<398.411 628.014>
DStem2: 944 1035 706 817 0.896112 -0.443829<-158.499 277.717>
LayerCount: 2
Fore
SplineSet
636 -20 m 128,-1,1
 354 -20 354 -20 234 122 c 0,2,3
 157 213 157 213 128 368 c 1,4,-1
 455 627 l 1,5,-1
 463 620 l 1,6,7
 430 541 430 541 408 440 c 0,8,9
 398 395 398 395 398 355 c 0,10,11
 398 277 398 277 434 216 c 0,12,13
 501 100 501 100 666 100 c 0,14,15
 807 100 807 100 924 211 c 0,16,17
 1022 305 1022 305 1056 434 c 0,18,19
 1066 472 1066 472 1066 506 c 0,20,21
 1066 638 1066 638 903 719 c 2,22,-1
 706 817 l 2,23,24
 499 920 499 920 499 1089 c 0,25,26
 499 1119 499 1119 506 1151 c 0,27,28
 543 1324 543 1324 707 1440 c 0,29,30
 834 1530 834 1530 1020 1530 c 0,31,32
 1225 1530 1225 1530 1311 1426 c 0,33,34
 1352 1376 1352 1376 1366 1303 c 1,35,-1
 1112 1100 l 1,36,-1
 1104 1107 l 1,37,38
 1129 1168 1129 1168 1139 1217 c 0,39,40
 1145 1247 1145 1247 1145 1273 c 0,41,42
 1145 1314 1145 1314 1130 1344 c 0,43,44
 1096 1410 1096 1410 1008 1410 c 0,45,46
 941 1410 941 1410 889 1371 c 0,47,48
 830 1326 830 1326 810 1242 c 0,49,50
 805 1221 805 1221 805 1202 c 0,51,52
 805 1104 805 1104 944 1035 c 2,53,-1
 1156 930 l 2,54,55
 1398 810 1398 810 1398 595 c 0,56,57
 1398 552 1398 552 1388 506 c 0,58,59
 1343 294 1343 294 1140 144 c 0,60,0
 918 -20 918 -20 636 -20 c 128,-1,1
EndSplineSet
Validated: 19457
EndChar

StartChar: T
Encoding: 84 84 55
Width: 1210
GlyphClass: 2
Flags: W
HStem: 0 21G<446 770.245> 1390 120<363.41 741 1061 1418.73>
VStem: 276 10<1250 1258.61> 446 320<0 320> 1456 10<1250 1271.02>
DStem2: 446 0 766 0 0.207912 0.978148<66.5317 1420.96>
LayerCount: 2
Fore
SplineSet
446 0 m 1,0,-1
 741 1390 l 1,1,-1
 495 1390 l 2,2,3
 362 1390 362 1390 286 1250 c 1,4,-1
 276 1250 l 1,5,-1
 331 1510 l 1,6,-1
 1521 1510 l 1,7,-1
 1466 1250 l 1,8,-1
 1456 1250 l 1,9,10
 1439 1390 1439 1390 1305 1390 c 2,11,-1
 1061 1390 l 1,12,-1
 766 0 l 1,13,-1
 446 0 l 1,0,-1
EndSplineSet
Validated: 19457
EndChar

StartChar: U
Encoding: 85 85 56
Width: 1634
GlyphClass: 2
Flags: W
HStem: -20 120<699.335 992.335> 1500 10<351 358.796>
VStem: 272 319<222.351 678.773> 1465 320<1190 1510>
DStem2: 165.63 -20 485.78 -20 0.207912 0.978148<505.287 1413.52> 1139.78 -20 1459.63 -20 0.207912 0.978148<402.601 1564.18>
LayerCount: 2
Fore
SplineSet
811 -20 m 0,0,1
 506 -20 506 -20 370 142 c 0,2,3
 272 258 272 258 272 419 c 0,4,5
 272 482 272 482 287 551 c 2,6,-1
 451 1320 l 2,7,8
 456 1344 456 1344 456 1364 c 0,9,10
 456 1461 456 1461 349 1500 c 1,11,-1
 351 1510 l 1,12,-1
 811 1510 l 1,13,-1
 608 555 l 2,14,15
 591 473 591 473 591 404 c 0,16,17
 591 306 591 306 626 234 c 0,18,19
 692 100 692 100 839 100 c 0,20,21
 943 100 943 100 1053 185 c 0,22,23
 1209 305 1209 305 1262 555 c 2,24,-1
 1465 1510 l 1,25,-1
 1785 1510 l 1,26,-1
 1581 551 l 2,27,28
 1528 300 1528 300 1329 145 c 0,29,30
 1117 -20 1117 -20 811 -20 c 0,0,1
EndSplineSet
Validated: 19457
EndChar

StartChar: V
Encoding: 86 86 57
Width: 1785
GlyphClass: 2
Flags: W
HStem: 0 10<1161.61 1170> 1500 10<326 334.481>
VStem: 1616 339<964.219 1340.55>
DStem2: 742 1510 458 1359 0.212818 -0.977092<0 1477.96>
LayerCount: 2
Fore
SplineSet
1433 1510 m 1,0,1
 1955 1510 1955 1510 1955 1182 c 0,2,3
 1955 1130 1955 1130 1942 1070 c 0,4,5
 1836 585 1836 585 1109 116 c 1,6,-1
 1104 124 l 1,7,8
 1513 654 1513 654 1602 1070 c 0,9,10
 1616 1136 1616 1136 1616 1194 c 0,11,12
 1616 1404 1616 1404 1431 1500 c 1,13,-1
 1433 1510 l 1,0,1
754 0 m 1,14,-1
 458 1359 l 2,15,16
 438 1453 438 1453 324 1500 c 9,17,-1
 326 1510 l 1,18,-1
 742 1510 l 1,19,-1
 1038 151 l 2,20,21
 1059 57 1059 57 1172 10 c 9,22,-1
 1170 0 l 1,23,-1
 754 0 l 1,14,-1
EndSplineSet
Validated: 19457
EndChar

StartChar: W
Encoding: 87 87 58
Width: 2408
GlyphClass: 2
Flags: W
HStem: 0 10<1161.61 1170 1784.61 1793> 1500 10<326 334.481 949 957.481>
VStem: 2239 339<965.094 1340.55>
DStem2: 742 1510 458 1359 0.212818 -0.977092<0 1477.96> 1365 1510 1081 1359 0.212818 -0.977092<0 1477.96>
LayerCount: 2
Fore
SplineSet
754 0 m 1,0,-1
 458 1359 l 2,1,2
 438 1453 438 1453 324 1500 c 9,3,-1
 326 1510 l 1,4,-1
 742 1510 l 1,5,-1
 1038 151 l 2,6,7
 1059 57 1059 57 1172 10 c 9,8,-1
 1170 0 l 1,9,-1
 754 0 l 1,0,-1
2056 1510 m 1,10,11
 2578 1510 2578 1510 2578 1182 c 0,12,13
 2578 1130 2578 1130 2565 1070 c 0,14,15
 2459 587 2459 587 1732 116 c 1,16,-1
 1727 124 l 1,17,18
 2138 658 2138 658 2225 1070 c 0,19,20
 2239 1136 2239 1136 2239 1194 c 0,21,22
 2239 1404 2239 1404 2054 1500 c 1,23,-1
 2056 1510 l 1,10,11
1377 0 m 1,24,-1
 1081 1359 l 2,25,26
 1061 1453 1061 1453 947 1500 c 9,27,-1
 949 1510 l 1,28,-1
 1365 1510 l 1,29,-1
 1661 151 l 2,30,31
 1682 57 1682 57 1795 10 c 9,32,-1
 1793 0 l 1,33,-1
 1377 0 l 1,24,-1
EndSplineSet
Validated: 19457
EndChar

StartChar: X
Encoding: 88 88 59
Width: 1610
GlyphClass: 2
Flags: W
HStem: 0 21G<57 291.225 1140.18 1500> 1500 10<326 334.444>
VStem: 57 204<0 204> 1421 350<1097.11 1385.91>
DStem2: 57 0 261 0 0.833912 0.551898<170.118 974.715> 755 1510 482 1361 0.442456 -0.89679<0 920.698 1034.29 1528.92>
LayerCount: 2
Fore
SplineSet
1298 1510 m 1,0,1
 1771 1510 1771 1510 1771 1259 c 0,2,3
 1771 1224 1771 1224 1762 1185 c 0,4,5
 1710 957 1710 957 1210 661 c 1,6,-1
 1205 669 l 1,7,8
 1369 917 1369 917 1407 1101 c 0,9,10
 1421 1170 1421 1170 1421 1230 c 0,11,12
 1421 1406 1421 1406 1296 1500 c 1,13,-1
 1298 1510 l 1,0,1
57 0 m 1,14,-1
 882 546 l 1,15,-1
 482 1361 l 2,16,17
 437 1453 437 1453 324 1500 c 1,18,-1
 326 1510 l 1,19,-1
 755 1510 l 1,20,-1
 1500 0 l 1,21,-1
 1150 0 l 1,22,-1
 932 444 l 1,23,-1
 261 0 l 1,24,-1
 57 0 l 1,14,-1
EndSplineSet
Validated: 19457
EndChar

StartChar: Y
Encoding: 89 89 60
Width: 1567
GlyphClass: 2
Flags: W
HStem: 0 21G<660 984.26> 1500 10<326 335.606>
VStem: 660 320<0 320> 1419 336<1064.4 1388.28>
DStem2: 760 1510 482 1361 0.310821 -0.950468<0 958.347> 660 0 980 0 0.207912 0.978148<66.5317 515.233>
LayerCount: 2
Fore
SplineSet
660 0 m 1,0,-1
 767 504 l 1,1,-1
 482 1361 l 2,2,3
 450 1457 450 1457 324 1500 c 1,4,-1
 326 1510 l 1,5,-1
 760 1510 l 1,6,-1
 1088 507 l 1,7,-1
 980 0 l 1,8,-1
 660 0 l 1,0,-1
1319 1510 m 1,9,10
 1755 1510 1755 1510 1755 1250 c 0,11,12
 1755 1213 1755 1213 1746 1170 c 0,13,14
 1672 820 1672 820 1169 576 c 1,15,-1
 1165 584 l 1,16,17
 1340 816 1340 816 1401 1101 c 0,18,19
 1419 1184 1419 1184 1419 1253 c 0,20,21
 1419 1418 1419 1418 1317 1500 c 1,22,-1
 1319 1510 l 1,9,10
EndSplineSet
Validated: 19457
EndChar

StartChar: Z
Encoding: 90 90 61
Width: 1425
GlyphClass: 2
Flags: W
HStem: 0 140<80 1276.91> 1390 120<483.41 1082.35>
VStem: 396 10<1250 1258.61> 1164 380<976.596 1312.79> 1355 10<271.387 280>
LayerCount: 2
Fore
SplineSet
50 0 m 1,0,-1
 80 140 l 1,1,-1
 1145 140 l 2,2,3
 1278 140 1278 140 1355 280 c 1,4,-1
 1365 280 l 1,5,-1
 1305 0 l 1,6,-1
 50 0 l 1,0,-1
451 1510 m 1,7,-1
 962 1510 l 2,8,9
 1544 1510 1544 1510 1544 1174 c 0,10,11
 1544 1127 1544 1127 1533 1073 c 0,12,13
 1422 552 1422 552 209 177 c 9,14,-1
 206 186 l 1,15,16
 1061 643 1061 643 1152 1070 c 0,17,18
 1164 1126 1164 1126 1164 1171 c 0,19,20
 1164 1390 1164 1390 896 1390 c 2,21,-1
 615 1390 l 2,22,23
 482 1390 482 1390 406 1250 c 1,24,-1
 396 1250 l 1,25,-1
 451 1510 l 1,7,-1
EndSplineSet
Validated: 19457
EndChar

StartChar: bracketleft
Encoding: 91 91 62
Width: 916
GlyphClass: 2
Flags: W
HStem: -250 120<517 843> 1640 120<894 1245>
DStem2: 170 -250 491.493 -250 0.207912 0.978148<189.523 1999.23>
LayerCount: 2
Fore
SplineSet
170 -250 m 1,0,-1
 597 1760 l 1,1,-1
 1270 1760 l 1,2,-1
 1245 1640 l 1,3,-1
 894 1640 l 1,4,-1
 517 -130 l 1,5,-1
 868 -130 l 1,6,-1
 843 -250 l 1,7,-1
 170 -250 l 1,0,-1
EndSplineSet
Validated: 19457
EndChar

StartChar: backslash
Encoding: 92 92 63
Width: 1128
GlyphClass: 2
Flags: W
DStem2: 597 1690 347 1585 0.276087 -0.961133<31.8971 1832.25>
LayerCount: 2
Fore
SplineSet
854 -180 m 1,0,-1
 347 1585 l 1,1,-1
 597 1690 l 1,2,-1
 1103 -71 l 1,3,-1
 854 -180 l 1,0,-1
EndSplineSet
Validated: 1
EndChar

StartChar: bracketright
Encoding: 93 93 64
Width: 863
GlyphClass: 2
Flags: W
HStem: -250 120<-8 343> 1640 120<394 720>
DStem2: 317.493 -250 640 -250 0.207912 0.978148<122.681 1932.38>
LayerCount: 2
Fore
SplineSet
640 -250 m 1,0,-1
 -33 -250 l 1,1,-1
 -8 -130 l 1,2,-1
 343 -130 l 1,3,-1
 720 1640 l 1,4,-1
 369 1640 l 1,5,-1
 394 1760 l 1,6,-1
 1067 1760 l 1,7,-1
 640 -250 l 1,0,-1
EndSplineSet
Validated: 19457
EndChar

StartChar: asciicircum
Encoding: 94 94 65
Width: 740
GlyphClass: 2
Flags: W
HStem: 1123 427
DStem2: 279 1217 354 1123 0.79935 0.600866<3.46986 352.869>
LayerCount: 2
Fore
SplineSet
722 1550 m 1,0,-1
 988 1260 l 1,1,-1
 823 1123 l 1,2,-1
 634 1332 l 1,3,-1
 354 1123 l 1,4,-1
 279 1217 l 1,5,-1
 722 1550 l 1,0,-1
EndSplineSet
Validated: 19457
EndChar

StartChar: underscore
Encoding: 95 95 66
Width: 1192
GlyphClass: 2
Flags: W
HStem: -241 141<99 1021>
LayerCount: 2
Fore
SplineSet
99 -100 m 1,0,-1
 1051 -100 l 1,1,-1
 1021 -241 l 1,2,-1
 69 -241 l 1,3,-1
 99 -100 l 1,0,-1
EndSplineSet
Validated: 19457
EndChar

StartChar: grave
Encoding: 96 96 67
Width: 427
GlyphClass: 2
Flags: W
HStem: 1150 404
VStem: 311 348
LayerCount: 2
Fore
SplineSet
538 1554 m 1,0,1
 659 1441 659 1441 659 1252 c 0,2,3
 659 1204 659 1204 651 1150 c 1,4,-1
 641 1150 l 1,5,6
 510 1332 510 1332 311 1367 c 1,7,-1
 538 1554 l 1,0,1
EndSplineSet
Validated: 19457
EndChar

StartChar: a
Encoding: 97 97 68
Width: 1328
GlyphClass: 2
Flags: W
HStem: 0 10<762.516 770 1290.2 1298> 990 110<787.82 1068>
VStem: 173 319<239.431 651.517>
DStem2: 858 0 1157.61 0 0.207912 0.978148<213.073 1012.03>
LayerCount: 2
Fore
SplineSet
1298 0 m 1,0,-1
 858 0 l 1,1,-1
 1068 990 l 1,2,-1
 968 990 l 2,3,4
 816 990 816 990 689 876 c 0,5,6
 549 750 549 750 507 550 c 0,7,8
 492 481 492 481 492 419 c 0,9,10
 492 301 492 301 546 210 c 0,11,12
 619 85 619 85 772 10 c 1,13,-1
 770 0 l 1,14,15
 440 0 440 0 285 150 c 0,16,17
 173 259 173 259 173 425 c 0,18,19
 173 484 173 484 187 550 c 0,20,21
 239 793 239 793 450 946 c 0,22,23
 662 1100 662 1100 972 1100 c 2,24,-1
 1392 1100 l 1,25,-1
 1198 190 l 2,26,27
 1193 166 1193 166 1193 146 c 0,28,29
 1193 49 1193 49 1300 10 c 1,30,-1
 1298 0 l 1,0,-1
EndSplineSet
Validated: 19457
EndChar

StartChar: b
Encoding: 98 98 69
Width: 1328
GlyphClass: 2
Flags: W
HStem: 0 110<493 774.094> 1090 10<792 799.484> 1500 10<351 358.796>
VStem: 1070 319<448.483 860.569>
DStem2: 170 0 469.619 0 0.207912 0.978148<174.752 1393.04>
LayerCount: 2
Fore
SplineSet
170 0 m 1,0,-1
 451 1320 l 2,1,2
 456 1344 456 1344 456 1364 c 0,3,4
 456 1461 456 1461 349 1500 c 1,5,-1
 351 1510 l 1,6,-1
 791 1510 l 1,7,-1
 493 110 l 1,8,-1
 593 110 l 2,9,10
 746 110 746 110 873 224 c 0,11,12
 1013 350 1013 350 1055 550 c 0,13,14
 1070 619 1070 619 1070 681 c 0,15,16
 1070 799 1070 799 1016 890 c 0,17,18
 943 1015 943 1015 790 1090 c 1,19,-1
 792 1100 l 1,20,21
 1122 1100 1122 1100 1277 950 c 0,22,23
 1389 841 1389 841 1389 675 c 0,24,25
 1389 616 1389 616 1375 550 c 0,26,27
 1323 307 1323 307 1112 154 c 0,28,29
 900 0 900 0 590 0 c 2,30,-1
 170 0 l 1,0,-1
EndSplineSet
Validated: 19457
EndChar

StartChar: c
Encoding: 99 99 70
Width: 1248
GlyphClass: 2
Flags: W
HStem: -20 120<592.391 923.893> 1011 109<747.338 1034.92>
VStem: 172 316<211.648 645.538>
LayerCount: 2
Fore
SplineSet
678 -20 m 0,0,1
 362 -20 362 -20 239 172 c 0,2,3
 172 277 172 277 172 413 c 0,4,5
 172 478 172 478 187 550 c 0,6,7
 235 776 235 776 399 928 c 24,8,9
 607 1120 607 1120 909 1120 c 0,10,11
 1208 1120 1208 1120 1339 910 c 1,12,-1
 1083 708 l 1,13,-1
 1076 715 l 1,14,15
 1085 737 1085 737 1092 771 c 0,16,17
 1098 798 1098 798 1098 823 c 0,18,19
 1098 877 1098 877 1071 924 c 0,20,21
 1022 1011 1022 1011 905 1011 c 0,22,23
 797 1011 797 1011 713 942 c 0,24,25
 564 819 564 819 507 550 c 0,26,27
 488 459 488 459 488 385 c 0,28,29
 488 288 488 288 521 222 c 0,30,31
 583 100 583 100 769 100 c 0,32,33
 1002 100 1002 100 1221 240 c 1,34,-1
 1228 234 l 1,35,36
 992 -20 992 -20 678 -20 c 0,0,1
EndSplineSet
Validated: 19457
EndChar

StartChar: d
Encoding: 100 100 71
Width: 1328
GlyphClass: 2
Flags: W
HStem: 0 110<627.516 881> 0 10<1290.2 1298> 1080 20G<839 1002> 1500 10<1039 1046.8>
VStem: 174 319<245.781 652.407>
DStem2: 857.619 0 1157.61 0 0.207912 0.978148<213.152 1393.12>
LayerCount: 2
Fore
SplineSet
1298 0 m 1,0,-1
 738 0 l 2,1,2
 428 0 428 0 282 154 c 0,3,4
 174 267 174 267 174 430 c 0,5,6
 174 487 174 487 187 550 c 0,7,8
 241 802 241 802 455 950 c 0,9,10
 674 1100 674 1100 1004 1100 c 1,11,-1
 1002 1090 l 1,12,13
 817 1015 817 1015 690 890 c 0,14,15
 549 751 549 751 507 550 c 0,16,17
 493 484 493 484 493 426 c 0,18,19
 493 309 493 309 551 224 c 0,20,21
 630 110 630 110 781 110 c 2,22,-1
 881 110 l 1,23,-1
 1139 1320 l 2,24,25
 1144 1344 1144 1344 1144 1364 c 0,26,27
 1144 1461 1144 1461 1037 1500 c 1,28,-1
 1039 1510 l 1,29,-1
 1479 1510 l 1,30,-1
 1198 190 l 2,31,32
 1193 166 1193 166 1193 146 c 0,33,34
 1193 49 1193 49 1300 10 c 1,35,-1
 1298 0 l 1,0,-1
EndSplineSet
Validated: 19457
EndChar

StartChar: e
Encoding: 101 101 72
Width: 1248
GlyphClass: 2
Flags: W
HStem: -20 120<592.391 923.893> 495 110<520 989> 1011 109<747.338 1034.92>
VStem: 172 316<211.648 493.973>
LayerCount: 2
Fore
SplineSet
678 -20 m 0,0,1
 362 -20 362 -20 239 172 c 0,2,3
 172 277 172 277 172 413 c 0,4,5
 172 478 172 478 187 550 c 0,6,7
 235 776 235 776 399 928 c 0,8,9
 607 1120 607 1120 909 1120 c 0,10,11
 1208 1120 1208 1120 1339 910 c 1,12,-1
 1083 708 l 1,13,-1
 1076 715 l 1,14,15
 1085 737 1085 737 1092 771 c 0,16,17
 1098 798 1098 798 1098 823 c 0,18,19
 1098 877 1098 877 1071 924 c 0,20,21
 1022 1011 1022 1011 905 1011 c 0,22,23
 797 1011 797 1011 713 942 c 0,24,25
 580 832 580 832 520 605 c 1,26,-1
 1013 605 l 1,27,-1
 989 495 l 1,28,-1
 497 495 l 1,29,30
 488 435 488 435 488 384 c 0,31,32
 488 288 488 288 521 222 c 0,33,34
 583 100 583 100 769 100 c 0,35,36
 1002 100 1002 100 1221 240 c 1,37,-1
 1228 234 l 1,38,39
 992 -20 992 -20 678 -20 c 0,0,1
EndSplineSet
Validated: 19457
EndChar

StartChar: g
Encoding: 103 103 73
Width: 1328
GlyphClass: 2
Flags: W
HStem: -410 21G<343 705.5> 0 10<762.516 770> 990 110<787.82 1068>
VStem: 173 319<239.431 651.517>
DStem2: 770.466 -410 1070.47 -410 0.207912 0.978148<407.214 1431.27>
LayerCount: 2
Fore
SplineSet
770 0 m 1,0,1
 440 0 440 0 285 150 c 0,2,3
 173 259 173 259 173 425 c 0,4,5
 173 484 173 484 187 550 c 0,6,7
 239 793 239 793 450 946 c 0,8,9
 662 1100 662 1100 972 1100 c 2,10,-1
 1392 1100 l 1,11,-1
 1198 190 l 2,12,13
 1070 -410 1070 -410 341 -410 c 1,14,-1
 343 -400 l 1,15,16
 808 -235 808 -235 898 190 c 2,17,-1
 1068 990 l 1,18,-1
 968 990 l 2,19,20
 816 990 816 990 689 876 c 0,21,22
 549 750 549 750 507 550 c 0,23,24
 492 481 492 481 492 419 c 0,25,26
 492 301 492 301 546 210 c 0,27,28
 619 85 619 85 772 10 c 1,29,-1
 770 0 l 1,0,1
EndSplineSet
Validated: 19457
EndChar

StartChar: h
Encoding: 104 104 74
Width: 1328
GlyphClass: 2
Flags: W
HStem: 0 21G<170 474.242 759 871.5> 990 110<704 935.832> 1500 10<351 358.796>
VStem: 170 300<0 300> 1070 318<447.064 854.468>
DStem2: 165.749 -20 465.749 -20 0.207912 0.978148<82.8203 1094.85 1207.43 1413.49>
LayerCount: 2
Fore
SplineSet
170 0 m 1,0,-1
 451 1320 l 2,1,2
 456 1344 456 1344 456 1364 c 0,3,4
 456 1461 456 1461 349 1500 c 1,5,-1
 351 1510 l 1,6,-1
 791 1510 l 9,7,-1
 704 1100 l 25,8,-1
 824 1100 l 2,9,10
 1139 1100 1139 1100 1275 952 c 0,11,12
 1388 830 1388 830 1388 665 c 0,13,14
 1388 610 1388 610 1375 550 c 0,15,16
 1326 320 1326 320 1122 157 c 0,17,18
 974 39 974 39 769 -20 c 1,19,-1
 759 -20 l 1,20,21
 872 108 872 108 946 248 c 0,22,23
 1022 393 1022 393 1055 550 c 0,24,25
 1070 619 1070 619 1070 678 c 0,26,27
 1070 794 1070 794 1014 872 c 0,28,29
 930 990 930 990 780 990 c 2,30,-1
 680 990 l 1,31,-1
 470 0 l 1,32,-1
 170 0 l 1,0,-1
EndSplineSet
Validated: 19457
EndChar

StartChar: i
Encoding: 105 105 75
Width: 640
GlyphClass: 2
Flags: W
HStem: 0 10<602.204 610> 1090 10<264 274.836> 1170 370<501.356 678.644>
VStem: 170 606
DStem2: 170 0 469.614 0 0.207912 0.978148<213.073 974.655>
LayerCount: 2
Fore
SplineSet
629 1540 m 0,0,1
 704 1540 704 1540 746 1486 c 0,2,3
 776 1447 776 1447 776 1396 c 0,4,5
 776 1376 776 1376 772 1355 c 0,6,7
 756 1278 756 1278 691.5 1224 c 128,-1,8
 627 1170 627 1170 551 1170 c 0,9,10
 476 1170 476 1170 434 1224 c 0,11,12
 404 1263 404 1263 404 1314 c 0,13,14
 404 1334 404 1334 408 1355 c 0,15,16
 424 1432 424 1432 488.5 1486 c 128,-1,17
 553 1540 553 1540 629 1540 c 0,0,1
170 0 m 1,18,-1
 363 910 l 2,19,20
 368 934 368 934 368 955 c 0,21,22
 368 1052 368 1052 262 1090 c 1,23,-1
 264 1100 l 1,24,-1
 704 1100 l 1,25,-1
 510 190 l 2,26,27
 505 166 505 166 505 146 c 0,28,29
 505 49 505 49 612 10 c 1,30,-1
 610 0 l 1,31,-1
 170 0 l 1,18,-1
EndSplineSet
Validated: 19457
EndChar

StartChar: j
Encoding: 106 106 76
Width: 640
GlyphClass: 2
Flags: W
HStem: -410 21G<-95 143> 1090 10<264 274.836> 1170 370<501.356 678.644>
DStem2: 83.1415 -410 383.142 -410 0.207912 0.978148<241.077 1393.75>
LayerCount: 2
Fore
SplineSet
629 1540 m 0,0,1
 704 1540 704 1540 746 1486 c 0,2,3
 776 1447 776 1447 776 1396 c 0,4,5
 776 1376 776 1376 772 1355 c 0,6,7
 756 1278 756 1278 691.5 1224 c 128,-1,8
 627 1170 627 1170 551 1170 c 0,9,10
 476 1170 476 1170 434 1224 c 0,11,12
 404 1263 404 1263 404 1314 c 0,13,14
 404 1334 404 1334 408 1355 c 0,15,16
 424 1432 424 1432 488.5 1486 c 128,-1,17
 553 1540 553 1540 629 1540 c 0,0,1
-97 -410 m 1,18,-1
 -95 -400 l 1,19,20
 104 -309 104 -309 162 -39 c 2,21,-1
 363 910 l 2,22,23
 368 934 368 934 368 955 c 0,24,25
 368 1052 368 1052 262 1090 c 1,26,-1
 264 1100 l 1,27,-1
 704 1100 l 1,28,-1
 462 -39 l 2,29,30
 383 -410 383 -410 -97 -410 c 1,18,-1
EndSplineSet
Validated: 19457
EndChar

StartChar: k
Encoding: 107 107 77
Width: 1349
GlyphClass: 2
Flags: W
HStem: 0 21G<170 474.252 904.023 1344> 184 8<545 550.049> 1080 20G<940 1152> 1500 10<351 358.796>
VStem: 170 300<0 300> 1040 322<675.073 986.93>
DStem2: 170 0 470 0 0.207912 0.978148<62.3735 1393.04>
LayerCount: 2
Fore
SplineSet
170 0 m 1,0,-1
 451 1320 l 2,1,2
 456 1344 456 1344 456 1364 c 0,3,4
 456 1461 456 1461 349 1500 c 1,5,-1
 351 1510 l 1,6,-1
 791 1510 l 1,7,-1
 470 0 l 1,8,-1
 170 0 l 1,0,-1
1344 0 m 1,9,-1
 927 0 l 1,10,-1
 680 215 l 1,11,-1
 548 184 l 1,12,-1
 545 192 l 1,13,14
 707 282 707 282 814 384 c 0,15,16
 983 545 983 545 1027 751 c 0,17,18
 1040 811 1040 811 1040 863 c 0,19,20
 1040 1009 1040 1009 940 1090 c 1,21,-1
 942 1100 l 1,22,23
 1362 1100 1362 1100 1362 856 c 0,24,25
 1362 821 1362 821 1354 782 c 0,26,27
 1295 508 1295 508 962 334 c 1,28,-1
 1344 0 l 1,9,-1
EndSplineSet
Validated: 19457
EndChar

StartChar: l
Encoding: 108 108 78
Width: 640
GlyphClass: 2
Flags: W
HStem: 0 10<602.204 610> 1500 10<351 358.796>
VStem: 170 621
DStem2: 170 0 469.614 0 0.207912 0.978148<213.073 1393.04>
LayerCount: 2
Fore
SplineSet
170 0 m 1,0,-1
 451 1320 l 2,1,2
 456 1344 456 1344 456 1364 c 0,3,4
 456 1461 456 1461 349 1500 c 1,5,-1
 351 1510 l 1,6,-1
 791 1510 l 1,7,-1
 510 190 l 2,8,9
 505 166 505 166 505 146 c 0,10,11
 505 49 505 49 612 10 c 1,12,-1
 610 0 l 1,13,-1
 170 0 l 1,0,-1
EndSplineSet
Validated: 19457
EndChar

StartChar: m
Encoding: 109 109 79
Width: 1805
GlyphClass: 2
Flags: W
HStem: 0 21G<170 474.242 757 1061.24 1236 1348.5> 990 110<680 1412.83> 1090 10<264 274.836>
VStem: 170 300<0 300> 757 300<0 300> 939 300<558 858> 1547 317<444.674 854.565>
DStem2: 165.749 -20 465.749 -20 0.207912 0.978148<82.8203 995.101> 752.749 -20 1052.75 -20 0.207912 0.978148<82.8203 897.537>
LayerCount: 2
Fore
SplineSet
170 0 m 1,0,-1
 363 910 l 2,1,2
 368 934 368 934 368 955 c 0,3,4
 368 1052 368 1052 262 1090 c 1,5,-1
 264 1100 l 1,6,-1
 1301 1100 l 2,7,8
 1616 1100 1616 1100 1752 952 c 0,9,10
 1864 830 1864 830 1864 665 c 0,11,12
 1864 610 1864 610 1852 550 c 0,13,14
 1803 320 1803 320 1599 157 c 0,15,16
 1451 39 1451 39 1246 -20 c 1,17,-1
 1236 -20 l 1,18,19
 1354 114 1354 114 1423 248 c 0,20,21
 1498 393 1498 393 1532 550 c 0,22,23
 1547 619 1547 619 1547 678 c 0,24,25
 1547 795 1547 795 1492 872 c 0,26,27
 1408 990 1408 990 1257 990 c 2,28,-1
 680 990 l 1,29,-1
 470 0 l 1,30,-1
 170 0 l 1,0,-1
757 0 m 1,31,-1
 939 858 l 1,32,-1
 1239 858 l 1,33,-1
 1057 0 l 1,34,-1
 757 0 l 1,31,-1
EndSplineSet
Validated: 19457
EndChar

StartChar: n
Encoding: 110 110 80
Width: 1328
GlyphClass: 2
Flags: W
HStem: 0 21G<170 474.242 759 871.5> 990 110<680 935.832> 1090 10<264 274.836>
VStem: 170 300<0 300> 1070 318<447.064 854.468>
DStem2: 165.749 -20 465.749 -20 0.207912 0.978148<82.8203 995.101>
LayerCount: 2
Fore
SplineSet
170 0 m 1,0,-1
 363 910 l 2,1,2
 368 934 368 934 368 955 c 0,3,4
 368 1052 368 1052 262 1090 c 1,5,-1
 264 1100 l 1,6,-1
 824 1100 l 2,7,8
 1139 1100 1139 1100 1275 952 c 0,9,10
 1388 830 1388 830 1388 665 c 0,11,12
 1388 610 1388 610 1375 550 c 0,13,14
 1326 320 1326 320 1122 157 c 0,15,16
 974 39 974 39 769 -20 c 1,17,-1
 759 -20 l 1,18,19
 872 108 872 108 946 248 c 0,20,21
 1022 393 1022 393 1055 550 c 0,22,23
 1070 619 1070 619 1070 678 c 0,24,25
 1070 794 1070 794 1014 872 c 0,26,27
 930 990 930 990 780 990 c 2,28,-1
 680 990 l 1,29,-1
 470 0 l 1,30,-1
 170 0 l 1,0,-1
EndSplineSet
Validated: 19457
EndChar

StartChar: o
Encoding: 111 111 81
Width: 1335
GlyphClass: 2
Flags: W
HStem: -20 109<571.022 825.355> 1011 109<744.199 998.67>
VStem: 172 314<212.842 640.581> 1084 313<458.574 889.632>
LayerCount: 2
Fore
SplineSet
686.5 89 m 128,-1,1
 808 89 808 89 914 215 c 0,2,3
 1019 340 1019 340 1063 550 c 0,4,5
 1084 650 1084 650 1084 730 c 0,6,7
 1084 817 1084 817 1059 879 c 0,8,9
 1005 1011 1005 1011 883 1011 c 0,10,11
 762 1011 762 1011 656 885 c 0,12,13
 551 758 551 758 507 550 c 0,14,15
 486 450 486 450 486 370 c 0,16,17
 486 283 486 283 511 221 c 0,18,0
 565 89 565 89 686.5 89 c 128,-1,1
664 -20 m 0,19,20
 360 -20 360 -20 239 172 c 0,21,22
 172 278 172 278 172 414 c 0,23,24
 172 479 172 479 187 550 c 0,25,26
 235 774 235 774 399 928 c 0,27,28
 604 1120 604 1120 906 1120 c 128,-1,29
 1208 1120 1208 1120 1331 928 c 0,30,31
 1397 825 1397 825 1397 688 c 0,32,33
 1397 623 1397 623 1382 550 c 0,34,35
 1334 323 1334 323 1171 172 c 0,36,37
 964 -20 964 -20 664 -20 c 0,19,20
EndSplineSet
Validated: 19457
EndChar

StartChar: p
Encoding: 112 112 82
Width: 1328
GlyphClass: 2
Flags: W
HStem: -410 21G<83 387.243> 0 21G<560 723> 990 110<680 934.484> 1090 10<264 274.836>
VStem: 83 300<-410 -110> 1069 319<447.593 854.219>
DStem2: 83 -410 383 -410 0.207912 0.978148<62.3735 1393.78>
LayerCount: 2
Fore
SplineSet
83 -410 m 1,0,-1
 363 910 l 2,1,2
 368 934 368 934 368 955 c 0,3,4
 368 1052 368 1052 262 1090 c 1,5,-1
 264 1100 l 1,6,-1
 824 1100 l 2,7,8
 1134 1100 1134 1100 1280 946 c 0,9,10
 1388 833 1388 833 1388 670 c 0,11,12
 1388 613 1388 613 1375 550 c 0,13,14
 1321 298 1321 298 1107 150 c 0,15,16
 888 0 888 0 558 0 c 1,17,-1
 560 10 l 1,18,19
 745 85 745 85 872 210 c 0,20,21
 1013 349 1013 349 1055 550 c 0,22,23
 1069 616 1069 616 1069 674 c 0,24,25
 1069 791 1069 791 1011 876 c 0,26,27
 932 990 932 990 780 990 c 2,28,-1
 680 990 l 1,29,-1
 383 -410 l 1,30,-1
 83 -410 l 1,0,-1
EndSplineSet
Validated: 19457
EndChar

StartChar: q
Encoding: 113 113 83
Width: 1328
GlyphClass: 2
Flags: W
HStem: -410 10<1203.2 1211> 0 10<762.516 770> 990 110<787.82 1068>
VStem: 173 319<239.431 651.517>
DStem2: 771 -410 1070.61 -410 0.207912 0.978148<213.073 1431.16>
LayerCount: 2
Fore
SplineSet
1211 -410 m 1,0,-1
 771 -410 l 1,1,-1
 1068 990 l 1,2,-1
 968 990 l 2,3,4
 815 990 815 990 689 876 c 0,5,6
 549 750 549 750 507 550 c 0,7,8
 492 481 492 481 492 419 c 0,9,10
 492 301 492 301 546 210 c 0,11,12
 619 85 619 85 772 10 c 1,13,-1
 770 0 l 1,14,15
 440 0 440 0 285 150 c 0,16,17
 173 259 173 259 173 425 c 0,18,19
 173 484 173 484 187 550 c 0,20,21
 239 793 239 793 450 946 c 0,22,23
 662 1100 662 1100 972 1100 c 2,24,-1
 1392 1100 l 1,25,-1
 1111 -220 l 2,26,27
 1106 -244 1106 -244 1106 -264 c 0,28,29
 1106 -361 1106 -361 1213 -400 c 1,30,-1
 1211 -410 l 1,0,-1
EndSplineSet
Validated: 19457
EndChar

StartChar: r
Encoding: 114 114 84
Width: 1127
GlyphClass: 2
Flags: W
HStem: 0 21G<170 474.242> 990 110<680 885.007> 1090 10<264 274.836>
VStem: 170 300<0 300> 941 302<643.03 937.031>
DStem2: 170 0 470 0 0.207912 0.978148<62.3735 974.655>
LayerCount: 2
Fore
SplineSet
170 0 m 1,0,-1
 363 910 l 2,1,2
 368 934 368 934 368 955 c 0,3,4
 368 1052 368 1052 262 1090 c 1,5,-1
 264 1100 l 1,6,-1
 824 1100 l 2,7,8
 1049 1100 1049 1100 1159 999 c 0,9,10
 1243 922 1243 922 1243 815 c 0,11,12
 1243 783 1243 783 1236 749 c 0,13,14
 1207 614 1207 614 1104 519 c 0,15,16
 951 378 951 378 678 378 c 1,17,-1
 680 388 l 1,18,19
 783 443 783 443 847 531 c 0,20,21
 908 615 908 615 931 725 c 0,22,23
 941 770 941 770 941 807 c 0,24,25
 941 875 941 875 909 921 c 0,26,27
 861 990 861 990 753 990 c 2,28,-1
 680 990 l 1,29,-1
 470 0 l 1,30,-1
 170 0 l 1,0,-1
EndSplineSet
Validated: 19457
EndChar

StartChar: s
Encoding: 115 115 85
Width: 1026
GlyphClass: 2
Flags: W
HStem: -20 109<376.898 643.525> 1011 109<666.532 844.308>
VStem: 357 276<763 916.922> 755 307<271.38 435>
LayerCount: 2
Fore
SplineSet
502 -20 m 0,0,1
 321 -20 321 -20 226.5 46.5 c 128,-1,2
 132 113 132 113 100 233 c 1,3,-1
 354 435 l 1,4,-1
 361 428 l 1,5,6
 338 377 338 377 327 326 c 0,7,8
 321 297 321 297 321 270 c 0,9,10
 321 206 321 206 356 156 c 0,11,12
 403 89 403 89 500 89 c 0,13,14
 604 89 604 89 682 163 c 0,15,16
 737 216 737 216 751 289 c 0,17,18
 755 310 755 310 755 330 c 0,19,20
 755 419 755 419 657 471 c 2,21,-1
 508 550 l 2,22,23
 357 630 357 630 357 763 c 0,24,25
 357 782 357 782 360 802 c 0,26,27
 385 945 385 945 513 1036 c 0,28,29
 632 1120 632 1120 776 1120 c 0,30,31
 886 1120 886 1120 955 1077 c 0,32,33
 1025 1033 1025 1033 1051 945 c 1,34,-1
 828 770 l 1,35,-1
 821 777 l 1,36,37
 845 825 845 825 854 865 c 0,38,39
 859 887 859 887 859 907 c 0,40,41
 859 932 859 932 851 953 c 0,42,43
 829 1011 829 1011 765 1011 c 0,44,45
 721 1011 721 1011 685 983 c 0,46,47
 642 951 642 951 635 904 c 0,48,49
 633 891 633 891 633 880 c 0,50,51
 633 807 633 807 712 765 c 2,52,-1
 895 667 l 2,53,54
 1062 578 1062 578 1062 435 c 0,55,56
 1062 407 1062 407 1056 378 c 0,57,58
 1020 207 1020 207 846 88 c 0,59,60
 688 -20 688 -20 502 -20 c 0,0,1
EndSplineSet
Validated: 19457
EndChar

StartChar: t
Encoding: 116 116 86
Width: 825
GlyphClass: 2
Flags: W
HStem: 0 10<602.204 610> 990 110<704 1030> 1500 10<351 358.796>
DStem2: 170 0 469.614 0 0.207912 0.978148<213.073 1074.4 1186.99 1393.04>
LayerCount: 2
Fore
SplineSet
170 0 m 1,0,-1
 451 1320 l 2,1,2
 456 1344 456 1344 456 1364 c 0,3,4
 456 1461 456 1461 349 1500 c 1,5,-1
 351 1510 l 1,6,-1
 791 1510 l 1,7,-1
 704 1100 l 1,8,-1
 1054 1100 l 1,9,-1
 1030 990 l 1,10,-1
 680 990 l 1,11,-1
 510 190 l 2,12,13
 505 166 505 166 505 146 c 0,14,15
 505 49 505 49 612 10 c 1,16,-1
 610 0 l 1,17,-1
 170 0 l 1,0,-1
EndSplineSet
Validated: 19457
EndChar

StartChar: u
Encoding: 117 117 87
Width: 1328
GlyphClass: 2
Flags: W
HStem: 0 110<626.133 881> 0 10<1290.2 1298> 1100 0G<690 803 1087.74 1392>
VStem: 174 318<245.456 652.936> 1092 300<800 1100>
DStem2: 857.619 0 1157.61 0 0.207912 0.978148<213.152 1124.69>
LayerCount: 2
Fore
SplineSet
1298 0 m 1,0,-1
 738 0 l 2,1,2
 423 0 423 0 286 148 c 0,3,4
 174 270 174 270 174 434 c 0,5,6
 174 490 174 490 187 550 c 0,7,8
 236 780 236 780 439 943 c 0,9,10
 587 1061 587 1061 793 1120 c 1,11,-1
 803 1120 l 1,12,13
 690 992 690 992 616 852 c 0,14,15
 540 707 540 707 507 550 c 0,16,17
 492 481 492 481 492 421 c 0,18,19
 492 306 492 306 547 228 c 0,20,21
 630 110 630 110 781 110 c 2,22,-1
 881 110 l 1,23,-1
 1092 1100 l 1,24,-1
 1392 1100 l 1,25,-1
 1198 190 l 2,26,27
 1193 166 1193 166 1193 146 c 0,28,29
 1193 49 1193 49 1300 10 c 1,30,-1
 1298 0 l 1,0,-1
EndSplineSet
Validated: 19457
EndChar

StartChar: v
Encoding: 118 118 88
Width: 1438
GlyphClass: 2
Flags: W
HStem: 0 10<964.608 973> 1090 10<239 247.392>
VStem: 1210 330<668.833 974.236>
DStem2: 634 1100 371 949 0.213113 -0.977027<0 1062.8>
LayerCount: 2
Fore
SplineSet
973 0 m 1,0,-1
 578 0 l 1,1,-1
 371 949 l 2,2,3
 350 1045 350 1045 237 1090 c 9,4,-1
 239 1100 l 1,5,-1
 634 1100 l 1,6,-1
 841 151 l 2,7,8
 862 55 862 55 975 10 c 9,9,-1
 973 0 l 1,0,-1
1068 1100 m 1,10,11
 1540 1100 1540 1100 1540 842 c 0,12,13
 1540 806 1540 806 1531 765 c 0,14,15
 1463 462 1463 462 937 105 c 1,16,-1
 933 113 l 1,17,18
 1140 435 1140 435 1195 693 c 0,19,20
 1210 762 1210 762 1210 821 c 0,21,22
 1210 1005 1210 1005 1066 1090 c 1,23,-1
 1068 1100 l 1,10,11
EndSplineSet
Validated: 1
EndChar

StartChar: w
Encoding: 119 119 89
Width: 1979
GlyphClass: 2
Flags: W
HStem: 0 10<964.608 973 1505.61 1514> 1090 10<239 247.392 780 788.392>
VStem: 1751 330<668.833 974.236>
DStem2: 634 1100 371 949 0.213113 -0.977027<0 1062.8> 1175 1100 912 949 0.213113 -0.977027<0 1062.8>
LayerCount: 2
Fore
SplineSet
973 0 m 1,0,-1
 578 0 l 1,1,-1
 371 949 l 2,2,3
 350 1045 350 1045 237 1090 c 9,4,-1
 239 1100 l 1,5,-1
 634 1100 l 1,6,-1
 841 151 l 2,7,8
 862 55 862 55 975 10 c 9,9,-1
 973 0 l 1,0,-1
1514 0 m 1,10,-1
 1119 0 l 1,11,-1
 912 949 l 2,12,13
 891 1045 891 1045 778 1090 c 9,14,-1
 780 1100 l 1,15,-1
 1175 1100 l 1,16,-1
 1382 151 l 2,17,18
 1403 55 1403 55 1516 10 c 9,19,-1
 1514 0 l 1,10,-1
1609 1100 m 1,20,21
 2081 1100 2081 1100 2081 842 c 0,22,23
 2081 806 2081 806 2072 765 c 0,24,25
 2004 462 2004 462 1478 105 c 1,26,-1
 1474 113 l 1,27,28
 1681 435 1681 435 1736 693 c 0,29,30
 1751 762 1751 762 1751 821 c 0,31,32
 1751 1005 1751 1005 1607 1090 c 1,33,-1
 1609 1100 l 1,20,21
EndSplineSet
Validated: 1
EndChar

StartChar: x
Encoding: 120 120 90
Width: 1298
GlyphClass: 2
Flags: W
HStem: 0 21G<17 236.275 851.214 1186> 1080 20G<237 651.891 998 1194.5>
VStem: 17 189<0 189> 1086 303<796.375 1017.84>
DStem2: 17 0 206 0 0.834056 0.55168<157.637 750.894> 642 1100 395 951 0.443298 -0.896374<0 613.505 719.052 1083.09>
LayerCount: 2
Fore
SplineSet
1000 1100 m 1,0,1
 1389 1100 1389 1100 1389 918 c 0,2,3
 1389 896 1389 896 1383 872 c 0,4,5
 1350 728 1350 728 963 526 c 1,6,-1
 959 534 l 1,7,8
 1047 675 1047 675 1074 796 c 0,9,10
 1086 849 1086 849 1086 895 c 0,11,12
 1086 1019 1086 1019 998 1090 c 1,13,-1
 1000 1100 l 1,0,1
17 0 m 1,14,-1
 655 422 l 1,15,-1
 395 951 l 2,16,17
 351 1041 351 1041 237 1090 c 1,18,-1
 239 1100 l 1,19,-1
 642 1100 l 1,20,-1
 1186 0 l 1,21,-1
 861 0 l 1,22,-1
 701 327 l 1,23,-1
 206 0 l 1,24,-1
 17 0 l 1,14,-1
EndSplineSet
Validated: 19457
EndChar

StartChar: y
Encoding: 121 121 91
Width: 1328
GlyphClass: 2
Flags: W
HStem: -410 21G<343 705.5> 0 110<626.133 833> 1100 0G<690 803 1087.74 1392>
VStem: 174 318<245.456 652.936> 1092 300<800 1100>
DStem2: 770.466 -410 1070.47 -410 0.207912 0.978148<532.057 1543.85>
LayerCount: 2
Fore
SplineSet
738 0 m 2,0,1
 423 0 423 0 286 148 c 0,2,3
 174 270 174 270 174 434 c 0,4,5
 174 490 174 490 187 550 c 0,6,7
 236 780 236 780 439 943 c 0,8,9
 587 1061 587 1061 793 1120 c 1,10,-1
 803 1120 l 1,11,12
 690 992 690 992 616 852 c 0,13,14
 540 707 540 707 507 550 c 0,15,16
 492 481 492 481 492 421 c 0,17,18
 492 306 492 306 547 228 c 0,19,20
 630 110 630 110 781 110 c 2,21,-1
 877 110 l 1,22,23
 889 149 889 149 898 190 c 2,24,-1
 1092 1100 l 1,25,-1
 1392 1100 l 1,26,-1
 1198 190 l 2,27,28
 1070 -410 1070 -410 341 -410 c 1,29,-1
 343 -400 l 1,30,31
 696 -274 696 -274 833 0 c 1,32,-1
 738 0 l 2,0,1
EndSplineSet
Validated: 19457
EndChar

StartChar: z
Encoding: 122 122 92
Width: 1190
GlyphClass: 2
Flags: W
HStem: 0 130<78 1047.44> 990 110<398.41 848.96>
VStem: 311 10<850 858.613> 885 359<692.627 951.696> 1113 10<242.617 250>
LayerCount: 2
Fore
SplineSet
50 0 m 1,0,-1
 78 130 l 1,1,-1
 908 130 l 2,2,3
 1041 130 1041 130 1113 250 c 1,4,-1
 1123 250 l 1,5,-1
 1070 0 l 1,6,-1
 50 0 l 1,0,-1
364 1100 m 1,7,-1
 763 1100 l 2,8,9
 1244 1100 1244 1100 1244 847 c 0,10,11
 1244 815 1244 815 1236 779 c 0,12,13
 1158 412 1158 412 198 173 c 1,14,-1
 195 182 l 1,15,16
 810 477 810 477 878 790 c 0,17,18
 885 822 885 822 885 850 c 0,19,20
 885 990 885 990 699 990 c 2,21,-1
 530 990 l 2,22,23
 397 990 397 990 321 850 c 1,24,-1
 311 850 l 1,25,-1
 364 1100 l 1,7,-1
EndSplineSet
Validated: 19457
EndChar

StartChar: braceleft
Encoding: 123 123 93
Width: 878
GlyphClass: 2
Flags: W
HStem: -250 120<642.231 805> 695 120<193 354> 1640 120<1006.91 1207>
VStem: 240 315<-42.7356 279.733>
DStem2: 153.098 -250 468.098 -250 0.207912 0.978148<432.395 966.119 1088.69 1800.79>
CounterMasks: 1 e0
LayerCount: 2
Fore
SplineSet
805 -250 m 1,0,1
 240 -250 240 -250 240 103 c 0,2,3
 240 157 240 157 253 220 c 2,4,-1
 354 695 l 1,5,-1
 168 695 l 1,6,-1
 193 815 l 1,7,-1
 379 815 l 1,8,-1
 480 1290 l 2,9,10
 580 1760 580 1760 1232 1760 c 1,11,-1
 1207 1640 l 1,12,13
 870 1640 870 1640 795 1290 c 2,14,-1
 568 220 l 2,15,16
 555 157 555 157 555 105 c 0,17,18
 555 -130 555 -130 830 -130 c 1,19,-1
 805 -250 l 1,0,1
EndSplineSet
Validated: 19457
EndChar

StartChar: bar
Encoding: 124 124 94
Width: 710
GlyphClass: 2
Flags: W
VStem: 182 270<-180 90> 579 270<1420 1690>
DStem2: 182 -180 452 -180 0.207912 0.978148<56.1362 1911.68>
LayerCount: 2
Fore
SplineSet
182 -180 m 1,0,-1
 579 1690 l 1,1,-1
 849 1690 l 1,2,-1
 452 -180 l 1,3,-1
 182 -180 l 1,0,-1
EndSplineSet
Validated: 19457
EndChar

StartChar: braceright
Encoding: 125 125 95
Width: 878
GlyphClass: 2
Flags: W
HStem: -250 120<-8 192.094> 695 120<845 1006> 1640 120<394 556.769>
VStem: 644 315<1140.55 1552.91>
DStem2: 304.098 -250 619.098 -250 0.207912 0.978148<319.52 1031.61 1154.19 1687.91>
CounterMasks: 1 e0
LayerCount: 2
Fore
SplineSet
-33 -250 m 1,0,1
 -8 -130 l 1,2,3
 329 -130 329 -130 404 220 c 2,4,-1
 631 1290 l 2,5,6
 644 1353 644 1353 644 1405 c 0,7,8
 644 1640 644 1640 369 1640 c 1,9,-1
 394 1760 l 1,10,11
 959 1760 959 1760 959 1407 c 0,12,13
 959 1353 959 1353 946 1290 c 2,14,-1
 845 815 l 1,15,-1
 1031 815 l 1,16,-1
 1006 695 l 1,17,-1
 820 695 l 1,18,-1
 719 220 l 2,19,20
 619 -250 619 -250 -33 -250 c 1,0,1
EndSplineSet
Validated: 19457
EndChar

StartChar: asciitilde
Encoding: 126 126 96
Width: 1223
GlyphClass: 2
Flags: W
HStem: 563 211<874.496 1087.17> 726 211<454.172 669.336>
DStem2: 727 902 625 707 0.869367 -0.494167<-64.9476 292.548>
LayerCount: 2
Fore
SplineSet
1166 938 m 1,0,-1
 1302 938 l 1,1,2
 1168 563 1168 563 958 563 c 0,3,4
 879 563 879 563 814 600 c 2,5,-1
 625 707 l 2,6,7
 591 726 591 726 551 726 c 0,8,9
 452 726 452 726 376 563 c 1,10,-1
 240 563 l 1,11,12
 373 937 373 937 596 937 c 0,13,14
 665 937 665 937 727 902 c 2,15,-1
 917 794 l 2,16,17
 952 774 952 774 992 774 c 0,18,19
 1089 774 1089 774 1166 938 c 1,0,-1
EndSplineSet
Validated: 19457
EndChar

StartChar: exclamdown
Encoding: 161 161 98
Width: 704
VWidth: 1638
GlyphClass: 2
Flags: W
HStem: 750 370<461.766 640.305>
VStem: 114 368<-339.578 -138.172>
LayerCount: 2
Fore
SplineSet
590 1120 m 0,0,1
 668 1120 668 1120 708 1066 c 0,2,3
 737 1027 737 1027 737 976 c 0,4,5
 737 956 737 956 733 935 c 0,6,7
 717 858 717 858 652.5 804 c 128,-1,8
 588 750 588 750 512 750 c 128,-1,9
 436 750 436 750 394 804 c 0,10,11
 365 842 365 842 365 894 c 0,12,13
 365 914 365 914 369 935 c 0,14,15
 385 1012 385 1012 449.5 1066 c 128,-1,16
 514 1120 514 1120 590 1120 c 0,0,1
261 -430 m 0,17,18
 186 -430 186 -430 144 -376 c 0,19,20
 114 -337 114 -337 114 -286 c 0,21,22
 114 -266 114 -266 118 -245 c 0,23,24
 122 -228 122 -228 130 -207 c 2,25,-1
 487 674 l 1,26,-1
 503 674 l 1,27,-1
 486 -207 l 2,28,29
 486 -228 486 -228 482 -245 c 0,30,31
 466 -322 466 -322 401.5 -376 c 128,-1,32
 337 -430 337 -430 261 -430 c 0,17,18
EndSplineSet
Validated: 19457
EndChar

StartChar: cent
Encoding: 162 162 99
Width: 1248
GlyphClass: 2
Flags: W
HStem: -18 118<762 927.957>
VStem: 172 316<212.275 645.538>
DStem2: 610 -100 720 -100 0.207912 0.978148<22.8703 82.7645 227.232 1129.71 1266.92 1328.98>
LayerCount: 2
Fore
SplineSet
627 -19 m 1,0,1
 351 -4 351 -4 239 172 c 0,2,3
 172 277 172 277 172 413 c 0,4,5
 172 478 172 478 187 550 c 0,6,7
 235 776 235 776 399 928 c 0,8,9
 593 1107 593 1107 869 1119 c 1,10,-1
 886 1200 l 1,11,-1
 996 1200 l 1,12,-1
 978 1117 l 1,13,14
 1223 1095 1223 1095 1339 910 c 1,15,-1
 1083 708 l 1,16,-1
 1076 715 l 1,17,18
 1085 737 1085 737 1092 771 c 0,19,20
 1098 798 1098 798 1098 823 c 0,21,22
 1098 877 1098 877 1071 924 c 0,23,24
 1033 991 1033 991 955 1007 c 1,25,-1
 762 100 l 1,26,27
 1002 100 1002 100 1221 240 c 1,28,-1
 1228 234 l 1,29,30
 1014 4 1014 4 737 -18 c 1,31,-1
 720 -100 l 1,32,-1
 610 -100 l 1,33,-1
 627 -19 l 1,0,1
655 114 m 1,34,-1
 845 1005 l 1,35,36
 773 991 773 991 713 942 c 0,37,38
 564 819 564 819 507 550 c 0,39,40
 488 459 488 459 488 385 c 0,41,42
 488 288 488 288 521 222 c 0,43,44
 563 141 563 141 655 114 c 1,34,-1
EndSplineSet
Validated: 19457
EndChar

StartChar: sterling
Encoding: 163 163 100
Width: 1323
GlyphClass: 2
Flags: W
HStem: 0 120<96 196 516 1220.59> 669 120<658 1104> 1118 21G<1263 1296.35> 1421 109<938.535 1222.04>
VStem: 1298 10<251.387 260>
DStem2: 170.493 0 490.493 0 0.207912 0.978148<189.213 750.333 873.117 1232.81>
LayerCount: 2
Fore
SplineSet
70 0 m 1,0,-1
 96 120 l 1,1,-1
 196 120 l 1,2,-1
 373 956 l 2,3,4
 421 1183 421 1183 586 1337 c 0,5,6
 792 1530 792 1530 1096 1530 c 0,7,8
 1395 1530 1395 1530 1527 1320 c 1,9,-1
 1271 1118 l 1,10,-1
 1263 1125 l 1,11,12
 1272 1147 1272 1147 1279 1181 c 0,13,14
 1285 1208 1285 1208 1285 1233 c 0,15,16
 1285 1287 1285 1287 1259 1334 c 0,17,18
 1210 1421 1210 1421 1083 1421 c 0,19,20
 962 1421 962 1421 851 1308 c 0,21,22
 745 1199 745 1199 694 958 c 2,23,-1
 658 789 l 1,24,-1
 1130 789 l 1,25,-1
 1104 669 l 1,26,-1
 632 669 l 1,27,-1
 516 120 l 1,28,-1
 1089 120 l 2,29,30
 1222 120 1222 120 1298 260 c 1,31,-1
 1308 260 l 1,32,-1
 1253 0 l 1,33,-1
 70 0 l 1,0,-1
EndSplineSet
Validated: 19457
EndChar

StartChar: currency
Encoding: 164 164 101
Width: 1660
GlyphClass: 2
Flags: W
HStem: 190 109<784.507 1039.63> 1221 109<959.595 1215.26>
VStem: 387 314<411.379 850.588> 1299 313<670.635 1106.17>
DStem2: 225 258 363 81 0.768584 0.639749<0 278.605 1552.29 1801.35> 648 1415 433 1237 0.613041 -0.790051<8.8252 215.554 1254.29 1463.2>
LayerCount: 2
Fore
SplineSet
901.5 299 m 128,-1,1
 1023 299 1023 299 1128 425 c 0,2,3
 1233 550 1233 550 1278 760 c 0,4,5
 1299 859 1299 859 1299 938 c 0,6,7
 1299 1026 1299 1026 1273 1089 c 0,8,9
 1219 1221 1219 1221 1098 1221 c 128,-1,10
 977 1221 977 1221 871 1095 c 0,11,12
 766 968 766 968 722 760 c 0,13,14
 701 660 701 660 701 580 c 0,15,16
 701 493 701 493 726 431 c 0,17,0
 780 299 780 299 901.5 299 c 128,-1,1
1121 1330 m 0,18,19
 1307 1330 1307 1330 1425 1257 c 1,20,-1
 1615 1415 l 1,21,-1
 1753 1238 l 1,22,-1
 1573 1088 l 1,23,24
 1612 1002 1612 1002 1612 897 c 0,25,26
 1612 832 1612 832 1597 760 c 0,27,28
 1554 559 1554 559 1422 418 c 1,29,-1
 1545 259 l 1,30,-1
 1330 81 l 1,31,-1
 1195 255 l 1,32,33
 1052 190 1052 190 878 190 c 0,34,35
 695 190 695 190 578 260 c 1,36,-1
 363 81 l 1,37,-1
 225 258 l 1,38,-1
 429 427 l 1,39,40
 387 516 387 516 387 624 c 0,41,42
 387 689 387 689 402 760 c 0,43,44
 441 942 441 942 556 1078 c 1,45,-1
 433 1237 l 1,46,-1
 648 1415 l 1,47,-1
 774 1252 l 1,48,49
 928 1330 928 1330 1121 1330 c 0,18,19
EndSplineSet
Validated: 19457
EndChar

StartChar: yen
Encoding: 165 165 102
Width: 1567
GlyphClass: 2
Flags: W
HStem: 0 21G<660 984.292> 219 120<457 707 1052 1303> 435 120<503 750 1072 1348> 1500 10<326 335.606>
VStem: 1419 336<1064.4 1388.28>
DStem2: 760 1510 482 1361 0.310549 -0.950557<0 904.677>
LayerCount: 2
Fore
SplineSet
660 0 m 1,0,-1
 707 219 l 1,1,-1
 432 219 l 1,2,-1
 457 339 l 1,3,-1
 732 339 l 1,4,-1
 752 435 l 1,5,-1
 477 435 l 1,6,-1
 503 555 l 1,7,-1
 750 555 l 1,8,-1
 482 1361 l 2,9,10
 450 1457 450 1457 324 1500 c 1,11,-1
 326 1510 l 1,12,-1
 760 1510 l 1,13,-1
 1072 555 l 1,14,-1
 1374 555 l 1,15,-1
 1348 435 l 1,16,-1
 1072 435 l 1,17,-1
 1052 339 l 1,18,-1
 1328 339 l 1,19,-1
 1303 219 l 1,20,-1
 1027 219 l 1,21,-1
 980 0 l 1,22,-1
 660 0 l 1,0,-1
1319 1510 m 1,23,24
 1755 1510 1755 1510 1755 1250 c 0,25,26
 1755 1213 1755 1213 1746 1170 c 0,27,28
 1672 820 1672 820 1169 576 c 1,29,-1
 1165 584 l 1,30,31
 1340 816 1340 816 1401 1101 c 0,32,33
 1419 1184 1419 1184 1419 1253 c 0,34,35
 1419 1418 1419 1418 1317 1500 c 1,36,-1
 1319 1510 l 1,23,24
EndSplineSet
Validated: 19457
EndChar

StartChar: brokenbar
Encoding: 166 166 103
Width: 710
GlyphClass: 2
Flags: W
VStem: 182 270<-180 90> 358 270<377 647> 403 270<862 1132> 579 270<1420 1690>
DStem2: 182 -180 452 -180 0.207912 0.978148<56.1362 845.521 1121.31 1911.68>
LayerCount: 2
Fore
SplineSet
182 -180 m 1,0,-1
 358 647 l 1,1,-1
 628 647 l 1,2,-1
 452 -180 l 1,3,-1
 182 -180 l 1,0,-1
579 1690 m 1,4,-1
 849 1690 l 1,5,-1
 673 862 l 1,6,-1
 403 862 l 1,7,-1
 579 1690 l 1,4,-1
EndSplineSet
Validated: 19457
EndChar

StartChar: section
Encoding: 167 167 104
Width: 1164
GlyphClass: 2
Flags: W
HStem: -18 109<486.246 675.076> 1419 109<809.924 998.754>
VStem: 268 286<648.501 830.243> 518 258<1135 1342.14> 709 258<167.861 375> 931 286<679.757 861.499>
DStem2: 657 607 436 434 0.880471 -0.4741<-135.032 217.522> 867 1174 828 903 0.880471 -0.4741<-123.379 229.175>
LayerCount: 2
Fore
SplineSet
554 -18 m 0,0,1
 444 -18 444 -18 375 25 c 0,2,3
 305 69 305 69 279 157 c 1,4,-1
 503 332 l 1,5,-1
 509 325 l 1,6,7
 485 277 485 277 476 237 c 0,8,9
 471 216 471 216 471 197 c 0,10,11
 471 171 471 171 480 149 c 0,12,13
 502 91 502 91 573 91 c 0,14,15
 621 91 621 91 656 118 c 0,16,17
 698 150 698 150 707 198 c 0,18,19
 709 208 709 208 709 217 c 0,20,21
 709 287 709 287 618 336 c 2,22,-1
 436 434 l 2,23,24
 268 524 268 524 268 667 c 0,25,26
 268 695 268 695 274 724 c 0,27,28
 310 895 310 895 485 1014 c 1,29,-1
 623 909 l 1,30,31
 587 860 587 860 566 804 c 0,32,33
 554 773 554 773 554 745 c 0,34,35
 554 661 554 661 657 607 c 2,36,-1
 806 528 l 2,37,38
 967 443 967 443 967 307 c 0,39,40
 967 295 967 295 966 282 c 0,41,42
 953 161 953 161 817 66 c 0,43,44
 698 -18 698 -18 554 -18 c 0,0,1
931 1528 m 0,45,46
 1041 1528 1041 1528 1110 1485 c 0,47,48
 1180 1441 1180 1441 1206 1353 c 1,49,-1
 982 1178 l 1,50,-1
 976 1185 l 1,51,52
 1000 1233 1000 1233 1009 1273 c 0,53,54
 1014 1294 1014 1294 1014 1313 c 0,55,56
 1014 1339 1014 1339 1005 1361 c 0,57,58
 983 1419 983 1419 912 1419 c 0,59,60
 864 1419 864 1419 829 1392 c 0,61,62
 787 1360 787 1360 778 1312 c 0,63,64
 776 1302 776 1302 776 1293 c 0,65,66
 776 1223 776 1223 867 1174 c 2,67,-1
 1049 1076 l 2,68,69
 1217 986 1217 986 1217 843 c 0,70,71
 1217 815 1217 815 1211 786 c 0,72,73
 1175 615 1175 615 1000 496 c 1,74,-1
 862 601 l 1,75,76
 898 650 898 650 919 706 c 0,77,78
 931 737 931 737 931 765 c 0,79,80
 931 849 931 849 828 903 c 2,81,-1
 679 982 l 2,82,83
 518 1067 518 1067 518 1203 c 0,84,85
 518 1215 518 1215 519 1228 c 0,86,87
 532 1349 532 1349 668 1444 c 0,88,89
 787 1528 787 1528 931 1528 c 0,45,46
EndSplineSet
Validated: 19457
EndChar

StartChar: dieresis
Encoding: 168 168 105
Width: 641
GlyphClass: 2
Flags: W
HStem: 1205 264<355.398 512.602 696.398 853.602>
VStem: 301 266<1258.52 1415.48> 642 266<1258.52 1415.48>
LayerCount: 2
Fore
SplineSet
803 1469 m 0,0,1
 857 1468 857 1468 887 1430 c 0,2,3
 908 1402 908 1402 908 1367 c 0,4,5
 908 1353 908 1353 905 1337 c 0,6,7
 893 1282 893 1282 847 1243.5 c 128,-1,8
 801 1205 801 1205 747 1205 c 0,9,10
 693 1206 693 1206 663 1244 c 0,11,12
 642 1272 642 1272 642 1307 c 0,13,14
 642 1321 642 1321 645 1337 c 0,15,16
 657 1392 657 1392 703 1430.5 c 128,-1,17
 749 1469 749 1469 803 1469 c 0,0,1
462 1469 m 0,18,19
 516 1468 516 1468 546 1430 c 0,20,21
 567 1402 567 1402 567 1367 c 0,22,23
 567 1353 567 1353 564 1337 c 0,24,25
 552 1282 552 1282 506 1243.5 c 128,-1,26
 460 1205 460 1205 406 1205 c 0,27,28
 352 1206 352 1206 322 1244 c 0,29,30
 301 1272 301 1272 301 1307 c 0,31,32
 301 1321 301 1321 304 1337 c 0,33,34
 316 1392 316 1392 362 1430.5 c 128,-1,35
 408 1469 408 1469 462 1469 c 0,18,19
EndSplineSet
Validated: 19457
EndChar

StartChar: copyright
Encoding: 169 169 106
Width: 1341
GlyphClass: 2
Flags: W
HStem: 386 55<598.513 925.742> 563 75<748.055 1011.83> 1276 70<846.812 1048.87> 1475 55<820.625 1143.02>
VStem: 308 60<669.427 1004.36> 450 214<714.292 1060.96> 1378 61<899.825 1239.02>
LayerCount: 2
Fore
SplineSet
996 1530 m 0,0,1
 1238 1530 1238 1530 1357 1357 c 0,2,3
 1439 1238 1439 1238 1439 1087 c 0,4,5
 1439 1023 1439 1023 1424 953 c 0,6,7
 1370 701 1370 701 1177 549 c 0,8,9
 971 386 971 386 751 386 c 0,10,11
 528 386 528 386 398 549 c 0,12,13
 308 662 308 662 308 818 c 0,14,15
 308 882 308 882 323 953 c 0,16,17
 375 1197 375 1197 568 1362 c 0,18,19
 764 1530 764 1530 996 1530 c 0,0,1
983 1475 m 0,20,21
 787 1475 787 1475 610 1330 c 0,22,23
 438 1188 438 1188 383 953 c 0,24,25
 368 887 368 887 368 826 c 0,26,27
 368 693 368 693 442 587 c 0,28,29
 545 441 545 441 765 441 c 0,30,31
 976 441 976 441 1149 594 c 0,32,33
 1312 739 1312 739 1363 953 c 0,34,35
 1378 1018 1378 1018 1378 1079 c 0,36,37
 1378 1215 1378 1215 1301 1327 c 0,38,39
 1198 1475 1198 1475 983 1475 c 0,20,21
977 1346 m 128,-1,41
 1194 1346 1194 1346 1281 1209 c 1,42,-1
 1096 1062 l 1,43,-1
 1089 1070 l 1,44,45
 1095 1097 1095 1097 1095 1122 c 0,46,47
 1095 1169 1095 1169 1075 1208 c 0,48,49
 1040 1276 1040 1276 957 1276 c 0,50,51
 866 1276 866 1276 793 1198 c 0,52,53
 705 1106 705 1106 673 953 c 0,54,55
 664 909 664 909 664 869 c 0,56,57
 664 793 664 793 697 731 c 0,58,59
 748 638 748 638 894 638 c 0,60,61
 1060 638 1060 638 1208 751 c 1,62,-1
 1214 744 l 1,63,64
 1054 563 1054 563 806 563 c 0,65,66
 589 563 589 563 500 689 c 0,67,68
 450 760 450 760 450 858 c 0,69,70
 450 904 450 904 461 957 c 0,71,72
 496 1122 496 1122 614 1222 c 0,73,40
 760 1346 760 1346 977 1346 c 128,-1,41
EndSplineSet
Validated: 19457
EndChar

StartChar: ordfeminine
Encoding: 170 170 107
Width: 694
GlyphClass: 2
Flags: W
HStem: 775 141<215 839> 1477 65<607.45 728>
VStem: 281 200<1072.61 1357.16>
DStem2: 579.213 775 768.958 775 0.207912 0.978148<330.657 717.594>
LayerCount: 2
Fore
SplineSet
932 1542 m 1,0,-1
 834 1081 l 2,1,2
 832 1069 832 1069 832 1059 c 0,3,4
 832 1011 832 1011 885 991 c 1,5,-1
 883 981 l 1,6,-1
 623 981 l 1,7,-1
 728 1477 l 1,8,-1
 698 1477 l 2,9,10
 639 1477 639 1477 580 1424 c 0,11,12
 511 1362 511 1362 489 1262 c 0,13,14
 481 1223 481 1223 481 1189 c 0,15,16
 481 1139 481 1139 498 1099 c 0,17,18
 527 1032 527 1032 601 991 c 1,19,-1
 599 981 l 1,20,21
 417 983 417 983 337 1060 c 0,22,23
 281 1115 281 1115 281 1198 c 0,24,25
 281 1227 281 1227 288 1260 c 0,26,27
 314 1384 314 1384 425 1464 c 0,28,29
 534 1542 534 1542 702 1542 c 2,30,-1
 932 1542 l 1,0,-1
215 916 m 1,31,-1
 869 916 l 1,32,-1
 839 775 l 1,33,-1
 185 775 l 1,34,-1
 215 916 l 1,31,-1
EndSplineSet
Validated: 19457
EndChar

StartChar: guillemotleft
Encoding: 171 171 108
Width: 1327
GlyphClass: 2
Flags: W
DStem2: 533 815 280 755 0.562532 -0.826776<0 500.655> 280 755 533 815 0.742377 0.669982<228.02 750.484> 959 815 706 755 0.562532 -0.826776<0 500.655> 706 755 959 815 0.742377 0.669982<228.02 750.484>
LayerCount: 2
Fore
SplineSet
1270 1264 m 1,0,-1
 1346 1166 l 1,1,-1
 959 815 l 1,2,-1
 1242 402 l 1,3,-1
 1053 245 l 1,4,-1
 706 755 l 1,5,-1
 1270 1264 l 1,0,-1
844 1264 m 1,6,-1
 920 1166 l 1,7,-1
 533 815 l 1,8,-1
 816 402 l 1,9,-1
 627 245 l 1,10,-1
 280 755 l 1,11,-1
 844 1264 l 1,6,-1
EndSplineSet
Validated: 19457
EndChar

StartChar: logicalnot
Encoding: 172 172 109
Width: 1192
GlyphClass: 2
Flags: W
HStem: 650 210<303 1071>
VStem: 1018 139<400 539>
DStem2: 1018 400 1157 400 0.207912 0.978148<28.8997 255.556>
LayerCount: 2
Fore
SplineSet
303 860 m 1,0,-1
 1255 860 l 1,1,-1
 1157 400 l 1,2,-1
 1018 400 l 1,3,-1
 1071 650 l 1,4,-1
 258 650 l 1,5,-1
 303 860 l 1,0,-1
EndSplineSet
Validated: 19457
EndChar

StartChar: uni00AD
Encoding: 173 173 110
Width: 1192
GlyphClass: 2
Flags: W
HStem: 650 210<303 1210>
LayerCount: 2
Fore
SplineSet
303 860 m 1,0,-1
 1255 860 l 1,1,-1
 1210 650 l 1,2,-1
 258 650 l 1,3,-1
 303 860 l 1,0,-1
EndSplineSet
Validated: 19457
EndChar

StartChar: registered
Encoding: 174 174 111
Width: 1341
GlyphClass: 2
Flags: W
HStem: 386 55<598.513 926.814> 1270 71<847 965.188> 1475 55<820.999 1143.02>
VStem: 308 60<669.427 1003.94> 499 200<576 776> 1010 211<950.868 1207.78> 1378 61<899.54 1239.02>
DStem2: 458.614 386 658.614 386 0.207912 0.978148<235.827 895.865>
LayerCount: 2
Fore
SplineSet
996 1530 m 0,0,1
 1238 1530 1238 1530 1357 1357 c 0,2,3
 1439 1238 1439 1238 1439 1087 c 0,4,5
 1439 1023 1439 1023 1424 953 c 0,6,7
 1370 701 1370 701 1177 549 c 0,8,9
 971 386 971 386 751 386 c 0,10,11
 528 386 528 386 398 549 c 0,12,13
 308 662 308 662 308 818 c 0,14,15
 308 882 308 882 323 953 c 0,16,17
 375 1197 375 1197 568 1362 c 0,18,19
 764 1530 764 1530 996 1530 c 0,0,1
1176 620 m 1,20,21
 1319 761 1319 761 1363 953 c 0,22,23
 1378 1018 1378 1018 1378 1079 c 0,24,25
 1378 1215 1378 1215 1301 1327 c 0,26,27
 1198 1475 1198 1475 983 1475 c 0,28,29
 795 1475 795 1475 624 1341 c 1,30,-1
 930 1341 l 2,31,32
 1096 1341 1096 1341 1168 1259 c 0,33,34
 1221 1199 1221 1199 1221 1118 c 0,35,36
 1221 1085 1221 1085 1214 1051 c 0,37,38
 1178 890 1178 890 1036 811 c 1,39,-1
 1176 620 l 1,20,21
1128 576 m 1,40,-1
 961 576 l 1,41,-1
 831 752 l 1,42,43
 801 750 801 750 774 750 c 2,44,-1
 754 750 l 1,45,-1
 757 761 l 1,46,47
 848 802 848 802 914.5 876 c 128,-1,48
 981 950 981 950 1002 1049 c 0,49,50
 1010 1085 1010 1085 1010 1116 c 0,51,52
 1010 1170 1010 1170 986 1209 c 0,53,54
 949 1270 949 1270 875 1270 c 2,55,-1
 847 1270 l 1,56,-1
 699 576 l 1,57,-1
 499 576 l 1,58,-1
 641 1242 l 2,59,60
 643 1253 643 1253 643 1263 c 0,61,62
 643 1304 643 1304 604 1325 c 1,63,64
 437 1184 437 1184 383 953 c 0,65,66
 368 887 368 887 368 826 c 0,67,68
 368 693 368 693 442 587 c 0,69,70
 545 441 545 441 765 441 c 0,71,72
 963 441 963 441 1128 576 c 1,40,-1
EndSplineSet
Validated: 19457
EndChar

StartChar: macron
Encoding: 175 175 112
Width: 658
GlyphClass: 2
Flags: W
HStem: 1270 141<320 908>
VStem: 290 648
LayerCount: 2
Fore
SplineSet
320 1411 m 1,0,-1
 938 1411 l 1,1,-1
 908 1270 l 1,2,-1
 290 1270 l 1,3,-1
 320 1411 l 1,0,-1
EndSplineSet
Validated: 19457
EndChar

StartChar: degree
Encoding: 176 176 113
Width: 671
GlyphClass: 2
Flags: W
HStem: 978 60<505.657 622.623> 1490 60<587.332 702.867>
VStem: 282 206<1068.32 1363.75> 721 205<1162.6 1460.36>
LayerCount: 2
Fore
SplineSet
652 1490 m 128,-1,1
 604 1490 604 1490 564 1433 c 0,2,3
 529 1384 529 1384 505 1276 c 0,4,5
 488 1195 488 1195 488 1143 c 0,6,7
 488 1114 488 1114 493 1095 c 0,8,9
 508 1038 508 1038 557 1038 c 0,10,11
 607 1038 607 1038 645 1095 c 0,12,13
 679 1146 679 1146 704 1264 c 0,14,15
 721 1342 721 1342 721 1390 c 0,16,17
 721 1416 721 1416 716 1433 c 0,18,0
 700 1490 700 1490 652 1490 c 128,-1,1
666 1550 m 0,19,20
 812 1550 812 1550 879 1464 c 0,21,22
 926 1403 926 1403 926 1325 c 0,23,24
 926 1296 926 1296 920 1265 c 0,25,26
 895 1146 895 1146 799 1068 c 0,27,28
 691 978 691 978 542 978 c 0,29,30
 398 978 398 978 330 1064 c 0,31,32
 282 1126 282 1126 282 1203 c 0,33,34
 282 1232 282 1232 289 1264 c 0,35,36
 314 1383 314 1383 410 1460 c 0,37,38
 522 1550 522 1550 666 1550 c 0,19,20
EndSplineSet
Validated: 19457
EndChar

StartChar: plusminus
Encoding: 177 177 114
Width: 1192
GlyphClass: 2
Flags: W
HStem: 160 210<199 1106> 815 210<338 664 919 1245>
VStem: 585 210<444 654> 788 210<1186 1396>
DStem2: 524.634 160 734.634 160 0.207912 0.978148<334.006 669.663 928.091 1263.75>
LayerCount: 2
Fore
SplineSet
199 370 m 1,0,-1
 1151 370 l 1,1,-1
 1106 160 l 1,2,-1
 154 160 l 1,3,-1
 199 370 l 1,0,-1
788 1396 m 1,4,-1
 998 1396 l 1,5,-1
 919 1025 l 1,6,-1
 1290 1025 l 1,7,-1
 1245 815 l 1,8,-1
 874 815 l 1,9,-1
 795 444 l 1,10,-1
 585 444 l 1,11,-1
 664 815 l 1,12,-1
 293 815 l 1,13,-1
 338 1025 l 1,14,-1
 709 1025 l 1,15,-1
 788 1396 l 1,4,-1
EndSplineSet
Validated: 19457
EndChar

StartChar: acute
Encoding: 180 180 115
Width: 427
GlyphClass: 2
Flags: W
HStem: 1150 404
VStem: 264 434
LayerCount: 2
Fore
SplineSet
549 1554 m 1,0,-1
 698 1367 l 1,1,2
 484 1332 484 1332 274 1150 c 1,3,-1
 264 1150 l 1,4,5
 337 1412 337 1412 549 1554 c 1,0,-1
EndSplineSet
Validated: 19457
EndChar

StartChar: uni00B5
Encoding: 181 181 116
Width: 1378
GlyphClass: 2
Flags: W
HStem: -410 21G<307 515> 0 110<672.22 931> 0 10<1340.2 1348> 1100 0G<740 853 1137.74 1442>
VStem: 101 296<-285.859 70.8516> 1142 300<800 1100>
DStem2: 33.1415 -410 333.142 -410 0.207912 0.978148<314.139 555.018 920.475 1215.01> 820.471 -410 1120.47 -410 0.207912 0.978148<632.311 1543.85>
LayerCount: 2
Fore
SplineSet
1348 0 m 1,0,-1
 788 0 l 2,1,2
 568 0 568 0 435 72 c 1,3,-1
 412 -39 l 2,4,5
 397 -110 397 -110 397 -168 c 0,6,7
 397 -332 397 -332 515 -400 c 1,8,-1
 513 -410 l 1,9,10
 101 -410 101 -410 101 -136 c 0,11,12
 101 -91 101 -91 112 -39 c 2,13,-1
 237 550 l 2,14,15
 286 780 286 780 489 943 c 0,16,17
 637 1061 637 1061 843 1120 c 1,18,-1
 853 1120 l 1,19,20
 740 992 740 992 666 852 c 0,21,22
 590 707 590 707 557 550 c 0,23,24
 542 481 542 481 542 421 c 0,25,26
 542 306 542 306 597 228 c 0,27,28
 680 110 680 110 831 110 c 2,29,-1
 931 110 l 1,30,-1
 1142 1100 l 1,31,-1
 1442 1100 l 1,32,-1
 1248 190 l 2,33,34
 1243 166 1243 166 1243 146 c 0,35,36
 1243 49 1243 49 1350 10 c 1,37,-1
 1348 0 l 1,0,-1
EndSplineSet
Validated: 19457
EndChar

StartChar: paragraph
Encoding: 182 182 117
Width: 1172
GlyphClass: 2
Flags: W
HStem: 0 21G<682 799.25 891 1006.25> 1426 84<1098 1194>
VStem: 682 113<0 113> 891 111<0 111>
DStem2: 682 0 795 0 0.207912 0.978148<23.494 711.562> 891 0 1002 0 0.207912 0.978148<23.0782 1457.84>
LayerCount: 2
Fore
SplineSet
1002 0 m 1,0,-1
 891 0 l 1,1,-1
 1194 1426 l 1,2,-1
 1098 1426 l 1,3,-1
 795 0 l 1,4,-1
 682 0 l 1,5,-1
 830 696 l 1,6,7
 774 687 774 687 722 687 c 0,8,9
 515 687 515 687 412 817 c 0,10,11
 345 902 345 902 345 1014 c 0,12,13
 345 1062 345 1062 354 1104 c 0,14,15
 390 1272 390 1272 534 1391 c 0,16,17
 689 1520 689 1520 899 1520 c 0,18,19
 950 1520 950 1520 1007 1510 c 1,20,-1
 1323 1510 l 1,21,-1
 1002 0 l 1,0,-1
EndSplineSet
Validated: 19457
EndChar

StartChar: periodcentered
Encoding: 183 183 118
Width: 404
GlyphClass: 2
Flags: W
HStem: 570 370<273.356 451.135>
VStem: 176 373<667.734 844.217>
LayerCount: 2
Fore
SplineSet
402 940 m 0,0,1
 480 940 480 940 520 886 c 0,2,3
 549 847 549 847 549 797 c 0,4,5
 549 779 549 779 544 755 c 0,6,7
 528 678 528 678 463.5 624 c 128,-1,8
 399 570 399 570 323 570 c 0,9,10
 248 570 248 570 206 624 c 0,11,12
 176 663 176 663 176 713 c 0,13,14
 176 733 176 733 180 755 c 0,15,16
 196 832 196 832 261 886 c 128,-1,17
 326 940 326 940 402 940 c 0,0,1
EndSplineSet
Validated: 19457
EndChar

StartChar: cedilla
Encoding: 184 184 119
Width: 364
GlyphClass: 2
Flags: W
HStem: -430 158<-38 76.8643> -107 107<28 96.27>
VStem: 123 177<-247.194 -121.138>
LayerCount: 2
Fore
SplineSet
28 0 m 1,0,-1
 168 0 l 1,1,-1
 160 -39 l 1,2,3
 219 -49 219 -49 255 -81 c 0,4,5
 300 -120 300 -120 300 -183 c 0,6,7
 300 -205 300 -205 295 -229 c 0,8,9
 279 -303 279 -303 216 -354 c 0,10,11
 121 -430 121 -430 -71 -430 c 1,12,-1
 -38 -272 l 1,13,14
 42 -272 42 -272 78 -248 c 0,15,16
 113 -224 113 -224 121 -187 c 0,17,18
 123 -180 123 -180 123 -173 c 0,19,20
 123 -145 123 -145 97 -125 c 0,21,22
 74 -107 74 -107 5 -107 c 1,23,-1
 28 0 l 1,0,-1
EndSplineSet
Validated: 19457
EndChar

StartChar: ordmasculine
Encoding: 186 186 120
Width: 677
GlyphClass: 2
Flags: W
HStem: 775 141<215 822> 971 65<496.936 632.772> 1485 65<577.926 716.366>
VStem: 280 192<1054.32 1362.02> 741 192<1158.12 1466.16>
LayerCount: 2
Fore
SplineSet
215 916 m 1,0,-1
 852 916 l 1,1,-1
 822 775 l 1,2,-1
 185 775 l 1,3,-1
 215 916 l 1,0,-1
654.5 1485 m 128,-1,5
 599 1485 599 1485 550 1423 c 0,6,7
 506 1367 506 1367 484 1260 c 0,8,9
 472 1204 472 1204 472 1161 c 0,10,11
 472 1124 472 1124 481 1098 c 0,12,13
 503 1036 503 1036 558.5 1036 c 128,-1,14
 614 1036 614 1036 662 1098 c 0,15,16
 706 1155 706 1155 729 1261 c 0,17,18
 741 1316 741 1316 741 1358 c 0,19,20
 741 1396 741 1396 731 1423 c 0,21,4
 710 1485 710 1485 654.5 1485 c 128,-1,5
666 1550 m 0,22,23
 835 1550 835 1550 900 1451 c 0,24,25
 933 1401 933 1401 933 1332 c 0,26,27
 933 1298 933 1298 925 1260 c 0,28,29
 900 1141 900 1141 819 1070 c 0,30,31
 707 971 707 971 543 971 c 0,32,33
 375 971 375 971 313 1070 c 0,34,35
 280 1124 280 1124 280 1191 c 0,36,37
 280 1224 280 1224 288 1260 c 0,38,39
 312 1375 312 1375 394 1451 c 0,40,41
 501 1550 501 1550 666 1550 c 0,22,23
EndSplineSet
Validated: 19457
EndChar

StartChar: guillemotright
Encoding: 187 187 121
Width: 1327
GlyphClass: 2
Flags: W
DStem2: 302 344 378 246 0.741785 0.670637<0 522.465> 595 1265 406 1108 0.561422 -0.82753<23.8134 524.466> 728 344 804 246 0.741785 0.670637<0 522.465> 1021 1265 832 1108 0.561422 -0.82753<23.8134 524.466>
LayerCount: 2
Fore
SplineSet
595 1265 m 1,0,-1
 941 755 l 1,1,-1
 378 246 l 1,2,-1
 302 344 l 1,3,-1
 689 695 l 1,4,-1
 406 1108 l 1,5,-1
 595 1265 l 1,0,-1
1021 1265 m 1,6,-1
 1367 755 l 1,7,-1
 804 246 l 1,8,-1
 728 344 l 1,9,-1
 1115 695 l 1,10,-1
 832 1108 l 1,11,-1
 1021 1265 l 1,6,-1
EndSplineSet
Validated: 19457
EndChar

StartChar: questiondown
Encoding: 191 191 122
Width: 1380
VWidth: 1638
GlyphClass: 2
Flags: W
HStem: -430 120<521.131 798.883> 750 370<837.356 1014.64>
VStem: 115 337<-238.954 117.695>
LayerCount: 2
Fore
SplineSet
965 1120 m 0,0,1
 1040 1120 1040 1120 1082 1066 c 0,2,3
 1112 1027 1112 1027 1112 976 c 0,4,5
 1112 956 1112 956 1108 935 c 0,6,7
 1092 858 1092 858 1027.5 804 c 128,-1,8
 963 750 963 750 887 750 c 0,9,10
 812 750 812 750 770 804 c 0,11,12
 740 843 740 843 740 894 c 0,13,14
 740 914 740 914 744 935 c 0,15,16
 760 1012 760 1012 824.5 1066 c 128,-1,17
 889 1120 889 1120 965 1120 c 0,0,1
585 -430 m 0,18,19
 333 -430 333 -430 216 -313 c 0,20,21
 115 -212 115 -212 115 -72 c 0,22,23
 115 -27 115 -27 125 22 c 0,24,25
 182 289 182 289 461 430 c 2,26,-1
 609 505 l 2,27,28
 753 578 753 578 866 674 c 1,29,-1
 876 674 l 1,30,31
 888 653 888 653 888 626 c 0,32,33
 888 611 888 611 884 594 c 0,34,35
 866 508 866 508 765 419 c 2,36,-1
 629 299 l 2,37,38
 500 185 500 185 462 9 c 0,39,40
 452 -40 452 -40 452 -84 c 0,41,42
 452 -158 452 -158 482 -217 c 0,43,44
 530 -310 530 -310 641 -310 c 0,45,46
 766 -310 766 -310 852 -223 c 0,47,48
 955 -118 955 -118 988 19 c 0,49,50
 1003 80 1003 80 1007 167 c 1,51,-1
 1014 175 l 1,52,-1
 1239 -102 l 1,53,54
 1146 -209 1146 -209 1020 -298 c 0,55,56
 833 -430 833 -430 585 -430 c 0,18,19
EndSplineSet
Validated: 19457
EndChar

StartChar: AE
Encoding: 198 198 123
Width: 2579
GlyphClass: 2
Flags: W
HStem: -20 130<1700.3 2107.06> 0 21G<5 334.863 1000 1120> 695 120<846 1284 1708 2256> 1410 120<1911.98 2277.57> 1490 20G<785 1293>
VStem: 5 317<0 317> 1389 324<400.219 735.199>
DStem2: 5 0 322 0 0.54087 0.841106<171.456 997.794 1140.37 1652.17>
LayerCount: 2
Fore
SplineSet
1274 1386 m 1,0,-1
 1281 1394 l 1,1,2
 1360 1324 1360 1324 1425 1253 c 1,3,4
 1441 1269 1441 1269 1459 1284 c 0,5,6
 1740 1530 1740 1530 2142 1530 c 0,7,8
 2545 1530 2545 1530 2713 1262 c 1,9,-1
 2395 1010 l 1,10,-1
 2388 1018 l 1,11,12
 2400 1073 2400 1073 2400 1122 c 0,13,14
 2400 1213 2400 1213 2359 1283 c 0,15,16
 2285 1410 2285 1410 2106 1410 c 0,17,18
 1893 1410 1893 1410 1724 1218 c 0,19,20
 1647 1131 1647 1131 1593 1029 c 1,21,22
 1654 923 1654 923 1684 815 c 1,23,-1
 2281 815 l 1,24,-1
 2256 695 l 1,25,-1
 1708 695 l 1,26,27
 1713 652 1713 652 1713 609 c 0,28,29
 1713 525 1713 525 1695 440 c 0,30,31
 1668 315 1668 315 1600 226 c 1,32,33
 1709 110 1709 110 1908 110 c 0,34,35
 2273 110 2273 110 2573 340 c 1,36,-1
 2580 334 l 1,37,38
 2270 -20 2270 -20 1804 -20 c 0,39,40
 1561 -20 1561 -20 1402 72 c 1,41,42
 1242 0 1242 0 998 0 c 1,43,-1
 1000 10 l 1,44,45
 1289 133 1289 133 1355 440 c 0,46,47
 1389 600 1389 600 1389 765 c 0,48,49
 1389 1068 1389 1068 1274 1386 c 1,0,-1
5 0 m 1,50,-1
 855 1322 l 2,51,52
 876 1355 876 1355 881 1380 c 0,53,54
 883 1390 883 1390 883 1400 c 0,55,56
 883 1464 883 1464 785 1500 c 1,57,-1
 787 1510 l 1,58,-1
 1293 1510 l 1,59,-1
 846 815 l 1,60,-1
 1309 815 l 1,61,-1
 1284 695 l 1,62,-1
 769 695 l 1,63,-1
 322 0 l 1,64,-1
 5 0 l 1,50,-1
EndSplineSet
Validated: 1
EndChar

StartChar: Eth
Encoding: 208 208 124
Width: 1646
GlyphClass: 2
Flags: W
HStem: 0 10<612 626.134> 694 120<203 318 663 1050> 1390 120<785 1194.5> 1500 10<351 358.796>
VStem: 170 320<0 320> 1418 339<674.757 1161.27>
DStem2: 170 0 490 0 0.207912 0.978148<66.5317 709.605 898.713 1393.04>
LayerCount: 2
Fore
SplineSet
170 0 m 1,0,-1
 318 694 l 1,1,-1
 178 694 l 1,2,-1
 203 814 l 1,3,-1
 343 814 l 1,4,-1
 451 1320 l 2,5,6
 456 1344 456 1344 456 1364 c 0,7,8
 456 1461 456 1461 349 1500 c 1,9,-1
 351 1510 l 1,10,-1
 1067 1510 l 2,11,12
 1499 1510 1499 1510 1665 1265 c 0,13,14
 1757 1129 1757 1129 1757 944 c 0,15,16
 1757 855 1757 855 1736 755 c 0,17,18
 1675 468 1675 468 1425 255 c 0,19,20
 1128 1 1128 1 610 0 c 1,21,-1
 612 10 l 1,22,23
 937 80 937 80 1161 318 c 0,24,25
 1346 515 1346 515 1396 755 c 0,26,27
 1418 858 1418 858 1418 946 c 0,28,29
 1418 1110 1418 1110 1341 1220 c 0,30,31
 1223 1390 1223 1390 991 1390 c 2,32,-1
 785 1390 l 1,33,-1
 663 814 l 1,34,-1
 1075 814 l 1,35,-1
 1050 694 l 1,36,-1
 638 694 l 1,37,-1
 490 0 l 1,38,-1
 170 0 l 1,0,-1
EndSplineSet
Validated: 19457
EndChar

StartChar: multiply
Encoding: 215 215 125
Width: 1162
GlyphClass: 2
Flags: W
DStem2: 275 493 392 344 0.771466 0.63627<0 408.123 645.061 1053.18> 567 1166 386 1017 0.618698 -0.785629<5.07449 334.072 527.64 856.638>
LayerCount: 2
Fore
SplineSet
567 1166 m 1,0,-1
 773 903 l 1,1,-1
 1091 1166 l 1,2,-1
 1208 1017 l 1,3,-1
 889 755 l 1,4,-1
 1097 493 l 1,5,-1
 916 344 l 1,6,-1
 710 607 l 1,7,-1
 392 344 l 1,8,-1
 275 493 l 1,9,-1
 593 755 l 1,10,-1
 386 1017 l 1,11,-1
 567 1166 l 1,0,-1
EndSplineSet
Validated: 19457
EndChar

StartChar: Oslash
Encoding: 216 216 126
Width: 1766
GlyphClass: 2
Flags: W
HStem: -20 120<736.263 1091.67> 1410 120<994.927 1350.28>
VStem: 208 341<329.725 840.835> 1538 340<668.923 1182.63>
DStem2: 414 45 504 -15 0.619833 0.784733<8.701 57.0072 313.292 1581.4 1837.68 1885.99>
LayerCount: 2
Fore
SplineSet
879 -20 m 0,0,1
 686 -20 686 -20 546 38 c 1,2,-1
 504 -15 l 1,3,-1
 414 45 l 1,4,-1
 449 90 l 1,5,6
 367 145 367 145 309 226 c 0,7,8
 208 369 208 369 208 564 c 0,9,10
 208 654 208 654 230 755 c 0,11,12
 298 1076 298 1076 535 1284 c 0,13,14
 814 1530 814 1530 1208 1530 c 0,15,16
 1400 1530 1400 1530 1541 1472 c 1,17,-1
 1583 1525 l 1,18,-1
 1673 1465 l 1,19,-1
 1638 1420 l 1,20,21
 1721 1366 1721 1366 1778 1284 c 0,22,23
 1878 1142 1878 1142 1878 949 c 0,24,25
 1878 858 1878 858 1856 755 c 0,26,27
 1787 432 1787 432 1552 226 c 0,28,29
 1271 -20 1271 -20 879 -20 c 0,0,1
904 100 m 0,30,31
 1105 100 1105 100 1280 289 c 0,32,33
 1458 481 1458 481 1516 755 c 0,34,35
 1538 858 1538 858 1538 950 c 0,36,37
 1538 1100 1538 1100 1479 1219 c 1,38,-1
 672 196 l 1,39,40
 761 100 761 100 904 100 c 0,30,31
608 291 m 1,41,-1
 1415 1314 l 1,42,43
 1325 1410 1325 1410 1183 1410 c 0,44,45
 982 1410 982 1410 807 1221 c 0,46,47
 629 1029 629 1029 570 755 c 0,48,49
 549 653 549 653 549 562 c 0,50,51
 549 410 549 410 608 291 c 1,41,-1
EndSplineSet
Validated: 19457
EndChar

StartChar: Thorn
Encoding: 222 222 127
Width: 1384
GlyphClass: 2
Flags: W
HStem: 0 21G<170 494.247> 1215 120<774 1011.52> 1500 10<351 358.796>
VStem: 170 320<0 320> 1153 341<680.208 1075.48>
DStem2: 170 0 490 0 0.207912 0.978148<66.5317 1308.62>
LayerCount: 2
Fore
SplineSet
170 0 m 1,0,-1
 451 1320 l 2,1,2
 456 1344 456 1344 456 1364 c 0,3,4
 456 1461 456 1461 349 1500 c 1,5,-1
 351 1510 l 1,6,-1
 811 1510 l 1,7,-1
 774 1335 l 1,8,-1
 949 1335 l 2,9,10
 1243 1335 1243 1335 1387 1177 c 0,11,12
 1494 1059 1494 1059 1494 901 c 0,13,14
 1494 847 1494 847 1481 788 c 0,15,16
 1431 553 1431 553 1263 391 c 0,17,18
 1036 174 1036 174 641 174 c 1,19,-1
 643 184 l 1,20,21
 836 278 836 278 963 417 c 0,22,23
 1094 560 1094 560 1136 756 c 0,24,25
 1153 835 1153 835 1153 900 c 0,26,27
 1153 1003 1153 1003 1111 1072 c 0,28,29
 1024 1215 1024 1215 842 1215 c 2,30,-1
 748 1215 l 1,31,-1
 490 0 l 1,32,-1
 170 0 l 1,0,-1
EndSplineSet
Validated: 19457
EndChar

StartChar: germandbls
Encoding: 223 223 128
Width: 1358
GlyphClass: 2
Flags: W
HStem: 0 21G<170 474.249 592 765> 909 120<786 917.379> 1418 112<796.253 1004.85>
VStem: 170 300<0 300> 1034 272<1148.29 1377.96> 1089 323<423.712 785.074>
DStem2: 170 0 470 0 0.207912 0.978148<62.3735 1388.6>
LayerCount: 2
Fore
SplineSet
170 0 m 1,0,-1
 419 1173 l 2,1,2
 457 1351 457 1351 620 1453 c 0,3,4
 742 1530 742 1530 938 1530 c 0,5,6
 1127 1530 1127 1530 1227 1446 c 0,7,8
 1306 1379 1306 1379 1306 1286 c 0,9,10
 1306 1266 1306 1266 1302 1245 c 0,11,12
 1286 1152 1286 1152 1205 1084 c 0,13,14
 1131 1023 1131 1023 1039 990 c 1,15,16
 1254 961 1254 961 1348 843 c 0,17,18
 1412 762 1412 762 1412 641 c 0,19,20
 1412 584 1412 584 1398 518 c 0,21,22
 1354 309 1354 309 1163 167 c 0,23,24
 940 0 940 0 590 0 c 1,25,-1
 592 10 l 1,26,27
 793 91 793 91 913 212 c 0,28,29
 1040 340 1040 340 1075 504 c 0,30,31
 1089 569 1089 569 1089 623 c 0,32,33
 1089 708 1089 708 1055 768 c 0,34,35
 975 909 975 909 760 909 c 9,36,-1
 786 1029 l 1,37,38
 873 1029 873 1029 942 1092 c 128,-1,39
 1011 1155 1011 1155 1028 1239 c 0,40,41
 1034 1267 1034 1267 1034 1292 c 0,42,43
 1034 1346 1034 1346 1005 1379 c 0,44,45
 972 1418 972 1418 910 1418 c 0,46,47
 861 1418 861 1418 820 1393 c 0,48,49
 758 1356 758 1356 733 1238 c 2,50,-1
 470 0 l 1,51,-1
 170 0 l 1,0,-1
EndSplineSet
Validated: 19457
EndChar

StartChar: ae
Encoding: 230 230 129
Width: 1865
GlyphClass: 2
Flags: W
HStem: -20 120<1206.82 1540.89> 0 10<762.516 770> 495 110<1287 1606> 990 110<787.82 1068> 1011 109<1365.47 1651.92>
VStem: 173 319<239.431 651.517>
DStem2: 853.749 -20 1153.59 -20 0.207912 0.978148<226.299 588.834 701.42 1032.47>
LayerCount: 2
Fore
SplineSet
858 0 m 1,0,-1
 1068 990 l 1,1,-1
 968 990 l 2,2,3
 816 990 816 990 689 876 c 0,4,5
 549 750 549 750 507 550 c 0,6,7
 492 481 492 481 492 419 c 0,8,9
 492 301 492 301 546 210 c 0,10,11
 619 85 619 85 772 10 c 1,12,-1
 770 0 l 1,13,14
 440 0 440 0 285 150 c 0,15,16
 173 259 173 259 173 425 c 0,17,18
 173 484 173 484 187 550 c 0,19,20
 239 793 239 793 450 946 c 0,21,22
 662 1100 662 1100 972 1100 c 2,23,-1
 1341 1100 l 1,24,25
 1428 1120 1428 1120 1526 1120 c 0,26,27
 1825 1120 1825 1120 1956 910 c 1,28,-1
 1700 708 l 1,29,-1
 1693 715 l 1,30,31
 1702 737 1702 737 1709 771 c 0,32,33
 1714 796 1714 796 1714 820 c 0,34,35
 1714 875 1714 875 1688 924 c 0,36,37
 1639 1011 1639 1011 1522 1011 c 0,38,39
 1435 1011 1435 1011 1363 966 c 1,40,-1
 1287 605 l 1,41,-1
 1630 605 l 1,42,-1
 1606 495 l 1,43,-1
 1263 495 l 1,44,-1
 1191 156 l 1,45,46
 1261 100 1261 100 1386 100 c 0,47,48
 1619 100 1619 100 1838 240 c 1,49,-1
 1845 234 l 1,50,51
 1609 -20 1609 -20 1295 -20 c 0,52,53
 1193 -20 1193 -20 1111 0 c 1,54,-1
 858 0 l 1,0,-1
EndSplineSet
Validated: 19457
EndChar

StartChar: eth
Encoding: 240 240 130
Width: 1347
GlyphClass: 2
Flags: W
HStem: -20 109<571.378 823.759> 1100 20G<755 904> 1510 20G<747 822>
VStem: 172 314<212.842 638.083> 1125 320<591.915 1157.23>
DStem2: 779 1308 840 1230 0.771253 0.636528<0 169.779 358.207 509.551>
LayerCount: 2
Fore
SplineSet
664 -20 m 0,0,1
 360 -20 360 -20 239 172 c 0,2,3
 172 278 172 278 172 414 c 0,4,5
 172 479 172 479 187 550 c 0,6,7
 235 774 235 774 399 928 c 0,8,9
 604 1120 604 1120 906 1120 c 1,10,-1
 904 1110 l 1,11,12
 763 1027 763 1027 655.5 885.5 c 128,-1,13
 548 744 548 744 507 550 c 0,14,15
 486 450 486 450 486 370 c 0,16,17
 486 283 486 283 511 221 c 0,18,19
 565 89 565 89 690.5 89 c 128,-1,20
 816 89 816 89 921 229 c 0,21,22
 1039 386 1039 386 1096 655 c 0,23,24
 1125 793 1125 793 1125 912 c 0,25,26
 1125 1070 1125 1070 1074 1194 c 0,27,28
 1039 1278 1039 1278 981 1346 c 1,29,-1
 840 1230 l 1,30,-1
 779 1308 l 1,31,-1
 910 1416 l 1,32,33
 840 1475 840 1475 747 1520 c 1,34,-1
 749 1530 l 1,35,36
 895 1530 895 1530 1011 1499 c 1,37,-1
 1174 1633 l 1,38,-1
 1235 1556 l 1,39,-1
 1118 1460 l 1,40,41
 1251 1399 1251 1399 1333 1283 c 0,42,43
 1445 1127 1445 1127 1445 900 c 0,44,45
 1445 787 1445 787 1417 657 c 0,46,47
 1355 364 1355 364 1173 190 c 0,48,49
 956 -20 956 -20 664 -20 c 0,0,1
EndSplineSet
Validated: 19457
EndChar

StartChar: divide
Encoding: 247 247 131
Width: 1192
GlyphClass: 2
Flags: W
HStem: 130 370<573.766 752.234> 650 210<303 1210> 1010 370<761.356 938.644>
CounterMasks: 1 e0
LayerCount: 2
Fore
SplineSet
303 860 m 1,0,-1
 1255 860 l 1,1,-1
 1210 650 l 1,2,-1
 258 650 l 1,3,-1
 303 860 l 1,0,-1
889 1380 m 0,4,5
 964 1380 964 1380 1006 1326 c 0,6,7
 1036 1287 1036 1287 1036 1236 c 0,8,9
 1036 1216 1036 1216 1032 1195 c 0,10,11
 1016 1118 1016 1118 951.5 1064 c 128,-1,12
 887 1010 887 1010 811 1010 c 0,13,14
 736 1010 736 1010 694 1064 c 0,15,16
 664 1103 664 1103 664 1154 c 0,17,18
 664 1174 664 1174 668 1195 c 0,19,20
 684 1272 684 1272 748.5 1326 c 128,-1,21
 813 1380 813 1380 889 1380 c 0,4,5
624 130 m 128,-1,23
 548 130 548 130 506 184 c 0,24,25
 477 222 477 222 477 274 c 0,26,27
 477 294 477 294 481 315 c 0,28,29
 497 392 497 392 561.5 446 c 128,-1,30
 626 500 626 500 702 500 c 128,-1,31
 778 500 778 500 820 446 c 0,32,33
 849 408 849 408 849 356 c 0,34,35
 849 336 849 336 845 315 c 0,36,37
 829 238 829 238 764.5 184 c 128,-1,22
 700 130 700 130 624 130 c 128,-1,23
EndSplineSet
Validated: 19457
EndChar

StartChar: oslash
Encoding: 248 248 132
Width: 1335
GlyphClass: 2
Flags: W
HStem: -20 109<570.122 825.638> 1011 109<744.199 999.712>
VStem: 172 314<269.482 640.581> 1084 313<458.574 832.432>
DStem2: 297 15 381 -40 0.620435 0.784258<8.98237 65.7127 321.72 1123.93 1377.94 1433.86>
LayerCount: 2
Fore
SplineSet
664 -20 m 0,0,1
 528 -20 528 -20 428 19 c 1,2,-1
 381 -40 l 1,3,-1
 297 15 l 1,4,-1
 338 66 l 1,5,6
 278 108 278 108 239 172 c 0,7,8
 172 278 172 278 172 414 c 0,9,10
 172 479 172 479 187 550 c 0,11,12
 235 774 235 774 399 928 c 0,13,14
 604 1120 604 1120 906 1120 c 0,15,16
 1041 1120 1041 1120 1140 1082 c 1,17,-1
 1186 1140 l 1,18,-1
 1271 1085 l 1,19,-1
 1230 1034 l 1,20,21
 1291 991 1291 991 1331 928 c 0,22,23
 1397 825 1397 825 1397 688 c 0,24,25
 1397 623 1397 623 1382 550 c 0,26,27
 1334 323 1334 323 1171 172 c 0,28,29
 964 -20 964 -20 664 -20 c 0,0,1
687 89 m 0,30,31
 809 89 809 89 914 215 c 0,32,33
 1019 340 1019 340 1063 550 c 0,34,35
 1084 648 1084 648 1084 727 c 0,36,37
 1084 787 1084 787 1072 835 c 1,38,-1
 542 163 l 1,39,40
 596 89 596 89 687 89 c 0,30,31
497 267 m 1,41,-1
 1026 938 l 1,42,43
 973 1011 973 1011 883 1011 c 0,44,45
 762 1011 762 1011 656 885 c 0,46,47
 551 758 551 758 507 550 c 0,48,49
 486 451 486 451 486 371 c 0,50,51
 486 314 486 314 497 267 c 1,41,-1
EndSplineSet
Validated: 19457
EndChar

StartChar: thorn
Encoding: 254 254 133
Width: 1328
GlyphClass: 2
Flags: W
HStem: -410 21G<83 387.243> 0 21G<560 723> 990 110<704 934.484> 1500 10<351 358.796>
VStem: 83 300<-410 -110> 1069 319<447.593 854.219>
DStem2: 83 -410 383 -410 0.207912 0.978148<62.3735 1493.53 1606.12 1812.17>
LayerCount: 2
Fore
SplineSet
83 -410 m 1,0,-1
 451 1320 l 2,1,2
 456 1344 456 1344 456 1364 c 0,3,4
 456 1461 456 1461 349 1500 c 1,5,-1
 351 1510 l 1,6,-1
 791 1510 l 1,7,-1
 704 1100 l 1,8,-1
 824 1100 l 2,9,10
 1134 1100 1134 1100 1280 946 c 0,11,12
 1388 833 1388 833 1388 670 c 0,13,14
 1388 613 1388 613 1375 550 c 0,15,16
 1321 298 1321 298 1107 150 c 0,17,18
 888 0 888 0 558 0 c 1,19,-1
 560 10 l 1,20,21
 745 85 745 85 872 210 c 0,22,23
 1013 349 1013 349 1055 550 c 0,24,25
 1069 616 1069 616 1069 674 c 0,26,27
 1069 791 1069 791 1011 876 c 0,28,29
 932 990 932 990 780 990 c 2,30,-1
 680 990 l 1,31,-1
 383 -410 l 1,32,-1
 83 -410 l 1,0,-1
EndSplineSet
Validated: 19457
EndChar

StartChar: Dcroat
Encoding: 272 272 134
Width: 1646
GlyphClass: 2
Flags: W
HStem: 0 10<612 626.134> 694 120<203 318 663 1050> 1390 120<785 1194.5> 1500 10<351 358.796>
VStem: 170 320<0 320> 1418 339<674.757 1161.27>
DStem2: 170 0 490 0 0.207912 0.978148<66.5317 709.605 898.713 1393.04>
LayerCount: 2
Fore
SplineSet
170 0 m 5,0,-1
 318 694 l 5,1,-1
 178 694 l 5,2,-1
 203 814 l 5,3,-1
 343 814 l 5,4,-1
 451 1320 l 6,5,6
 456 1344 456 1344 456 1364 c 4,7,8
 456 1461 456 1461 349 1500 c 5,9,-1
 351 1510 l 5,10,-1
 1067 1510 l 6,11,12
 1499 1510 1499 1510 1665 1265 c 4,13,14
 1757 1129 1757 1129 1757 944 c 4,15,16
 1757 855 1757 855 1736 755 c 4,17,18
 1675 468 1675 468 1425 255 c 4,19,20
 1128 1 1128 1 610 0 c 5,21,-1
 612 10 l 5,22,23
 937 80 937 80 1161 318 c 4,24,25
 1346 515 1346 515 1396 755 c 4,26,27
 1418 858 1418 858 1418 946 c 4,28,29
 1418 1110 1418 1110 1341 1220 c 4,30,31
 1223 1390 1223 1390 991 1390 c 6,32,-1
 785 1390 l 5,33,-1
 663 814 l 5,34,-1
 1075 814 l 5,35,-1
 1050 694 l 5,36,-1
 638 694 l 5,37,-1
 490 0 l 5,38,-1
 170 0 l 5,0,-1
EndSplineSet
Validated: 19457
EndChar

StartChar: dcroat
Encoding: 273 273 135
Width: 1328
GlyphClass: 2
Flags: W
HStem: 0 110<627.516 881> 0 10<1290.2 1298> 1080 20G<839 1002> 1210 110<807 1115 1439 1555> 1500 10<1039 1046.8>
VStem: 174 319<245.781 652.407>
DStem2: 857.619 0 1157.61 0 0.207912 0.978148<213.152 1237.07>
LayerCount: 2
Fore
SplineSet
1298 0 m 1,0,-1
 738 0 l 2,1,2
 428 0 428 0 282 154 c 0,3,4
 174 267 174 267 174 430 c 0,5,6
 174 487 174 487 187 550 c 0,7,8
 241 802 241 802 455 950 c 0,9,10
 674 1100 674 1100 1004 1100 c 1,11,-1
 1002 1090 l 1,12,13
 817 1015 817 1015 690 890 c 0,14,15
 549 751 549 751 507 550 c 0,16,17
 493 484 493 484 493 426 c 0,18,19
 493 309 493 309 551 224 c 0,20,21
 630 110 630 110 781 110 c 2,22,-1
 881 110 l 1,23,-1
 1115 1210 l 1,24,-1
 783 1210 l 1,25,-1
 807 1320 l 1,26,-1
 1139 1320 l 1,27,28
 1144 1344 1144 1344 1144 1364 c 0,29,30
 1144 1461 1144 1461 1037 1500 c 1,31,-1
 1039 1510 l 1,32,-1
 1479 1510 l 1,33,-1
 1439 1320 l 1,34,-1
 1579 1320 l 1,35,-1
 1555 1210 l 1,36,-1
 1415 1210 l 1,37,-1
 1198 190 l 2,38,39
 1193 166 1193 166 1193 146 c 0,40,41
 1193 49 1193 49 1300 10 c 1,42,-1
 1298 0 l 1,0,-1
EndSplineSet
Validated: 19457
EndChar

StartChar: Hbar
Encoding: 294 294 136
Width: 1612
GlyphClass: 2
Flags: W
HStem: 0 10<1574.2 1582> 695 120<663 1270> 1206 120<312 426 772 1378 1724 1838> 1500 10<351 361.957>
VStem: 170 320<0 320>
DStem2: 170 0 490 0 0.207912 0.978148<66.5317 777.115 899.691 1232.87> 1122 0 1441.61 0 0.207912 0.978148<217.231 710.584 833.159 1232.87 1422.19 1543.74>
LayerCount: 2
Fore
SplineSet
170 0 m 1,0,-1
 426 1206 l 1,1,-1
 286 1206 l 1,2,-1
 312 1326 l 1,3,-1
 452 1326 l 1,4,5
 456 1346 456 1346 456 1365 c 0,6,7
 456 1462 456 1462 349 1500 c 1,8,-1
 351 1510 l 1,9,-1
 811 1510 l 1,10,-1
 772 1326 l 1,11,-1
 1404 1326 l 1,12,-1
 1443 1510 l 1,13,-1
 1763 1510 l 1,14,-1
 1724 1326 l 1,15,-1
 1864 1326 l 1,16,-1
 1838 1206 l 1,17,-1
 1698 1206 l 1,18,-1
 1482 190 l 2,19,20
 1477 166 1477 166 1477 146 c 0,21,22
 1477 49 1477 49 1584 10 c 1,23,-1
 1582 0 l 1,24,-1
 1122 0 l 1,25,-1
 1270 695 l 1,26,-1
 638 695 l 1,27,-1
 490 0 l 1,28,-1
 170 0 l 1,0,-1
1378 1206 m 1,29,-1
 746 1206 l 1,30,-1
 663 815 l 1,31,-1
 1295 815 l 1,32,-1
 1378 1206 l 1,29,-1
EndSplineSet
Validated: 19457
EndChar

StartChar: hbar
Encoding: 295 295 137
Width: 1328
GlyphClass: 2
Flags: W
HStem: 0 21G<170 474.242 759 871.5> 990 110<704 935.832> 1210 110<311 427 751 1056> 1500 10<351 358.796>
VStem: 170 300<0 300> 1070 318<447.064 854.468>
DStem2: 165.749 -20 465.749 -20 0.207912 0.978148<82.8203 1094.85 1207.43 1257.44>
LayerCount: 2
Fore
SplineSet
170 0 m 1,0,-1
 427 1210 l 1,1,-1
 287 1210 l 1,2,-1
 311 1320 l 1,3,-1
 451 1320 l 1,4,5
 456 1344 456 1344 456 1364 c 0,6,7
 456 1461 456 1461 349 1500 c 1,8,-1
 351 1510 l 1,9,-1
 791 1510 l 1,10,-1
 751 1320 l 1,11,-1
 1080 1320 l 1,12,-1
 1056 1210 l 1,13,-1
 727 1210 l 1,14,-1
 704 1100 l 1,15,-1
 824 1100 l 2,16,17
 1139 1100 1139 1100 1275 952 c 0,18,19
 1388 830 1388 830 1388 665 c 0,20,21
 1388 610 1388 610 1375 550 c 0,22,23
 1326 320 1326 320 1122 157 c 0,24,25
 974 39 974 39 769 -20 c 1,26,-1
 759 -20 l 1,27,28
 872 108 872 108 946 248 c 0,29,30
 1022 393 1022 393 1055 550 c 0,31,32
 1070 619 1070 619 1070 678 c 0,33,34
 1070 794 1070 794 1014 872 c 0,35,36
 930 990 930 990 780 990 c 2,37,-1
 680 990 l 1,38,-1
 470 0 l 1,39,-1
 170 0 l 1,0,-1
EndSplineSet
Validated: 19457
EndChar

StartChar: IJ
Encoding: 306 306 138
Width: 1840
GlyphClass: 2
Flags: W
HStem: -20 120<961.444 1224.33> 0 21G<170 494.252> 1390 120<1125.41 1645> 1500 10<351 358.796>
VStem: 170 320<0 320> 1038 10<1250 1258.61>
DStem2: 165.749 -20 485.749 -20 0.207912 0.978148<86.9786 1413.49> 1345.99 -20 1665.63 -20 0.207912 0.978148<404.535 1441.36>
LayerCount: 2
Fore
SplineSet
1049.5 -20 m 128,-1,1
 759 -20 759 -20 625 223 c 1,2,-1
 937 472 l 1,3,-1
 944 465 l 1,4,5
 923 410 923 410 911 353 c 0,6,7
 903 316 903 316 903 284 c 0,8,9
 903 236 903 236 921 198 c 0,10,11
 968 100 968 100 1094 100 c 0,12,13
 1171 100 1171 100 1257 166 c 0,14,15
 1410 283 1410 283 1468 554 c 2,16,-1
 1645 1390 l 1,17,-1
 1257 1390 l 2,18,19
 1124 1390 1124 1390 1048 1250 c 1,20,-1
 1038 1250 l 1,21,-1
 1093 1510 l 1,22,-1
 1991 1510 l 1,23,-1
 1787 551 l 2,24,25
 1737 315 1737 315 1554 161 c 0,26,0
 1340 -20 1340 -20 1049.5 -20 c 128,-1,1
170 0 m 1,27,-1
 451 1320 l 2,28,29
 456 1344 456 1344 456 1364 c 0,30,31
 456 1461 456 1461 349 1500 c 1,32,-1
 351 1510 l 1,33,-1
 811 1510 l 1,34,-1
 490 0 l 1,35,-1
 170 0 l 1,27,-1
EndSplineSet
Validated: 19457
EndChar

StartChar: ij
Encoding: 307 307 139
Width: 1340
GlyphClass: 2
Flags: W
HStem: -410 21G<605 843> 0 10<602.204 610> 1090 10<264 274.836 964 974.836> 1170 370<501.356 678.644 1201.36 1378.64>
DStem2: 82.8518 -410 382.466 -410 0.207912 0.978148<632.232 1393.81> 783.142 -410 1083.14 -410 0.207912 0.978148<241.077 1393.75>
LayerCount: 2
Fore
SplineSet
1329 1540 m 0,0,1
 1404 1540 1404 1540 1446 1486 c 0,2,3
 1476 1447 1476 1447 1476 1396 c 0,4,5
 1476 1376 1476 1376 1472 1355 c 0,6,7
 1456 1278 1456 1278 1391.5 1224 c 128,-1,8
 1327 1170 1327 1170 1251 1170 c 0,9,10
 1176 1170 1176 1170 1134 1224 c 0,11,12
 1104 1263 1104 1263 1104 1314 c 0,13,14
 1104 1334 1104 1334 1108 1355 c 0,15,16
 1124 1432 1124 1432 1188.5 1486 c 128,-1,17
 1253 1540 1253 1540 1329 1540 c 0,0,1
603 -410 m 1,18,-1
 605 -400 l 1,19,20
 804 -309 804 -309 862 -39 c 2,21,-1
 1063 910 l 2,22,23
 1068 934 1068 934 1068 955 c 0,24,25
 1068 1052 1068 1052 962 1090 c 1,26,-1
 964 1100 l 1,27,-1
 1404 1100 l 1,28,-1
 1162 -39 l 2,29,30
 1083 -410 1083 -410 603 -410 c 1,18,-1
629 1540 m 0,31,32
 704 1540 704 1540 746 1486 c 0,33,34
 776 1447 776 1447 776 1396 c 0,35,36
 776 1376 776 1376 772 1355 c 0,37,38
 756 1278 756 1278 691.5 1224 c 128,-1,39
 627 1170 627 1170 551 1170 c 0,40,41
 476 1170 476 1170 434 1224 c 0,42,43
 404 1263 404 1263 404 1314 c 0,44,45
 404 1334 404 1334 408 1355 c 0,46,47
 424 1432 424 1432 488.5 1486 c 128,-1,48
 553 1540 553 1540 629 1540 c 0,31,32
170 0 m 1,49,-1
 363 910 l 2,50,51
 368 934 368 934 368 955 c 0,52,53
 368 1052 368 1052 262 1090 c 1,54,-1
 264 1100 l 1,55,-1
 704 1100 l 1,56,-1
 510 190 l 2,57,58
 505 166 505 166 505 146 c 0,59,60
 505 49 505 49 612 10 c 1,61,-1
 610 0 l 1,62,-1
 170 0 l 1,49,-1
EndSplineSet
Validated: 19457
EndChar

StartChar: kgreenlandic
Encoding: 312 312 140
Width: 1349
GlyphClass: 2
Flags: W
HStem: 0 21G<170 474.255 904.023 1344> 184 8<545 550.049> 1090 10<264 274.836>
VStem: 170 300<0 300> 1040 322<675.073 986.93>
DStem2: 170 0 470 0 0.207912 0.978148<62.3735 974.655>
LayerCount: 2
Fore
SplineSet
1344 0 m 1,0,-1
 927 0 l 1,1,-1
 680 215 l 1,2,-1
 548 184 l 1,3,-1
 545 192 l 1,4,5
 707 282 707 282 814 384 c 0,6,7
 983 545 983 545 1027 751 c 0,8,9
 1040 811 1040 811 1040 863 c 0,10,11
 1040 1009 1040 1009 940 1090 c 1,12,-1
 942 1100 l 1,13,14
 1362 1100 1362 1100 1362 856 c 0,15,16
 1362 821 1362 821 1354 782 c 0,17,18
 1295 508 1295 508 962 334 c 1,19,-1
 1344 0 l 1,0,-1
170 0 m 1,20,-1
 363 910 l 2,21,22
 368 934 368 934 368 955 c 0,23,24
 368 1052 368 1052 262 1090 c 1,25,-1
 264 1100 l 1,26,-1
 704 1100 l 1,27,-1
 470 0 l 1,28,-1
 170 0 l 1,20,-1
EndSplineSet
Validated: 19457
EndChar

StartChar: Lslash
Encoding: 321 321 141
Width: 1078
GlyphClass: 2
Flags: W
HStem: 0 120<516 1035.59> 1500 10<351 358.796>
VStem: 1113 10<251.387 260>
DStem2: 170 0 490.493 0 0.207912 0.978148<189.315 529.551 672.729 785.148 927.348 1393.04> 195 599 233 494 0.88965 0.456644<0 38.6321 532.658 915.673>
LayerCount: 2
Fore
SplineSet
170 0 m 1,0,-1
 280 518 l 1,1,-1
 233 494 l 1,2,-1
 195 599 l 1,3,-1
 310 658 l 1,4,-1
 451 1320 l 2,5,6
 456 1344 456 1344 456 1364 c 0,7,8
 456 1461 456 1461 349 1500 c 1,9,-1
 351 1510 l 1,10,-1
 811 1510 l 1,11,-1
 669 842 l 1,12,-1
 1023 1024 l 1,13,-1
 1060 919 l 1,14,-1
 639 703 l 1,15,-1
 516 120 l 1,16,-1
 904 120 l 2,17,18
 1037 120 1037 120 1113 260 c 1,19,-1
 1123 260 l 1,20,-1
 1068 0 l 1,21,-1
 170 0 l 1,0,-1
EndSplineSet
Validated: 19457
EndChar

StartChar: lslash
Encoding: 322 322 142
Width: 796
GlyphClass: 2
Flags: W
HStem: 0 10<680.204 688> 1500 10<429 436.796>
DStem2: 148 600 182 503 0.88917 0.457578<0 204.103 665.95 870.942> 248 0 547.614 0 0.207912 0.978148<213.073 616.436 748.438 855.721 987.516 1393.04>
LayerCount: 2
Fore
SplineSet
248 0 m 1,0,-1
 376 603 l 1,1,-1
 182 503 l 1,2,-1
 148 600 l 1,3,-1
 404 732 l 1,4,-1
 529 1320 l 2,5,6
 534 1344 534 1344 534 1364 c 0,7,8
 534 1461 534 1461 427 1500 c 1,9,-1
 429 1510 l 1,10,-1
 869 1510 l 1,11,-1
 740 905 l 1,12,-1
 935 1005 l 1,13,-1
 969 908 l 1,14,-1
 713 776 l 1,15,-1
 588 190 l 2,16,17
 583 166 583 166 583 146 c 0,18,19
 583 49 583 49 690 10 c 1,20,-1
 688 0 l 1,21,-1
 248 0 l 1,0,-1
EndSplineSet
Validated: 19457
EndChar

StartChar: Eng
Encoding: 330 330 143
Width: 1637
GlyphClass: 2
Flags: W
HStem: -410 21G<741 922> 0 21G<170 494.245> 1390 120<785 1167.55> 1500 10<351 358.796>
VStem: 170 320<0 320> 1361 341<663.195 1180.19>
DStem2: 82.8518 -410 402.852 -410 0.207912 0.978148<485.691 1812.2> 1090.24 -410 1430.03 -410 0.207912 0.978148<553.915 1392.53>
LayerCount: 2
Fore
SplineSet
170 0 m 1,0,-1
 451 1320 l 2,1,2
 456 1344 456 1344 456 1364 c 0,3,4
 456 1461 456 1461 349 1500 c 1,5,-1
 351 1510 l 1,6,-1
 1037 1510 l 2,7,8
 1404 1510 1404 1510 1587 1306 c 0,9,10
 1702 1178 1702 1178 1702 968 c 0,11,12
 1702 870 1702 870 1677 755 c 2,13,-1
 1592 352 l 2,14,15
 1525 37 1525 37 1292 -172 c 0,16,17
 1093 -351 1093 -351 751 -410 c 1,18,-1
 741 -410 l 1,19,20
 978 -236 978 -236 1094 -49 c 0,21,22
 1205 132 1205 132 1252 351 c 2,23,-1
 1337 754 l 2,24,25
 1361 866 1361 866 1361 959 c 0,26,27
 1361 1117 1361 1117 1293 1224 c 0,28,29
 1187 1390 1187 1390 984 1390 c 2,30,-1
 785 1390 l 1,31,-1
 490 0 l 1,32,-1
 170 0 l 1,0,-1
EndSplineSet
Validated: 19457
EndChar

StartChar: eng
Encoding: 331 331 144
Width: 1378
GlyphClass: 2
Flags: W
HStem: 0 21G<170 474.242> 990 110<680 935.832> 1090 10<264 274.836>
VStem: 170 300<0 300> 1070 318<409.062 854.468>
DStem2: 78.6007 -430 378.601 -430 0.207912 0.978148<501.98 1414.26> 846.843 -430 1166.84 -430 0.207912 0.978148<418.034 1128.38>
LayerCount: 2
Fore
SplineSet
170 0 m 1,0,-1
 363 910 l 2,1,2
 368 934 368 934 368 955 c 0,3,4
 368 1052 368 1052 262 1090 c 1,5,-1
 264 1100 l 1,6,-1
 824 1100 l 2,7,8
 1139 1100 1139 1100 1275 952 c 0,9,10
 1388 830 1388 830 1388 665 c 0,11,12
 1388 610 1388 610 1375 550 c 2,13,-1
 1288 140 l 2,14,15
 1239 -90 1239 -90 1035 -253 c 0,16,17
 887 -371 887 -371 682 -430 c 1,18,-1
 672 -430 l 1,19,20
 785 -302 785 -302 859 -162 c 0,21,22
 935 -17 935 -17 968 140 c 2,23,-1
 1055 550 l 2,24,25
 1070 619 1070 619 1070 678 c 0,26,27
 1070 794 1070 794 1014 872 c 0,28,29
 930 990 930 990 780 990 c 2,30,-1
 680 990 l 1,31,-1
 470 0 l 1,32,-1
 170 0 l 1,0,-1
EndSplineSet
Validated: 19457
EndChar

StartChar: OE
Encoding: 338 338 145
Width: 2565
GlyphClass: 2
Flags: W
HStem: -20 120<736.075 1092.73 1708.14 2093.06> 695 120<1867 2242> 1410 120<994.927 1351.28 1899.35 2263.57>
VStem: 208 340<328.713 840.835> 1539 339<816.424 1181.85>
CounterMasks: 1 e0
LayerCount: 2
Fore
SplineSet
904 100 m 128,-1,1
 1105 100 1105 100 1280 289 c 0,2,3
 1458 481 1458 481 1516 755 c 0,4,5
 1538 859 1538 859 1539 951 c 0,6,7
 1539 1102 1539 1102 1479 1221 c 0,8,9
 1384 1410 1384 1410 1183 1410 c 128,-1,10
 982 1410 982 1410 807 1221 c 0,11,12
 628 1029 628 1029 570 755 c 0,13,14
 548 651 548 651 548 559 c 0,15,16
 548 408 548 408 608 289 c 0,17,0
 703 100 703 100 904 100 c 128,-1,1
879 -20 m 0,18,19
 482 -20 482 -20 309 226 c 0,20,21
 208 369 208 369 208 564 c 0,22,23
 208 654 208 654 230 755 c 0,24,25
 298 1076 298 1076 535 1284 c 0,26,27
 814 1530 814 1530 1208 1530 c 0,28,29
 1474 1530 1474 1530 1640 1418 c 1,30,31
 1856 1530 1856 1530 2128 1530 c 0,32,33
 2531 1530 2531 1530 2699 1262 c 1,34,-1
 2381 1010 l 1,35,-1
 2374 1018 l 1,36,37
 2386 1073 2386 1073 2386 1122 c 0,38,39
 2386 1213 2386 1213 2345 1283 c 0,40,41
 2271 1410 2271 1410 2092 1410 c 0,42,43
 1920 1410 1920 1410 1777 1285 c 1,44,45
 1878 1142 1878 1142 1878 948 c 0,46,47
 1878 884 1878 884 1867 815 c 1,48,-1
 2267 815 l 1,49,-1
 2242 695 l 1,50,-1
 1842 695 l 1,51,52
 1769 425 1769 425 1571 243 c 1,53,54
 1682 110 1682 110 1894 110 c 0,55,56
 2259 110 2259 110 2559 340 c 1,57,-1
 2566 334 l 1,58,59
 2256 -20 2256 -20 1790 -20 c 0,60,61
 1523 -20 1523 -20 1357 92 c 1,62,63
 1143 -20 1143 -20 879 -20 c 0,18,19
EndSplineSet
Validated: 19457
EndChar

StartChar: oe
Encoding: 339 339 146
Width: 1860
GlyphClass: 2
Flags: W
HStem: -20 109<571.022 824.002 1221.19 1535.89> 495 110<1392 1601> 1011 109<744.199 1001.04 1361.89 1647.32>
VStem: 172 314<212.842 640.581> 1084 314<606.947 886.1>
CounterMasks: 1 e0
LayerCount: 2
Fore
SplineSet
686.5 89 m 128,-1,1
 808 89 808 89 914 215 c 0,2,3
 1019 340 1019 340 1063 550 c 0,4,5
 1084 650 1084 650 1084 730 c 0,6,7
 1084 817 1084 817 1059 879 c 0,8,9
 1005 1011 1005 1011 883 1011 c 0,10,11
 762 1011 762 1011 656 885 c 0,12,13
 551 758 551 758 507 550 c 0,14,15
 486 450 486 450 486 370 c 0,16,17
 486 283 486 283 511 221 c 0,18,0
 565 89 565 89 686.5 89 c 128,-1,1
664 -20 m 0,19,20
 360 -20 360 -20 239 172 c 0,21,22
 172 278 172 278 172 414 c 0,23,24
 172 479 172 479 187 550 c 0,25,26
 235 774 235 774 399 928 c 0,27,28
 604 1120 604 1120 906 1120 c 0,29,30
 1083 1120 1083 1120 1199 1054 c 1,31,32
 1344 1120 1344 1120 1521 1120 c 0,33,34
 1820 1120 1820 1120 1951 910 c 1,35,-1
 1695 708 l 1,36,-1
 1688 715 l 1,37,38
 1697 737 1697 737 1704 771 c 0,39,40
 1708 796 1708 796 1708 819 c 0,41,42
 1708 875 1708 875 1683 924 c 0,43,44
 1636 1011 1636 1011 1517 1011 c 0,45,46
 1409 1011 1409 1011 1323 940 c 1,47,48
 1398 826 1398 826 1398 685 c 0,49,50
 1398 646 1398 646 1392 605 c 1,51,-1
 1625 605 l 1,52,-1
 1601 495 l 1,53,-1
 1368 495 l 1,54,55
 1314 305 1314 305 1169 171 c 1,56,57
 1239 100 1239 100 1381 100 c 0,58,59
 1614 100 1614 100 1833 240 c 1,60,-1
 1840 234 l 1,61,62
 1604 -20 1604 -20 1290 -20 c 0,63,64
 1104 -20 1104 -20 985 47 c 1,65,66
 841 -20 841 -20 664 -20 c 0,19,20
EndSplineSet
Validated: 19457
EndChar

StartChar: Tbar
Encoding: 358 358 147
Width: 1210
GlyphClass: 2
Flags: W
HStem: 0 21G<446 770.241> 580 120<368 569 915 1114> 1390 120<363.41 741 1061 1418.73>
VStem: 276 10<1250 1258.61> 446 320<0 320> 1456 10<1250 1271.02>
DStem2: 446 0 766 0 0.207912 0.978148<66.5317 592.899 782.214 1420.96>
LayerCount: 2
Fore
SplineSet
446 0 m 1,0,-1
 569 580 l 1,1,-1
 342 580 l 1,2,-1
 368 700 l 1,3,-1
 595 700 l 1,4,-1
 741 1390 l 1,5,-1
 495 1390 l 2,6,7
 362 1390 362 1390 286 1250 c 1,8,-1
 276 1250 l 1,9,-1
 331 1510 l 1,10,-1
 1521 1510 l 1,11,-1
 1466 1250 l 1,12,-1
 1456 1250 l 1,13,14
 1439 1390 1439 1390 1305 1390 c 2,15,-1
 1061 1390 l 1,16,-1
 915 700 l 1,17,-1
 1140 700 l 1,18,-1
 1114 580 l 1,19,-1
 889 580 l 1,20,-1
 766 0 l 1,21,-1
 446 0 l 1,0,-1
EndSplineSet
Validated: 19457
EndChar

StartChar: tbar
Encoding: 359 359 148
Width: 825
GlyphClass: 2
Flags: W
HStem: 0 10<602.204 610> 580 110<187 293 617 723> 990 110<704 1030> 1500 10<351 358.796>
DStem2: 170 0 469.614 0 0.207912 0.978148<213.073 592.899 767.858 1074.4 1186.99 1393.04>
LayerCount: 2
Fore
SplineSet
170 0 m 1,0,-1
 293 580 l 1,1,-1
 163 580 l 1,2,-1
 187 690 l 1,3,-1
 317 690 l 1,4,-1
 451 1320 l 2,5,6
 456 1344 456 1344 456 1364 c 0,7,8
 456 1461 456 1461 349 1500 c 1,9,-1
 351 1510 l 1,10,-1
 791 1510 l 1,11,-1
 704 1100 l 1,12,-1
 1054 1100 l 1,13,-1
 1030 990 l 1,14,-1
 680 990 l 1,15,-1
 617 690 l 1,16,-1
 747 690 l 1,17,-1
 723 580 l 1,18,-1
 593 580 l 1,19,-1
 510 190 l 2,20,21
 505 166 505 166 505 146 c 0,22,23
 505 49 505 49 612 10 c 1,24,-1
 610 0 l 1,25,-1
 170 0 l 1,0,-1
EndSplineSet
Validated: 19457
EndChar

StartChar: longs
Encoding: 383 383 149
Width: 1311
GlyphClass: 2
Flags: W
HStem: -410 21G<143 447.254> 670 110<196 372> 1116 21G<1323 1355.35> 1419 109<976.385 1281.96>
VStem: 143 300<-410 -110>
DStem2: 143 -410 443 -410 0.207912 0.978148<62.3735 1104.01 1216.6 1649.62>
LayerCount: 2
Fore
SplineSet
143 -410 m 1,0,-1
 372 670 l 1,1,-1
 172 670 l 1,2,-1
 196 780 l 1,3,-1
 396 780 l 1,4,-1
 434 958 l 2,5,6
 482 1184 482 1184 646 1336 c 0,7,8
 854 1528 854 1528 1156 1528 c 0,9,10
 1455 1528 1455 1528 1586 1318 c 1,11,-1
 1330 1116 l 1,12,-1
 1323 1123 l 1,13,14
 1332 1145 1332 1145 1339 1179 c 0,15,16
 1343 1204 1343 1204 1343 1227 c 0,17,18
 1343 1283 1343 1283 1318 1332 c 0,19,20
 1271 1419 1271 1419 1143 1419 c 0,21,22
 1017 1419 1017 1419 919 1333 c 0,23,24
 789 1219 789 1219 734 958 c 2,25,-1
 443 -410 l 1,26,-1
 143 -410 l 1,0,-1
EndSplineSet
Validated: 19457
EndChar

StartChar: florin
Encoding: 402 402 150
Width: 1251
GlyphClass: 2
Flags: W
HStem: -410 21G<-95 143> 670 110<636 1104> 1116 21G<1263 1295.35> 1419 109<916.385 1222.57>
DStem2: 83.1415 -410 383.142 -410 0.207912 0.978148<241.077 1166.36 1278.94 1649.59>
LayerCount: 2
Fore
SplineSet
-97 -410 m 1,0,-1
 -95 -400 l 1,1,2
 104 -309 104 -309 162 -39 c 2,3,-1
 374 958 l 2,4,5
 422 1184 422 1184 586 1336 c 0,6,7
 794 1528 794 1528 1096 1528 c 0,8,9
 1395 1528 1395 1528 1526 1318 c 1,10,-1
 1270 1116 l 1,11,-1
 1263 1123 l 1,12,13
 1274 1151 1274 1151 1279 1179 c 0,14,15
 1283 1203 1283 1203 1283 1227 c 0,16,17
 1283 1283 1283 1283 1258 1332 c 0,18,19
 1214 1419 1214 1419 1083 1419 c 0,20,21
 957 1419 957 1419 859 1333 c 0,22,23
 729 1219 729 1219 674 958 c 2,24,-1
 636 780 l 1,25,-1
 1128 780 l 1,26,-1
 1104 670 l 1,27,-1
 612 670 l 1,28,-1
 462 -39 l 2,29,30
 383 -410 383 -410 -97 -410 c 1,0,-1
EndSplineSet
Validated: 19457
EndChar

StartChar: endash
Encoding: 8211 8211 151
Width: 1192
GlyphClass: 2
Flags: W
HStem: 650 210<303 1210>
LayerCount: 2
Fore
SplineSet
303 860 m 1,0,-1
 1255 860 l 1,1,-1
 1210 650 l 1,2,-1
 258 650 l 1,3,-1
 303 860 l 1,0,-1
EndSplineSet
Validated: 19457
EndChar

StartChar: emdash
Encoding: 8212 8212 152
Width: 1593
GlyphClass: 2
Flags: W
HStem: 650 210<303 1611>
LayerCount: 2
Fore
SplineSet
303 860 m 1,0,-1
 1656 860 l 1,1,-1
 1611 650 l 1,2,-1
 258 650 l 1,3,-1
 303 860 l 1,0,-1
EndSplineSet
Validated: 19457
EndChar

StartChar: afii00208
Encoding: 8213 8213 153
Width: 1593
GlyphClass: 2
Flags: W
HStem: 650 210<303 1611>
LayerCount: 2
Fore
SplineSet
303 860 m 1,0,-1
 1656 860 l 1,1,-1
 1611 650 l 1,2,-1
 258 650 l 1,3,-1
 303 860 l 1,0,-1
EndSplineSet
Validated: 19457
EndChar

StartChar: quoteleft
Encoding: 8216 8216 154
Width: 368
GlyphClass: 2
Flags: W
HStem: 967 633
VStem: 275 253<1099.67 1332.48>
LayerCount: 2
Fore
SplineSet
698 1600 m 1,0,-1
 696 1590 l 1,1,2
 563 1470 563 1470 535 1334 c 0,3,4
 528 1299 528 1299 528 1268 c 0,5,6
 528 1184 528 1184 584 1136 c 1,7,-1
 380 967 l 1,8,9
 275 1045 275 1045 275 1165 c 0,10,11
 275 1197 275 1197 282 1231 c 0,12,13
 333 1475 333 1475 698 1600 c 1,0,-1
EndSplineSet
Validated: 19457
EndChar

StartChar: quoteright
Encoding: 8217 8217 155
Width: 368
GlyphClass: 2
Flags: W
HStem: 967 633
VStem: 386 253<1234.94 1418.2>
LayerCount: 2
Fore
SplineSet
534 1600 m 1,0,1
 639 1522 639 1522 639 1402 c 0,2,3
 639 1370 639 1370 632 1336 c 0,4,5
 580 1092 580 1092 216 967 c 1,6,-1
 218 977 l 1,7,8
 351 1097 351 1097 379 1233 c 0,9,10
 386 1268 386 1268 386 1298 c 0,11,12
 386 1382 386 1382 329 1431 c 1,13,-1
 534 1600 l 1,0,1
EndSplineSet
Validated: 19457
EndChar

StartChar: quotesinglbase
Encoding: 8218 8218 156
Width: 368
GlyphClass: 2
Flags: W
HStem: -324 633
VStem: 112 253<-56.0557 127.203>
LayerCount: 2
Fore
SplineSet
260 309 m 1,0,1
 365 231 365 231 365 111 c 0,2,3
 365 79 365 79 358 45 c 0,4,5
 306 -199 306 -199 -59 -324 c 1,6,-1
 -57 -314 l 1,7,8
 76 -194 76 -194 105 -58 c 0,9,10
 112 -23 112 -23 112 7 c 0,11,12
 112 91 112 91 55 140 c 1,13,-1
 260 309 l 1,0,1
EndSplineSet
Validated: 19457
EndChar

StartChar: quotereversed
Encoding: 8219 8219 157
Width: 368
GlyphClass: 2
Flags: W
HStem: 967 633
VStem: 297 208<1126.17 1330.56>
LayerCount: 2
Fore
SplineSet
514 1600 m 1,0,1
 647 1431 l 1,2,3
 541 1365 541 1365 513 1233 c 0,4,5
 505 1197 505 1197 505 1163 c 0,6,7
 505 1066 505 1066 566 977 c 1,8,-1
 564 967 l 1,9,10
 297 1074 297 1074 297 1270 c 0,11,12
 297 1302 297 1302 304 1336 c 0,13,14
 339 1502 339 1502 514 1600 c 1,0,1
EndSplineSet
Validated: 19457
EndChar

StartChar: quotedblleft
Encoding: 8220 8220 158
Width: 724
GlyphClass: 2
Flags: W
HStem: 967 633
VStem: 275 253<1099.67 1332.48> 631 253<1101.61 1333.48>
LayerCount: 2
Fore
SplineSet
698 1600 m 1,0,-1
 696 1590 l 1,1,2
 563 1470 563 1470 535 1334 c 0,3,4
 528 1299 528 1299 528 1268 c 0,5,6
 528 1184 528 1184 584 1136 c 1,7,-1
 380 967 l 1,8,9
 275 1045 275 1045 275 1165 c 0,10,11
 275 1197 275 1197 282 1231 c 0,12,13
 333 1475 333 1475 698 1600 c 1,0,-1
1054 1601 m 1,14,-1
 1052 1591 l 1,15,16
 919 1471 919 1471 891 1335 c 0,17,18
 884 1300 884 1300 884 1270 c 0,19,20
 884 1186 884 1186 941 1137 c 1,21,-1
 736 968 l 1,22,23
 631 1046 631 1046 631 1166 c 0,24,25
 631 1198 631 1198 638 1232 c 0,26,27
 689 1476 689 1476 1054 1601 c 1,14,-1
EndSplineSet
Validated: 19457
EndChar

StartChar: quotedblright
Encoding: 8221 8221 159
Width: 724
GlyphClass: 2
Flags: W
HStem: 968 633
VStem: 386 253<1234.94 1418.2> 742 253<1235.94 1419.2>
LayerCount: 2
Fore
SplineSet
890 1601 m 1,0,1
 995 1523 995 1523 995 1403 c 0,2,3
 995 1371 995 1371 988 1337 c 0,4,5
 936 1093 936 1093 572 968 c 1,6,-1
 574 978 l 1,7,8
 707 1098 707 1098 735 1234 c 0,9,10
 742 1269 742 1269 742 1299 c 0,11,12
 742 1383 742 1383 685 1432 c 1,13,-1
 890 1601 l 1,0,1
534 1600 m 1,14,15
 639 1522 639 1522 639 1402 c 0,16,17
 639 1370 639 1370 632 1336 c 0,18,19
 580 1092 580 1092 216 967 c 1,20,-1
 218 977 l 1,21,22
 351 1097 351 1097 379 1233 c 0,23,24
 386 1268 386 1268 386 1298 c 0,25,26
 386 1382 386 1382 329 1431 c 1,27,-1
 534 1600 l 1,14,15
EndSplineSet
Validated: 19457
EndChar

StartChar: quotedblbase
Encoding: 8222 8222 160
Width: 724
GlyphClass: 2
Flags: W
HStem: -323 633
VStem: 112 253<-56.0557 127.203> 468 253<-55.0557 128.203>
LayerCount: 2
Fore
SplineSet
616 310 m 1,0,1
 721 232 721 232 721 112 c 0,2,3
 721 80 721 80 714 46 c 0,4,5
 662 -198 662 -198 297 -323 c 1,6,-1
 299 -313 l 1,7,8
 432 -193 432 -193 461 -57 c 0,9,10
 468 -22 468 -22 468 8 c 0,11,12
 468 92 468 92 411 141 c 1,13,-1
 616 310 l 1,0,1
260 309 m 1,14,15
 365 231 365 231 365 111 c 0,16,17
 365 79 365 79 358 45 c 0,18,19
 306 -199 306 -199 -59 -324 c 1,20,-1
 -57 -314 l 1,21,22
 76 -194 76 -194 105 -58 c 0,23,24
 112 -23 112 -23 112 7 c 0,25,26
 112 91 112 91 55 140 c 1,27,-1
 260 309 l 1,14,15
EndSplineSet
Validated: 19457
EndChar

StartChar: dagger
Encoding: 8224 8224 161
Width: 1192
GlyphClass: 2
Flags: W
HStem: 0 21G<456 740.254> 1025 120<363 674 979 1290> 1490 20G<772.726 1057>
VStem: 456 280<0 280> 777 280<1230 1510>
DStem2: 456 0 736 0 0.207912 0.978148<58.2153 1047.93 1228.72 1543.74>
LayerCount: 2
Fore
SplineSet
456 0 m 1,0,-1
 674 1025 l 1,1,-1
 338 1025 l 1,2,-1
 363 1145 l 1,3,-1
 699 1145 l 1,4,-1
 777 1510 l 1,5,-1
 1057 1510 l 1,6,-1
 979 1145 l 1,7,-1
 1315 1145 l 1,8,-1
 1290 1025 l 1,9,-1
 954 1025 l 1,10,-1
 736 0 l 1,11,-1
 456 0 l 1,0,-1
EndSplineSet
Validated: 19457
EndChar

StartChar: daggerdbl
Encoding: 8225 8225 162
Width: 1192
GlyphClass: 2
Flags: W
HStem: 0 21G<456 740.231> 364 120<223 533 839 1149> 1025 120<363 674 979 1290> 1490 20G<772.726 1057>
VStem: 456 280<0 280> 777 280<1230 1510>
DStem2: 456 0 736 0 0.207912 0.978148<58.2153 372.055 553.054 1047.93 1228.72 1543.74>
LayerCount: 2
Fore
SplineSet
456 0 m 1,0,-1
 533 364 l 1,1,-1
 197 364 l 1,2,-1
 223 484 l 1,3,-1
 559 484 l 1,4,-1
 674 1025 l 1,5,-1
 338 1025 l 1,6,-1
 363 1145 l 1,7,-1
 699 1145 l 1,8,-1
 777 1510 l 1,9,-1
 1057 1510 l 1,10,-1
 979 1145 l 1,11,-1
 1315 1145 l 1,12,-1
 1290 1025 l 1,13,-1
 954 1025 l 1,14,-1
 839 484 l 1,15,-1
 1175 484 l 1,16,-1
 1149 364 l 1,17,-1
 813 364 l 1,18,-1
 736 0 l 1,19,-1
 456 0 l 1,0,-1
EndSplineSet
Validated: 19457
EndChar

StartChar: bullet
Encoding: 8226 8226 163
Width: 968
GlyphClass: 2
Flags: W
HStem: 385 740<538.106 750.894>
LayerCount: 2
Fore
SplineSet
723 1125 m 128,-1,1
 875 1125 875 1125 958 1017 c 0,2,3
 1018 939 1018 939 1018 838 c 0,4,5
 1018 798 1018 798 1008 755 c 0,6,7
 976 601 976 601 847 493 c 128,-1,8
 718 385 718 385 566 385 c 128,-1,9
 414 385 414 385 331 493 c 0,10,11
 271 571 271 571 271 672 c 0,12,13
 271 716 271 716 280 755 c 0,14,15
 312 909 312 909 441.5 1017 c 128,-1,0
 571 1125 571 1125 723 1125 c 128,-1,1
EndSplineSet
Validated: 19457
EndChar

StartChar: ellipsis
Encoding: 8230 8230 164
Width: 1234
GlyphClass: 2
Flags: W
HStem: -20 370<147.766 326.305 563.766 742.305 977.766 1156.31>
LayerCount: 2
Fore
SplineSet
1028 -20 m 128,-1,1
 952 -20 952 -20 910 34 c 0,2,3
 881 72 881 72 881 124 c 0,4,5
 881 144 881 144 885 165 c 0,6,7
 901 242 901 242 965.5 296 c 128,-1,8
 1030 350 1030 350 1106 350 c 0,9,10
 1184 350 1184 350 1224 296 c 0,11,12
 1253 257 1253 257 1253 206 c 0,13,14
 1253 186 1253 186 1249 165 c 0,15,16
 1233 88 1233 88 1168.5 34 c 128,-1,0
 1104 -20 1104 -20 1028 -20 c 128,-1,1
614 -20 m 128,-1,18
 538 -20 538 -20 496 34 c 0,19,20
 467 72 467 72 467 124 c 0,21,22
 467 144 467 144 471 165 c 0,23,24
 487 242 487 242 551.5 296 c 128,-1,25
 616 350 616 350 692 350 c 0,26,27
 770 350 770 350 810 296 c 0,28,29
 839 257 839 257 839 206 c 0,30,31
 839 186 839 186 835 165 c 0,32,33
 819 88 819 88 754.5 34 c 128,-1,17
 690 -20 690 -20 614 -20 c 128,-1,18
198 -20 m 128,-1,35
 122 -20 122 -20 80 34 c 0,36,37
 51 72 51 72 51 124 c 0,38,39
 51 144 51 144 55 165 c 0,40,41
 71 242 71 242 135.5 296 c 128,-1,42
 200 350 200 350 276 350 c 0,43,44
 354 350 354 350 394 296 c 0,45,46
 423 257 423 257 423 206 c 0,47,48
 423 186 423 186 419 165 c 0,49,50
 403 88 403 88 338.5 34 c 128,-1,34
 274 -20 274 -20 198 -20 c 128,-1,35
EndSplineSet
Validated: 19457
EndChar

StartChar: perthousand
Encoding: 8240 8240 165
Width: 2588
GlyphClass: 2
Flags: W
HStem: -20 70<1265.67 1401.94 2047.67 2183.94> 584 70<1364.05 1500.9 2146.05 2282.9> 856 70<628.677 764.735> 1460 70<727.082 861.442>
VStem: 366 242<974.469 1290.16> 883 242<1095.6 1409.99> 1002 243<98.36 414.157> 1520 241<223.211 533.994> 1784 243<98.36 414.157> 2302 241<223.211 533.994>
DStem2: 454 102 657 -20 0.580008 0.814611<18.359 1752.55>
LayerCount: 2
Fore
SplineSet
2109 50 m 0,0,1
 2165 50 2165 50 2211 117 c 0,2,3
 2252 178 2252 178 2282 317 c 0,4,5
 2301 407 2301 407 2302 464 c 0,6,7
 2302 495 2302 495 2296 517 c 0,8,9
 2278 584 2278 584 2221 584 c 128,-1,10
 2164 584 2164 584 2118 517 c 0,11,12
 2076 456 2076 456 2047 318 c 0,13,14
 2027 226 2027 226 2027 168 c 0,15,16
 2027 137 2027 137 2033 116 c 0,17,18
 2050 50 2050 50 2109 50 c 0,0,1
2091 -20 m 0,19,20
 1919 -20 1919 -20 1840 82 c 0,21,22
 1784 154 1784 154 1784 245 c 0,23,24
 1784 279 1784 279 1792 316 c 0,25,26
 1822 456 1822 456 1934 548 c 0,27,28
 2062 654 2062 654 2237 654 c 0,29,30
 2407 654 2407 654 2486 552 c 0,31,32
 2543 479 2543 479 2543 388 c 0,33,34
 2543 354 2543 354 2535 317 c 0,35,36
 2505 177 2505 177 2392 86 c 0,37,38
 2261 -20 2261 -20 2091 -20 c 0,19,20
1327 50 m 0,39,40
 1383 50 1383 50 1429 117 c 0,41,42
 1470 178 1470 178 1500 317 c 0,43,44
 1519 407 1519 407 1520 464 c 0,45,46
 1520 495 1520 495 1514 517 c 0,47,48
 1496 584 1496 584 1439 584 c 128,-1,49
 1382 584 1382 584 1336 517 c 0,50,51
 1294 456 1294 456 1265 318 c 0,52,53
 1245 226 1245 226 1245 168 c 0,54,55
 1245 137 1245 137 1251 116 c 0,56,57
 1268 50 1268 50 1327 50 c 0,39,40
802 1460 m 128,-1,59
 745 1460 745 1460 699 1393 c 0,60,61
 657 1332 657 1332 628 1194 c 0,62,63
 608 1102 608 1102 608 1044 c 0,64,65
 608 1013 608 1013 614 992 c 0,66,67
 631 926 631 926 690 926 c 0,68,69
 746 926 746 926 792 993 c 0,70,71
 834 1054 834 1054 864 1193 c 0,72,73
 883 1283 883 1283 883 1340 c 0,74,75
 883 1371 883 1371 877 1393 c 0,76,58
 859 1460 859 1460 802 1460 c 128,-1,59
818 1530 m 0,77,78
 988 1530 988 1530 1068 1428 c 0,79,80
 1125 1355 1125 1355 1125 1264 c 0,81,82
 1125 1230 1125 1230 1117 1193 c 0,83,84
 1087 1053 1087 1053 973 962 c 0,85,86
 841 856 841 856 672 856 c 0,87,88
 500 856 500 856 422 958 c 0,89,90
 366 1031 366 1031 366 1123 c 0,91,92
 366 1156 366 1156 373 1192 c 0,93,94
 403 1332 403 1332 516 1424 c 0,95,96
 643 1530 643 1530 818 1530 c 0,77,78
1309 -20 m 0,97,98
 1137 -20 1137 -20 1058 82 c 0,99,100
 1002 154 1002 154 1002 245 c 0,101,102
 1002 279 1002 279 1010 316 c 0,103,104
 1040 456 1040 456 1152 548 c 0,105,106
 1280 654 1280 654 1455 654 c 0,107,108
 1625 654 1625 654 1704 552 c 0,109,110
 1761 479 1761 479 1761 388 c 0,111,112
 1761 354 1761 354 1753 317 c 0,113,114
 1723 177 1723 177 1610 86 c 0,115,116
 1479 -20 1479 -20 1309 -20 c 0,97,98
657 -20 m 1,117,-1
 454 102 l 1,118,-1
 1470 1530 l 1,119,-1
 1683 1421 l 1,120,-1
 657 -20 l 1,117,-1
EndSplineSet
Validated: 19457
EndChar

StartChar: minute
Encoding: 8242 8242 166
Width: 421
GlyphClass: 2
Flags: W
HStem: 1156 394
VStem: 266 464
LayerCount: 2
Fore
SplineSet
486 1550 m 1,0,-1
 730 1550 l 1,1,-1
 434 1156 l 1,2,-1
 266 1156 l 1,3,-1
 486 1550 l 1,0,-1
EndSplineSet
Validated: 19457
EndChar

StartChar: second
Encoding: 8243 8243 167
Width: 718
GlyphClass: 2
Flags: W
HStem: 1156 394
LayerCount: 2
Fore
SplineSet
783 1550 m 1,0,-1
 1027 1550 l 1,1,-1
 731 1156 l 1,2,-1
 563 1156 l 1,3,-1
 783 1550 l 1,0,-1
486 1550 m 1,4,-1
 730 1550 l 1,5,-1
 434 1156 l 1,6,-1
 266 1156 l 1,7,-1
 486 1550 l 1,4,-1
EndSplineSet
Validated: 19457
EndChar

StartChar: guilsinglleft
Encoding: 8249 8249 168
Width: 901
GlyphClass: 2
Flags: W
VStem: 280 640
DStem2: 533 815 280 755 0.562532 -0.826776<0 500.655> 280 755 533 815 0.742377 0.669982<228.02 750.484>
LayerCount: 2
Fore
SplineSet
844 1264 m 1,0,-1
 920 1166 l 1,1,-1
 533 815 l 1,2,-1
 816 402 l 1,3,-1
 627 245 l 1,4,-1
 280 755 l 1,5,-1
 844 1264 l 1,0,-1
EndSplineSet
Validated: 19457
EndChar

StartChar: guilsinglright
Encoding: 8250 8250 169
Width: 901
GlyphClass: 2
Flags: W
VStem: 302 639
DStem2: 302 344 378 246 0.741785 0.670637<0 522.465> 595 1265 406 1108 0.561422 -0.82753<23.8134 524.466>
LayerCount: 2
Fore
SplineSet
595 1265 m 1,0,-1
 941 755 l 1,1,-1
 378 246 l 1,2,-1
 302 344 l 1,3,-1
 689 695 l 1,4,-1
 406 1108 l 1,5,-1
 595 1265 l 1,0,-1
EndSplineSet
Validated: 19457
EndChar

StartChar: fraction
Encoding: 8260 8260 170
Width: 969
GlyphClass: 2
Flags: W
HStem: -20 21G<201.721 249.24> 1510 20G<1033.77 1087.08>
DStem2: 32 102 235 -20 0.580008 0.814611<18.359 1752.55>
LayerCount: 2
Fore
SplineSet
235 -20 m 1,0,-1
 32 102 l 1,1,-1
 1048 1530 l 1,2,-1
 1261 1421 l 1,3,-1
 235 -20 l 1,0,-1
EndSplineSet
Validated: 1
EndChar

StartChar: Euro
Encoding: 8364 8364 171
Width: 1805
GlyphClass: 2
Flags: W
HStem: -20 130<872.482 1283.06> 587 120<220 311 663 1339> 803 120<266 343 721 1385> 1410 120<1086.35 1453.57>
VStem: 311 342<349.827 587 707 802.281>
LayerCount: 2
Fore
SplineSet
980 -20 m 0,0,1
 582 -20 582 -20 410 226 c 0,2,3
 311 368 311 368 311 587 c 1,4,-1
 195 587 l 1,5,-1
 220 707 l 1,6,-1
 322 707 l 1,7,8
 326 731 326 731 332 756 c 0,9,10
 337 780 337 780 343 803 c 1,11,-1
 241 803 l 1,12,-1
 266 923 l 1,13,-1
 381 923 l 1,14,15
 464 1134 464 1134 635 1284 c 0,16,17
 916 1530 916 1530 1318 1530 c 0,18,19
 1721 1530 1721 1530 1889 1262 c 1,20,-1
 1571 1010 l 1,21,-1
 1564 1018 l 1,22,23
 1576 1073 1576 1073 1576 1122 c 0,24,25
 1576 1213 1576 1213 1535 1283 c 0,26,27
 1461 1410 1461 1410 1282 1410 c 0,28,29
 1062 1410 1062 1410 901 1220 c 0,30,31
 784 1083 784 1083 721 923 c 1,32,-1
 1410 923 l 1,33,-1
 1385 803 l 1,34,-1
 683 803 l 1,35,36
 678 783 678 783 673 762 c 0,37,38
 667 734 667 734 663 707 c 1,39,-1
 1364 707 l 1,40,-1
 1339 587 l 1,41,-1
 653 587 l 1,42,43
 653 430 653 430 715 312 c 0,44,45
 822 110 822 110 1084 110 c 0,46,47
 1449 110 1449 110 1749 340 c 1,48,-1
 1756 334 l 1,49,50
 1446 -20 1446 -20 980 -20 c 0,0,1
EndSplineSet
Validated: 19457
EndChar

StartChar: afii61248
Encoding: 8453 8453 172
Width: 2074
GlyphClass: 2
Flags: W
HStem: -20 71<1444.88 1643.06> 692 70<1569.46 1769.6> 747 75<649.299 912.835> 1460 70<747.812 949.871>
VStem: 352 212<898.292 1246.99> 1169 210<114.11 473.33> 1834 210<271.483 628.828>
DStem2: 570 102 773 -20 0.580008 0.814611<18.359 1752.55>
LayerCount: 2
Fore
SplineSet
878 1530 m 128,-1,1
 1095 1530 1095 1530 1182 1393 c 1,2,-1
 997 1246 l 1,3,-1
 991 1254 l 1,4,5
 996 1280 996 1280 996 1305 c 0,6,7
 996 1352 996 1352 976 1392 c 0,8,9
 941 1460 941 1460 858 1460 c 0,10,11
 767 1460 767 1460 694 1382 c 0,12,13
 606 1290 606 1290 574 1137 c 0,14,15
 564 1088 564 1088 564 1053 c 0,16,17
 564 973 564 973 598 915 c 0,18,19
 650 822 650 822 795 822 c 0,20,21
 961 822 961 822 1109 935 c 1,22,-1
 1115 928 l 1,23,24
 955 747 955 747 707 747 c 0,25,26
 490 747 490 747 402 873 c 0,27,28
 352 944 352 944 352 1042 c 0,29,30
 352 1088 352 1088 363 1141 c 0,31,32
 398 1306 398 1306 515 1406 c 0,33,0
 661 1530 661 1530 878 1530 c 128,-1,1
773 -20 m 1,34,-1
 570 102 l 1,35,-1
 1586 1530 l 1,36,-1
 1799 1421 l 1,37,-1
 773 -20 l 1,34,-1
1676 692 m 0,38,39
 1588 692 1588 692 1507 603 c 0,40,41
 1419 506 1419 506 1390 369 c 0,42,43
 1379 318 1379 318 1379 266 c 0,44,45
 1379 191 1379 191 1404 140 c 0,46,47
 1448 51 1448 51 1537 51 c 128,-1,48
 1626 51 1626 51 1706 140 c 0,49,50
 1793 236 1793 236 1823 378 c 0,51,52
 1834 429 1834 429 1834 474 c 0,53,54
 1834 550 1834 550 1809 603 c 0,55,56
 1768 692 1768 692 1676 692 c 0,38,39
1692 762 m 0,57,58
 1907 762 1907 762 1994 638 c 0,59,60
 2044 567 2044 567 2044 468 c 0,61,62
 2044 421 2044 421 2033 369 c 0,63,64
 1998 205 1998 205 1880 105 c 0,65,66
 1733 -20 1733 -20 1521.5 -20 c 128,-1,67
 1310 -20 1310 -20 1219 105 c 0,68,69
 1169 175 1169 175 1169 273 c 0,70,71
 1169 319 1169 319 1180 372 c 0,72,73
 1215 536 1215 536 1333 638 c 24,74,75
 1476 762 1476 762 1692 762 c 0,57,58
EndSplineSet
Validated: 19457
EndChar

StartChar: afii61289
Encoding: 8467 8467 173
Width: 1267
GlyphClass: 2
Flags: W
HStem: -20 236<642 810.645> 0 21G<120 500.364> 1510 20G<1139.5 1237>
LayerCount: 2
Fore
SplineSet
696 -20 m 0,0,1
 588 -20 588 -20 520 44 c 1,2,-1
 484 0 l 1,3,-1
 120 0 l 1,4,5
 316 162 316 162 454 325 c 1,6,7
 463 420 463 420 485 524 c 0,8,9
 519 686 519 686 605 865 c 0,10,11
 783 1240 783 1240 973 1423 c 0,12,13
 1084 1530 1084 1530 1195 1530 c 0,14,15
 1279 1530 1279 1530 1319 1480 c 0,16,17
 1351 1439 1351 1439 1351 1371 c 0,18,19
 1351 1331 1351 1331 1340 1281 c 0,20,21
 1320 1186 1320 1186 1260 1041 c 0,22,23
 1115 688 1115 688 744 272 c 1,24,25
 744 216 744 216 764 216 c 0,26,27
 776 216 776 216 810 260 c 0,28,29
 831 286 831 286 849 319 c 1,30,-1
 1165 319 l 1,31,32
 1035 144 1035 144 920.5 62 c 128,-1,33
 806 -20 806 -20 696 -20 c 0,0,1
EndSplineSet
Validated: 19457
EndChar

StartChar: trademark
Encoding: 8482 8482 174
Width: 1954
GlyphClass: 2
Flags: W
HStem: 1410 140<399 416.359 975.287 1004> 1479 71<405.012 602 802 982.728> 1540 10<1581 1591.81>
VStem: 370 10<1410 1418.36> 455 200<786 986> 994 10<1410 1431.68> 1375 161<1288.95 1359.53> 1882 176<1008.52 1281.78>
DStem2: 455 786 655 786 0.207912 0.978148<41.5823 708.419> 796 786 1008 786 0.446276 0.894895<94.6106 786.991>
LayerCount: 2
Fore
SplineSet
1659 786 m 1,0,1
 1661 796 l 1,2,3
 1782 851 1782 851 1839 1011 c 0,4,5
 1882 1131 1882 1131 1882 1251 c 0,6,7
 1882 1359 1882 1359 1847 1468 c 1,8,-1
 1856 1477 l 1,9,10
 2058 1300 2058 1300 2058 1099 c 0,11,12
 2058 1056 2058 1056 2049 1011 c 0,13,14
 2001 786 2001 786 1659 786 c 1,0,1
1581 1550 m 1,15,-1
 1861 1550 l 1,16,-1
 1563 952 l 2,17,18
 1481 786 1481 786 1187 786 c 1,19,-1
 1189 796 l 1,20,21
 1306 850 1306 850 1367 1011 c 0,22,23
 1411 1128 1411 1128 1411 1248 c 0,24,25
 1411 1357 1411 1357 1375 1468 c 1,26,-1
 1384 1477 l 1,27,28
 1478 1398 1478 1398 1536 1287 c 1,29,-1
 1614 1451 l 2,30,31
 1623 1470 1623 1470 1627 1485 c 0,32,33
 1628 1489 1628 1489 1628 1494 c 0,34,35
 1628 1524 1628 1524 1579 1540 c 1,36,-1
 1581 1550 l 1,15,-1
1095 1550 m 1,37,-1
 1389 1550 l 1,38,-1
 1008 786 l 1,39,-1
 796 786 l 1,40,-1
 1128 1451 l 2,41,42
 1137 1468 1137 1468 1141 1485 c 0,43,44
 1142 1489 1142 1489 1142 1493 c 0,45,46
 1142 1523 1142 1523 1093 1540 c 1,47,-1
 1095 1550 l 1,37,-1
399 1550 m 1,48,-1
 1033 1550 l 1,49,-1
 1004 1410 l 1,50,-1
 994 1410 l 1,51,52
 986 1479 986 1479 904 1479 c 2,53,-1
 802 1479 l 1,54,-1
 655 786 l 1,55,-1
 455 786 l 1,56,-1
 602 1479 l 1,57,-1
 498 1479 l 2,58,59
 415 1479 415 1479 380 1410 c 1,60,-1
 370 1410 l 1,61,-1
 399 1550 l 1,48,-1
EndSplineSet
Validated: 19457
EndChar

StartChar: uni2126
Encoding: 8486 8486 175
Width: 1966
GlyphClass: 2
Flags: W
HStem: 0 120<172.27 531 815.661 872 1120 1227.02 1484 1863.59> 1410 120<1095.93 1451.62>
VStem: 125 10<238.979 260> 309 340<329.001 840.835> 1639 340<666.276 1181.69> 1941 10<251.387 260>
LayerCount: 2
Fore
SplineSet
70 0 m 1,0,-1
 125 260 l 1,1,-1
 135 260 l 1,2,3
 152 120 152 120 286 120 c 2,4,-1
 531 120 l 1,5,6
 452 167 452 167 410 226 c 0,7,8
 309 369 309 369 309 564 c 0,9,10
 309 654 309 654 331 755 c 0,11,12
 399 1076 399 1076 636 1284 c 0,13,14
 915 1530 915 1530 1309 1530 c 0,15,16
 1704 1530 1704 1530 1879 1284 c 0,17,18
 1979 1142 1979 1142 1979 949 c 0,19,20
 1979 858 1979 858 1957 755 c 0,21,22
 1888 432 1888 432 1653 226 c 0,23,24
 1590 171 1590 171 1484 120 c 1,25,-1
 1732 120 l 2,26,27
 1865 120 1865 120 1941 260 c 1,28,-1
 1951 260 l 1,29,-1
 1896 0 l 1,30,-1
 1094 0 l 1,31,-1
 1120 120 l 1,32,33
 1270 163 1270 163 1381 289 c 0,34,35
 1561 491 1561 491 1617 755 c 0,36,37
 1639 859 1639 859 1639 951 c 0,38,39
 1639 1102 1639 1102 1580 1221 c 0,40,41
 1485 1410 1485 1410 1284 1410 c 128,-1,42
 1083 1410 1083 1410 908 1221 c 0,43,44
 730 1029 730 1029 671 755 c 0,45,46
 649 653 649 653 649 561 c 0,47,48
 649 410 649 410 709 289 c 0,49,50
 765 174 765 174 898 120 c 1,51,-1
 872 0 l 1,52,-1
 70 0 l 1,0,-1
EndSplineSet
Validated: 19457
EndChar

StartChar: estimated
Encoding: 8494 8494 176
Width: 1261
GlyphClass: 2
Flags: W
HStem: -20 183<494.071 854.178> 491 189<548 1000> 935 185<639.618 998.502>
LayerCount: 2
Fore
SplineSet
625 -20 m 0,0,1
 374 -20 374 -20 255 145 c 0,2,3
 172 260 172 260 172 412 c 0,4,5
 172 479 172 479 188 553 c 0,6,7
 241 802 241 802 430 960 c 0,8,9
 622 1120 622 1120 864 1120 c 0,10,11
 1107 1120 1107 1120 1224 974 c 0,12,13
 1316 858 1316 858 1316 679 c 0,14,15
 1316 593 1316 593 1295 491 c 1,16,-1
 507 491 l 1,17,-1
 454 239 l 1,18,19
 533 163 533 163 664 163 c 0,20,21
 872 163 872 163 1030 351 c 1,22,-1
 1173 255 l 1,23,24
 1013 85 1013 85 883 32.5 c 128,-1,25
 753 -20 753 -20 625 -20 c 0,0,1
1000 680 m 1,26,-1
 1038 862 l 1,27,28
 956 935 956 935 826 935 c 0,29,30
 694 935 694 935 586 861 c 1,31,-1
 548 680 l 1,32,-1
 1000 680 l 1,26,-1
EndSplineSet
Validated: 19457
EndChar

StartChar: partialdiff
Encoding: 8706 8706 177
Width: 1345
GlyphClass: 2
Flags: W
HStem: -20 273<528.171 740.08> 823 260<752.537 995.899> 1257 273<791.982 1096.06>
VStem: 193 317<275.435 519.417> 1140 310<1024.77 1213.04>
LayerCount: 2
Fore
SplineSet
538 -20 m 0,0,1
 268 -20 268 -20 209 171 c 0,2,3
 193 223 193 223 193 285 c 0,4,5
 193 345 193 345 208 416 c 0,6,7
 263 673 263 673 460.5 878 c 128,-1,8
 658 1083 658 1083 930 1083 c 0,9,10
 1049 1083 1049 1083 1134 1024 c 1,11,12
 1140 1059 1140 1059 1140 1089 c 0,13,14
 1140 1138 1140 1138 1124 1173 c 0,15,16
 1085 1257 1085 1257 963 1257 c 0,17,18
 808 1257 808 1257 631 1132 c 1,19,-1
 697 1443 l 1,20,21
 861 1530 861 1530 1058 1530 c 0,22,23
 1375 1530 1375 1530 1436 1271 c 0,24,25
 1450 1213 1450 1213 1450 1145 c 0,26,27
 1450 1057 1450 1057 1427 950 c 0,28,29
 1345 563 1345 563 1100 272 c 0,30,31
 857 -20 857 -20 538 -20 c 0,0,1
1038 699 m 1,32,33
 1029 756 1029 756 992 788 c 0,34,35
 952 823 952 823 885 823 c 0,36,37
 776 823 776 823 670 706 c 0,38,39
 545 567 545 567 517 431 c 0,40,41
 510 396 510 396 510 367 c 0,42,43
 510 324 510 324 526 295 c 0,44,45
 549 253 549 253 609 253 c 0,46,47
 716 253 716 253 837 376 c 128,-1,48
 958 499 958 499 1038 699 c 1,32,33
EndSplineSet
Validated: 19457
EndChar

StartChar: uni2206
Encoding: 8710 8710 178
Width: 1552
GlyphClass: 2
Flags: W
HStem: 0 120<240 1173>
DStem2: 5 0 240 120 0.581536 0.813521<234.283 1404.66> 1123 1550 918 1074 0.263855 -0.964562<405.042 1392.52>
LayerCount: 2
Fore
SplineSet
240 120 m 1,0,-1
 1173 120 l 1,1,-1
 918 1074 l 1,2,-1
 240 120 l 1,0,-1
1547 0 m 1,3,-1
 5 0 l 1,4,-1
 1113 1550 l 1,5,-1
 1123 1550 l 1,6,-1
 1547 0 l 1,3,-1
EndSplineSet
Validated: 1
EndChar

StartChar: product
Encoding: 8719 8719 179
Width: 1609
GlyphClass: 2
Flags: W
HStem: -410 10<1484.2 1492> 1390 120<785 1414> 1500 10<351 358.796>
VStem: 83 320<-410 -90>
DStem2: 83 -410 403 -410 0.207912 0.978148<66.5317 1812.17> 1032 -410 1351.61 -410 0.207912 0.978148<217.231 1840.09>
LayerCount: 2
Fore
SplineSet
83 -410 m 1,0,-1
 451 1320 l 2,1,2
 456 1344 456 1344 456 1364 c 0,3,4
 456 1461 456 1461 349 1500 c 1,5,-1
 351 1510 l 1,6,-1
 1760 1510 l 1,7,-1
 1392 -220 l 2,8,9
 1387 -244 1387 -244 1387 -264 c 0,10,11
 1387 -361 1387 -361 1494 -400 c 1,12,-1
 1492 -410 l 1,13,-1
 1032 -410 l 1,14,-1
 1414 1390 l 1,15,-1
 785 1390 l 1,16,-1
 403 -410 l 1,17,-1
 83 -410 l 1,0,-1
EndSplineSet
Validated: 19457
EndChar

StartChar: summation
Encoding: 8721 8721 180
Width: 1396
GlyphClass: 2
Flags: W
HStem: -410 120<430 1155.91> 1390 120<747 1403.73>
VStem: 1234 10<-158.613 -150> 1441 10<1250 1271.02>
DStem2: 747 1390 391 1510 0.281951 -0.959429<0 788.216>
LayerCount: 2
Fore
SplineSet
24 -410 m 1,0,-1
 674 547 l 1,1,-1
 391 1510 l 1,2,-1
 1506 1510 l 1,3,-1
 1451 1250 l 1,4,-1
 1441 1250 l 1,5,6
 1424 1390 1424 1390 1290 1390 c 2,7,-1
 747 1390 l 1,8,-1
 1005 516 l 1,9,-1
 430 -290 l 1,10,-1
 1024 -290 l 2,11,12
 1157 -290 1157 -290 1234 -150 c 1,13,-1
 1244 -150 l 1,14,-1
 1189 -410 l 1,15,-1
 24 -410 l 1,0,-1
EndSplineSet
Validated: 19457
EndChar

StartChar: minus
Encoding: 8722 8722 181
Width: 1192
GlyphClass: 2
Flags: W
HStem: 650 210<303 1210>
LayerCount: 2
Fore
SplineSet
303 860 m 1,0,-1
 1255 860 l 1,1,-1
 1210 650 l 1,2,-1
 258 650 l 1,3,-1
 303 860 l 1,0,-1
EndSplineSet
Validated: 19457
EndChar

StartChar: uni2215
Encoding: 8725 8725 182
Width: 969
GlyphClass: 2
Flags: W
HStem: -20 21G<201.721 249.24> 1510 20G<1033.77 1087.08>
DStem2: 32 102 235 -20 0.580008 0.814611<18.359 1752.55>
LayerCount: 2
Fore
SplineSet
235 -20 m 1,0,-1
 32 102 l 1,1,-1
 1048 1530 l 1,2,-1
 1261 1421 l 1,3,-1
 235 -20 l 1,0,-1
EndSplineSet
Validated: 19457
EndChar

StartChar: uni2219
Encoding: 8729 8729 183
Width: 404
GlyphClass: 2
Flags: W
HStem: 570 370<273.356 451.135>
VStem: 176 373<667.734 844.217>
LayerCount: 2
Fore
SplineSet
402 940 m 0,0,1
 480 940 480 940 520 886 c 0,2,3
 549 847 549 847 549 797 c 0,4,5
 549 779 549 779 544 755 c 0,6,7
 528 678 528 678 463.5 624 c 128,-1,8
 399 570 399 570 323 570 c 0,9,10
 248 570 248 570 206 624 c 0,11,12
 176 663 176 663 176 713 c 0,13,14
 176 733 176 733 180 755 c 0,15,16
 196 832 196 832 261 886 c 128,-1,17
 326 940 326 940 402 940 c 0,0,1
EndSplineSet
Validated: 19457
EndChar

StartChar: radical
Encoding: 8730 8730 184
Width: 1295
GlyphClass: 2
Flags: W
HStem: 0 21G<461.696 500.64> 690 121<242 351> 1390 120<1298 1520>
DStem2: 642 484 489 0 0.50302 0.864275<0 1113.01>
LayerCount: 2
Fore
SplineSet
465 0 m 1,0,-1
 351 690 l 1,1,-1
 217 690 l 1,2,-1
 242 811 l 1,3,-1
 587 811 l 1,4,-1
 642 484 l 1,5,-1
 1231 1510 l 1,6,-1
 1546 1510 l 1,7,-1
 1520 1390 l 1,8,-1
 1298 1390 l 1,9,-1
 489 0 l 1,10,-1
 465 0 l 1,0,-1
EndSplineSet
Validated: 19457
EndChar

StartChar: infinity
Encoding: 8734 8734 185
Width: 1496
GlyphClass: 2
Flags: W
HStem: 407 178<443.939 660.159> 407 93<1010.59 1255.07> 924 178<1156.35 1373.06> 1009 93<561.93 806.159>
VStem: 272 148<639.002 858.062> 1397 148<648.082 900.771>
DStem2: 740 718 987 660 0.566262 0.824225<-164.049 414.615>
LayerCount: 2
Fore
SplineSet
1235 1102 m 0,0,1
 1414 1102 1414 1102 1491 1002 c 0,2,3
 1545 931 1545 931 1545 835 c 0,4,5
 1545 795 1545 795 1536 752 c 0,6,7
 1506 610 1506 610 1397 514 c 24,8,9
 1276 407 1276 407 1134.5 407 c 128,-1,10
 993 407 993 407 970 538 c 1,11,-1
 979 546 l 1,12,13
 1036 500 1036 500 1113 500 c 0,14,15
 1211 500 1211 500 1292 573 c 0,16,17
 1369 644 1369 644 1392 752 c 0,18,19
 1397 776 1397 776 1397 798 c 0,20,21
 1397 839 1397 839 1379 871 c 0,22,23
 1349 924 1349 924 1270 924 c 0,24,25
 1168 924 1168 924 1077 791 c 2,26,-1
 987 660 l 2,27,28
 813 407 813 407 582 407 c 0,29,30
 403 408 403 408 326 508 c 0,31,32
 272 579 272 579 272 674 c 0,33,34
 272 714 272 714 281 757 c 0,35,36
 310 893 310 893 419 995 c 0,37,38
 534 1102 534 1102 682 1102 c 0,39,40
 824 1102 824 1102 846 971 c 1,41,-1
 838 963 l 1,42,43
 781 1009 781 1009 703 1009 c 0,44,45
 605 1009 605 1009 525 936 c 0,46,47
 448 865 448 865 425 757 c 0,48,49
 420 733 420 733 420 711 c 0,50,51
 420 670 420 670 438 638 c 0,52,53
 468 585 468 585 546 585 c 0,54,55
 648 585 648 585 740 718 c 2,56,-1
 829 849 l 2,57,58
 1003 1102 1003 1102 1235 1102 c 0,0,1
EndSplineSet
Validated: 19457
EndChar

StartChar: approxequal
Encoding: 8776 8776 186
Width: 1223
GlyphClass: 2
Flags: W
HStem: 353 211<830.496 1043.17> 516 211<410.172 625.336> 773 211<919.496 1132.17> 936 211<499.172 714.336>
DStem2: 683 692 581 497 0.869367 -0.494167<-64.9476 292.548> 772 1112 670 917 0.869367 -0.494167<-64.9476 292.548>
LayerCount: 2
Fore
SplineSet
1122 728 m 1,0,-1
 1258 728 l 1,1,2
 1124 353 1124 353 914 353 c 0,3,4
 835 353 835 353 770 390 c 2,5,-1
 581 497 l 2,6,7
 547 516 547 516 507 516 c 0,8,9
 408 516 408 516 332 353 c 1,10,-1
 196 353 l 1,11,12
 329 727 329 727 552 727 c 0,13,14
 621 727 621 727 683 692 c 2,15,-1
 873 584 l 2,16,17
 908 564 908 564 948 564 c 0,18,19
 1045 564 1045 564 1122 728 c 1,0,-1
1211 1148 m 1,20,-1
 1347 1148 l 1,21,22
 1213 773 1213 773 1003 773 c 0,23,24
 924 773 924 773 859 810 c 2,25,-1
 670 917 l 2,26,27
 636 936 636 936 596 936 c 0,28,29
 497 936 497 936 421 773 c 1,30,-1
 285 773 l 1,31,32
 418 1147 418 1147 641 1147 c 0,33,34
 710 1147 710 1147 772 1112 c 2,35,-1
 962 1004 l 2,36,37
 997 984 997 984 1037 984 c 0,38,39
 1134 984 1134 984 1211 1148 c 1,20,-1
EndSplineSet
Validated: 19457
EndChar

StartChar: notequal
Encoding: 8800 8800 187
Width: 1192
GlyphClass: 2
Flags: W
HStem: 440 210<258 439 577 604 743 1166> 859 210<347 770 908 935 1074 1255>
DStem2: 310 277 400 217 0.62007 0.784547<8.73349 207.87 561.126 741.838 1095.09 1295.02>
LayerCount: 2
Fore
SplineSet
347 1069 m 1,0,-1
 935 1069 l 1,1,-1
 1113 1293 l 1,2,-1
 1203 1233 l 1,3,-1
 1074 1069 l 1,4,-1
 1299 1069 l 1,5,-1
 1255 859 l 1,6,-1
 908 859 l 1,7,-1
 743 650 l 1,8,-1
 1210 650 l 1,9,-1
 1166 440 l 1,10,-1
 577 440 l 1,11,-1
 400 217 l 1,12,-1
 310 277 l 1,13,-1
 439 440 l 1,14,-1
 214 440 l 1,15,-1
 258 650 l 1,16,-1
 604 650 l 1,17,-1
 770 859 l 1,18,-1
 303 859 l 1,19,-1
 347 1069 l 1,0,-1
EndSplineSet
Validated: 19457
EndChar

StartChar: lessequal
Encoding: 8804 8804 188
Width: 1242
GlyphClass: 2
Flags: W
HStem: 114 210<189 1096>
DStem2: 516 942 290 802 0.821386 -0.570373<0 698.956> 335 1012 516 942 0.889632 0.456678<129.056 987.753>
LayerCount: 2
Fore
SplineSet
335 1012 m 1,0,-1
 1235 1474 l 1,1,-1
 1280 1334 l 1,2,-1
 516 942 l 1,3,-1
 1109 531 l 1,4,-1
 951 343 l 1,5,-1
 290 802 l 1,6,-1
 335 1012 l 1,0,-1
189 324 m 1,7,-1
 1141 324 l 1,8,-1
 1096 114 l 1,9,-1
 144 114 l 1,10,-1
 189 324 l 1,7,-1
EndSplineSet
Validated: 19457
EndChar

StartChar: greaterequal
Encoding: 8805 8805 189
Width: 1242
GlyphClass: 2
Flags: W
HStem: 114 210<239 1146>
DStem2: 349 483 393 343 0.889632 0.456678<0 857.807> 677 1474 519 1286 0.821386 -0.570373<0 698.956>
LayerCount: 2
Fore
SplineSet
1293 805 m 1,0,-1
 393 343 l 1,1,-1
 349 483 l 1,2,-1
 1112 875 l 1,3,-1
 519 1286 l 1,4,-1
 677 1474 l 1,5,-1
 1338 1015 l 1,6,-1
 1293 805 l 1,0,-1
239 324 m 1,7,-1
 1191 324 l 1,8,-1
 1146 114 l 1,9,-1
 194 114 l 1,10,-1
 239 324 l 1,7,-1
EndSplineSet
Validated: 19457
EndChar

StartChar: lozenge
Encoding: 9674 9674 190
Width: 1198
GlyphClass: 2
Flags: W
HStem: -20 21G<585.29 613.16> 1510 20G<906.399 933.176>
DStem2: 227 738 482 854 0.660649 0.750695<255.546 686.306> 482 854 227 738 0.436739 -0.899588<0 597.967> 743 316 595 -20 0.672237 0.740336<0 423.585> 924 1530 767 1177 0.417012 -0.908901<255.371 856.985>
LayerCount: 2
Fore
SplineSet
743 316 m 1,0,-1
 1024 633 l 1,1,-1
 767 1177 l 1,2,-1
 482 854 l 1,3,-1
 743 316 l 1,0,-1
595 -20 m 1,4,-1
 227 738 l 1,5,-1
 924 1530 l 1,6,-1
 1286 741 l 1,7,-1
 595 -20 l 1,4,-1
EndSplineSet
Validated: 19457
EndChar

StartChar: uni1E02
Encoding: 7682 7682 191
Width: 1378
Flags: W
HStem: 0 21G<170 494.245 612 785> 909 120<786 927.125> 1390 120<785 989.125> 1500 10<351 358.796> 1580 370<850.356 1027.64>
VStem: 170 320<0 320> 1028 297<1141.88 1345.81> 1089 343<423.712 785.074>
DStem2: 170 0 490 0 0.207912 0.978148<66.5317 1393.04>
LayerCount: 2
Fore
SplineSet
978 1950 m 0,0,1
 1053 1950 1053 1950 1095 1896 c 0,2,3
 1125 1857 1125 1857 1125 1806 c 0,4,5
 1125 1786 1125 1786 1121 1765 c 0,6,7
 1105 1688 1105 1688 1040.5 1634 c 128,-1,8
 976 1580 976 1580 900 1580 c 0,9,10
 825 1580 825 1580 783 1634 c 0,11,12
 753 1673 753 1673 753 1724 c 0,13,14
 753 1744 753 1744 757 1765 c 0,15,16
 773 1842 773 1842 837.5 1896 c 128,-1,17
 902 1950 902 1950 978 1950 c 0,0,1
170 0 m 1,18,-1
 451 1320 l 2,19,20
 456 1344 456 1344 456 1364 c 0,21,22
 456 1461 456 1461 349 1500 c 1,23,-1
 351 1510 l 1,24,-1
 932 1510 l 2,25,26
 1169 1510 1169 1510 1270 1415 c 0,27,28
 1325 1363 1325 1363 1325 1284 c 0,29,30
 1325 1265 1325 1265 1322 1245 c 0,31,32
 1309 1152 1309 1152 1227 1085 c 0,33,34
 1153 1023 1153 1023 1059 990 c 1,35,36
 1274 961 1274 961 1368 843 c 0,37,38
 1432 762 1432 762 1432 641 c 0,39,40
 1432 584 1432 584 1418 518 c 0,41,42
 1374 309 1374 309 1183 167 c 0,43,44
 960 0 960 0 610 0 c 1,45,-1
 612 10 l 1,46,47
 793 92 793 92 913 212 c 0,48,49
 1040 340 1040 340 1075 504 c 0,50,51
 1089 569 1089 569 1089 623 c 0,52,53
 1089 708 1089 708 1055 768 c 0,54,55
 975 909 975 909 760 909 c 9,56,-1
 786 1029 l 1,57,58
 873 1029 873 1029 939.5 1081.5 c 128,-1,59
 1006 1134 1006 1134 1024 1218 c 0,60,61
 1028 1238 1028 1238 1028 1256 c 0,62,63
 1028 1309 1028 1309 991 1347 c 0,64,65
 950 1390 950 1390 861 1390 c 2,66,-1
 785 1390 l 1,67,-1
 490 0 l 1,68,-1
 170 0 l 1,18,-1
EndSplineSet
Validated: 19457
EndChar

StartChar: uni1E03
Encoding: 7683 7683 192
Width: 1328
Flags: W
HStem: 0 110<493 774.094> 1090 10<792 799.484> 1170 370<933.356 1110.64> 1500 10<351 358.796>
VStem: 1070 319<448.483 860.569>
DStem2: 170 0 469.619 0 0.207912 0.978148<174.752 1393.04>
LayerCount: 2
Fore
SplineSet
1061 1540 m 0,0,1
 1136 1540 1136 1540 1178 1486 c 0,2,3
 1208 1447 1208 1447 1208 1396 c 0,4,5
 1208 1376 1208 1376 1204 1355 c 0,6,7
 1188 1278 1188 1278 1123.5 1224 c 128,-1,8
 1059 1170 1059 1170 983 1170 c 0,9,10
 908 1170 908 1170 866 1224 c 0,11,12
 836 1263 836 1263 836 1314 c 0,13,14
 836 1334 836 1334 840 1355 c 0,15,16
 856 1432 856 1432 920.5 1486 c 128,-1,17
 985 1540 985 1540 1061 1540 c 0,0,1
170 0 m 1,18,-1
 451 1320 l 2,19,20
 456 1344 456 1344 456 1364 c 0,21,22
 456 1461 456 1461 349 1500 c 1,23,-1
 351 1510 l 1,24,-1
 791 1510 l 1,25,-1
 493 110 l 1,26,-1
 593 110 l 2,27,28
 746 110 746 110 873 224 c 0,29,30
 1013 350 1013 350 1055 550 c 0,31,32
 1070 619 1070 619 1070 681 c 0,33,34
 1070 799 1070 799 1016 890 c 0,35,36
 943 1015 943 1015 790 1090 c 1,37,-1
 792 1100 l 1,38,39
 1122 1100 1122 1100 1277 950 c 0,40,41
 1389 841 1389 841 1389 675 c 0,42,43
 1389 616 1389 616 1375 550 c 0,44,45
 1323 307 1323 307 1112 154 c 0,46,47
 900 0 900 0 590 0 c 2,48,-1
 170 0 l 1,18,-1
EndSplineSet
Validated: 19457
EndChar

StartChar: uni1E0A
Encoding: 7690 7690 193
Width: 1646
Flags: W
HStem: 0 10<612 626.134> 1390 120<785 1194.5> 1500 10<351 358.796> 1580 370<1040.36 1217.64>
VStem: 170 320<0 320> 1418 339<674.757 1161.27>
DStem2: 170 0 490 0 0.207912 0.978148<66.5317 1393.04>
LayerCount: 2
Fore
SplineSet
1168 1950 m 0,0,1
 1243 1950 1243 1950 1285 1896 c 0,2,3
 1315 1857 1315 1857 1315 1806 c 0,4,5
 1315 1786 1315 1786 1311 1765 c 0,6,7
 1295 1688 1295 1688 1230.5 1634 c 128,-1,8
 1166 1580 1166 1580 1090 1580 c 0,9,10
 1015 1580 1015 1580 973 1634 c 0,11,12
 943 1673 943 1673 943 1724 c 0,13,14
 943 1744 943 1744 947 1765 c 0,15,16
 963 1842 963 1842 1027.5 1896 c 128,-1,17
 1092 1950 1092 1950 1168 1950 c 0,0,1
170 0 m 1,18,-1
 451 1320 l 2,19,20
 456 1344 456 1344 456 1364 c 0,21,22
 456 1461 456 1461 349 1500 c 1,23,-1
 351 1510 l 1,24,-1
 1067 1510 l 2,25,26
 1499 1510 1499 1510 1665 1265 c 0,27,28
 1757 1129 1757 1129 1757 944 c 0,29,30
 1757 855 1757 855 1736 755 c 0,31,32
 1675 468 1675 468 1425 255 c 0,33,34
 1128 1 1128 1 610 0 c 1,35,-1
 612 10 l 1,36,37
 937 80 937 80 1161 318 c 0,38,39
 1346 515 1346 515 1396 755 c 0,40,41
 1418 858 1418 858 1418 946 c 0,42,43
 1418 1110 1418 1110 1341 1220 c 0,44,45
 1223 1390 1223 1390 991 1390 c 2,46,-1
 785 1390 l 1,47,-1
 490 0 l 1,48,-1
 170 0 l 1,18,-1
EndSplineSet
Validated: 19457
EndChar

StartChar: uni1E0B
Encoding: 7691 7691 194
Width: 1328
Flags: W
HStem: 0 110<627.516 881> 0 10<1290.2 1298> 1080 20G<839 1002> 1170 370<733.356 910.644> 1500 10<1039 1046.8>
VStem: 174 319<245.781 652.407>
DStem2: 857.619 0 1157.61 0 0.207912 0.978148<213.152 1393.12>
LayerCount: 2
Fore
SplineSet
861 1540 m 0,0,1
 936 1540 936 1540 978 1486 c 0,2,3
 1008 1447 1008 1447 1008 1396 c 0,4,5
 1008 1376 1008 1376 1004 1355 c 0,6,7
 988 1278 988 1278 923.5 1224 c 128,-1,8
 859 1170 859 1170 783 1170 c 0,9,10
 708 1170 708 1170 666 1224 c 0,11,12
 636 1263 636 1263 636 1314 c 0,13,14
 636 1334 636 1334 640 1355 c 0,15,16
 656 1432 656 1432 720.5 1486 c 128,-1,17
 785 1540 785 1540 861 1540 c 0,0,1
1298 0 m 1,18,-1
 738 0 l 2,19,20
 428 0 428 0 282 154 c 0,21,22
 174 267 174 267 174 430 c 0,23,24
 174 487 174 487 187 550 c 0,25,26
 241 802 241 802 455 950 c 0,27,28
 674 1100 674 1100 1004 1100 c 1,29,-1
 1002 1090 l 1,30,31
 817 1015 817 1015 690 890 c 0,32,33
 549 751 549 751 507 550 c 0,34,35
 493 484 493 484 493 426 c 0,36,37
 493 309 493 309 551 224 c 0,38,39
 630 110 630 110 781 110 c 2,40,-1
 881 110 l 1,41,-1
 1139 1320 l 2,42,43
 1144 1344 1144 1344 1144 1364 c 0,44,45
 1144 1461 1144 1461 1037 1500 c 1,46,-1
 1039 1510 l 1,47,-1
 1479 1510 l 1,48,-1
 1198 190 l 2,49,50
 1193 166 1193 166 1193 146 c 0,51,52
 1193 49 1193 49 1300 10 c 1,53,-1
 1298 0 l 1,18,-1
EndSplineSet
Validated: 19457
EndChar

StartChar: uni1E1E
Encoding: 7710 7710 195
Width: 1078
Flags: W
HStem: 0 21G<170 494.259> 695 120<663 1030> 1390 120<785 1286.73> 1500 10<351 358.796> 1580 370<870.356 1047.64>
VStem: 170 320<0 320> 1324 10<1250 1271.02>
DStem2: 170 0 490 0 0.207912 0.978148<66.5317 777.115 899.691 1393.04>
LayerCount: 2
Fore
SplineSet
998 1950 m 0,0,1
 1073 1950 1073 1950 1115 1896 c 0,2,3
 1145 1857 1145 1857 1145 1806 c 0,4,5
 1145 1786 1145 1786 1141 1765 c 0,6,7
 1125 1688 1125 1688 1060.5 1634 c 128,-1,8
 996 1580 996 1580 920 1580 c 0,9,10
 845 1580 845 1580 803 1634 c 0,11,12
 773 1673 773 1673 773 1724 c 0,13,14
 773 1744 773 1744 777 1765 c 0,15,16
 793 1842 793 1842 857.5 1896 c 128,-1,17
 922 1950 922 1950 998 1950 c 0,0,1
170 0 m 1,18,-1
 451 1320 l 2,19,20
 456 1344 456 1344 456 1364 c 0,21,22
 456 1461 456 1461 349 1500 c 1,23,-1
 351 1510 l 1,24,-1
 1389 1510 l 1,25,-1
 1334 1250 l 1,26,-1
 1324 1250 l 1,27,28
 1307 1390 1307 1390 1173 1390 c 2,29,-1
 785 1390 l 1,30,-1
 663 815 l 1,31,-1
 1055 815 l 1,32,-1
 1030 695 l 1,33,-1
 638 695 l 1,34,-1
 490 0 l 1,35,-1
 170 0 l 1,18,-1
EndSplineSet
Validated: 19457
EndChar

StartChar: uni1E1F
Encoding: 7711 7711 196
Width: 1251
Flags: W
HStem: 0 21G<170 474.239> 670 110<636 1104> 1116 21G<1263 1295.35> 1419 109<916.385 1221.56> 1580 370<924.356 1101.64>
VStem: 170 300<0 300>
DStem2: 170 0 470 0 0.207912 0.978148<62.3735 747.256 859.842 1230.49>
LayerCount: 2
Fore
SplineSet
1052 1950 m 0,0,1
 1127 1950 1127 1950 1169 1896 c 0,2,3
 1199 1857 1199 1857 1199 1806 c 0,4,5
 1199 1786 1199 1786 1195 1765 c 0,6,7
 1179 1688 1179 1688 1114.5 1634 c 128,-1,8
 1050 1580 1050 1580 974 1580 c 0,9,10
 899 1580 899 1580 857 1634 c 0,11,12
 827 1673 827 1673 827 1724 c 0,13,14
 827 1744 827 1744 831 1765 c 0,15,16
 847 1842 847 1842 911.5 1896 c 128,-1,17
 976 1950 976 1950 1052 1950 c 0,0,1
170 0 m 1,18,-1
 374 958 l 2,19,20
 422 1184 422 1184 586 1336 c 0,21,22
 794 1528 794 1528 1096 1528 c 0,23,24
 1395 1528 1395 1528 1526 1318 c 1,25,-1
 1270 1116 l 1,26,-1
 1263 1123 l 1,27,28
 1272 1145 1272 1145 1279 1179 c 0,29,30
 1285 1206 1285 1206 1285 1231 c 0,31,32
 1285 1285 1285 1285 1258 1332 c 0,33,34
 1209 1419 1209 1419 1083 1419 c 128,-1,35
 957 1419 957 1419 859 1333 c 0,36,37
 729 1219 729 1219 674 958 c 2,38,-1
 636 780 l 1,39,-1
 1128 780 l 1,40,-1
 1104 670 l 1,41,-1
 612 670 l 1,42,-1
 470 0 l 1,43,-1
 170 0 l 1,18,-1
EndSplineSet
Validated: 19457
EndChar

StartChar: uni1E40
Encoding: 7744 7744 197
Width: 2386
Flags: W
HStem: 0 21G<5 343.987 771 1025 1715 2014.5> 1490 20G<595 1088 1552 2032> 1580 370<1313.36 1490.64>
VStem: 2104 324<401.03 859.375>
DStem2: 5 0 334 0 0.44674 0.894664<146.977 1563.21> 1424 907 1440 323 0.446309 0.894879<0 545.371>
LayerCount: 2
Fore
SplineSet
1441 1950 m 0,0,1
 1516 1950 1516 1950 1558 1896 c 0,2,3
 1588 1857 1588 1857 1588 1806 c 0,4,5
 1588 1786 1588 1786 1584 1765 c 0,6,7
 1568 1688 1568 1688 1503.5 1634 c 128,-1,8
 1439 1580 1439 1580 1363 1580 c 0,9,10
 1288 1580 1288 1580 1246 1634 c 0,11,12
 1216 1673 1216 1673 1216 1724 c 0,13,14
 1216 1744 1216 1744 1220 1765 c 0,15,16
 1236 1842 1236 1842 1300.5 1896 c 128,-1,17
 1365 1950 1365 1950 1441 1950 c 0,0,1
769 0 m 1,18,-1
 771 10 l 1,19,20
 1061 135 1061 135 1126 440 c 0,21,22
 1160 600 1160 600 1160 765 c 0,23,24
 1160 1068 1160 1068 1045 1386 c 1,25,-1
 1052 1394 l 1,26,27
 1320 1167 1320 1167 1424 907 c 1,28,-1
 1622 1322 l 2,29,30
 1640 1360 1640 1360 1646 1388 c 0,31,32
 1648 1396 1648 1396 1648 1405 c 0,33,34
 1648 1464 1648 1464 1552 1500 c 1,35,-1
 1554 1510 l 1,36,-1
 2032 1510 l 1,37,-1
 1440 323 l 2,38,39
 1281 4 1281 4 769 0 c 1,18,-1
1713 0 m 1,40,-1
 1715 10 l 1,41,42
 2004 133 2004 133 2070 440 c 0,43,44
 2104 600 2104 600 2104 765 c 0,45,46
 2104 1068 2104 1068 1989 1386 c 1,47,-1
 1996 1394 l 1,48,49
 2428 1015 2428 1015 2428 606 c 0,50,51
 2428 523 2428 523 2410 440 c 0,52,53
 2316 0 2316 0 1713 0 c 1,40,-1
5 0 m 1,54,-1
 665 1322 l 2,55,56
 682 1357 682 1357 689 1388 c 0,57,58
 691 1396 691 1396 691 1405 c 0,59,60
 691 1464 691 1464 595 1500 c 1,61,-1
 597 1510 l 1,62,-1
 1088 1510 l 1,63,-1
 334 0 l 1,64,-1
 5 0 l 1,54,-1
EndSplineSet
Validated: 1
EndChar

StartChar: uni1E41
Encoding: 7745 7745 198
Width: 1805
Flags: W
HStem: 0 21G<170 474.242 757 1061.24 1236 1348.5> 990 110<680 1412.83> 1090 10<264 274.836> 1170 370<1113.36 1290.64>
VStem: 170 300<0 300> 757 300<0 300> 939 300<558 858> 1547 317<444.674 854.565>
DStem2: 165.749 -20 465.749 -20 0.207912 0.978148<82.8203 995.101> 752.749 -20 1052.75 -20 0.207912 0.978148<82.8203 897.537>
LayerCount: 2
Fore
SplineSet
1241 1540 m 0,0,1
 1316 1540 1316 1540 1358 1486 c 0,2,3
 1388 1447 1388 1447 1388 1396 c 0,4,5
 1388 1376 1388 1376 1384 1355 c 0,6,7
 1368 1278 1368 1278 1303.5 1224 c 128,-1,8
 1239 1170 1239 1170 1163 1170 c 0,9,10
 1088 1170 1088 1170 1046 1224 c 0,11,12
 1016 1263 1016 1263 1016 1314 c 0,13,14
 1016 1334 1016 1334 1020 1355 c 0,15,16
 1036 1432 1036 1432 1100.5 1486 c 128,-1,17
 1165 1540 1165 1540 1241 1540 c 0,0,1
170 0 m 1,18,-1
 363 910 l 2,19,20
 368 934 368 934 368 955 c 0,21,22
 368 1052 368 1052 262 1090 c 1,23,-1
 264 1100 l 1,24,-1
 1301 1100 l 2,25,26
 1616 1100 1616 1100 1752 952 c 0,27,28
 1864 830 1864 830 1864 665 c 0,29,30
 1864 610 1864 610 1852 550 c 0,31,32
 1803 320 1803 320 1599 157 c 0,33,34
 1451 39 1451 39 1246 -20 c 1,35,-1
 1236 -20 l 1,36,37
 1354 114 1354 114 1423 248 c 0,38,39
 1498 393 1498 393 1532 550 c 0,40,41
 1547 619 1547 619 1547 678 c 0,42,43
 1547 795 1547 795 1492 872 c 0,44,45
 1408 990 1408 990 1257 990 c 2,46,-1
 680 990 l 1,47,-1
 470 0 l 1,48,-1
 170 0 l 1,18,-1
757 0 m 1,49,-1
 939 858 l 1,50,-1
 1239 858 l 1,51,-1
 1057 0 l 1,52,-1
 757 0 l 1,49,-1
EndSplineSet
Validated: 19457
EndChar

StartChar: uni1E56
Encoding: 7766 7766 199
Width: 1384
Flags: W
HStem: 0 21G<170 494.245> 1390 120<785 1048.52> 1500 10<351 358.796> 1580 370<904.356 1081.64>
VStem: 170 320<0 320> 1190 341<851.812 1250.31>
DStem2: 170 0 490 0 0.207912 0.978148<66.5317 1393.04>
LayerCount: 2
Fore
SplineSet
1032 1950 m 0,0,1
 1107 1950 1107 1950 1149 1896 c 0,2,3
 1179 1857 1179 1857 1179 1806 c 0,4,5
 1179 1786 1179 1786 1175 1765 c 0,6,7
 1159 1688 1159 1688 1094.5 1634 c 128,-1,8
 1030 1580 1030 1580 954 1580 c 0,9,10
 879 1580 879 1580 837 1634 c 0,11,12
 807 1673 807 1673 807 1724 c 0,13,14
 807 1744 807 1744 811 1765 c 0,15,16
 827 1842 827 1842 891.5 1896 c 128,-1,17
 956 1950 956 1950 1032 1950 c 0,0,1
170 0 m 1,18,-1
 451 1320 l 2,19,20
 456 1344 456 1344 456 1364 c 0,21,22
 456 1461 456 1461 349 1500 c 1,23,-1
 351 1510 l 1,24,-1
 986 1510 l 2,25,26
 1280 1510 1280 1510 1424 1352 c 0,27,28
 1531 1234 1531 1234 1531 1074 c 0,29,30
 1531 1021 1531 1021 1519 963 c 0,31,32
 1469 728 1469 728 1300 566 c 0,33,34
 1073 349 1073 349 678 349 c 1,35,-1
 680 359 l 1,36,37
 873 453 873 453 1000 592 c 0,38,39
 1131 735 1131 735 1173 931 c 0,40,41
 1190 1010 1190 1010 1190 1075 c 0,42,43
 1190 1178 1190 1178 1148 1247 c 0,44,45
 1061 1390 1061 1390 879 1390 c 2,46,-1
 785 1390 l 1,47,-1
 490 0 l 1,48,-1
 170 0 l 1,18,-1
EndSplineSet
Validated: 19457
EndChar

StartChar: uni1E57
Encoding: 7767 7767 200
Width: 1328
Flags: W
HStem: -410 21G<83 387.243> 0 21G<560 723> 990 110<680 934.484> 1090 10<264 274.836> 1170 370<851.356 1028.64>
VStem: 83 300<-410 -110> 1069 319<447.593 854.219>
DStem2: 83 -410 383 -410 0.207912 0.978148<62.3735 1393.78>
LayerCount: 2
Fore
SplineSet
979 1540 m 0,0,1
 1054 1540 1054 1540 1096 1486 c 0,2,3
 1126 1447 1126 1447 1126 1396 c 0,4,5
 1126 1376 1126 1376 1122 1355 c 0,6,7
 1106 1278 1106 1278 1041.5 1224 c 128,-1,8
 977 1170 977 1170 901 1170 c 0,9,10
 826 1170 826 1170 784 1224 c 0,11,12
 754 1263 754 1263 754 1314 c 0,13,14
 754 1334 754 1334 758 1355 c 0,15,16
 774 1432 774 1432 838.5 1486 c 128,-1,17
 903 1540 903 1540 979 1540 c 0,0,1
83 -410 m 1,18,-1
 363 910 l 2,19,20
 368 934 368 934 368 955 c 0,21,22
 368 1052 368 1052 262 1090 c 1,23,-1
 264 1100 l 1,24,-1
 824 1100 l 2,25,26
 1134 1100 1134 1100 1280 946 c 0,27,28
 1388 833 1388 833 1388 670 c 0,29,30
 1388 613 1388 613 1375 550 c 0,31,32
 1321 298 1321 298 1107 150 c 0,33,34
 888 0 888 0 558 0 c 1,35,-1
 560 10 l 1,36,37
 745 85 745 85 872 210 c 0,38,39
 1013 349 1013 349 1055 550 c 0,40,41
 1069 616 1069 616 1069 674 c 0,42,43
 1069 791 1069 791 1011 876 c 0,44,45
 932 990 932 990 780 990 c 2,46,-1
 680 990 l 1,47,-1
 383 -410 l 1,48,-1
 83 -410 l 1,18,-1
EndSplineSet
Validated: 19457
EndChar

StartChar: uni1E60
Encoding: 7776 7776 201
Width: 1330
Flags: W
HStem: -20 120<503.211 831.907> 1100 21G<1104 1137.02> 1410 120<882.734 1115.21> 1580 370<951.356 1128.64>
VStem: 499 306<1089 1257.41> 1066 332<398.411 628.014>
DStem2: 944 1035 706 817 0.896112 -0.443829<-158.499 277.717>
LayerCount: 2
Fore
SplineSet
1079 1950 m 0,0,1
 1154 1950 1154 1950 1196 1896 c 0,2,3
 1226 1857 1226 1857 1226 1806 c 0,4,5
 1226 1786 1226 1786 1222 1765 c 0,6,7
 1206 1688 1206 1688 1141.5 1634 c 128,-1,8
 1077 1580 1077 1580 1001 1580 c 0,9,10
 926 1580 926 1580 884 1634 c 0,11,12
 854 1673 854 1673 854 1724 c 0,13,14
 854 1744 854 1744 858 1765 c 0,15,16
 874 1842 874 1842 938.5 1896 c 128,-1,17
 1003 1950 1003 1950 1079 1950 c 0,0,1
636 -20 m 128,-1,19
 354 -20 354 -20 234 122 c 0,20,21
 157 213 157 213 128 368 c 1,22,-1
 455 627 l 1,23,-1
 463 620 l 1,24,25
 430 541 430 541 408 440 c 0,26,27
 398 395 398 395 398 355 c 0,28,29
 398 277 398 277 434 216 c 0,30,31
 501 100 501 100 666 100 c 0,32,33
 807 100 807 100 924 211 c 0,34,35
 1022 305 1022 305 1056 434 c 0,36,37
 1066 472 1066 472 1066 506 c 0,38,39
 1066 638 1066 638 903 719 c 2,40,-1
 706 817 l 2,41,42
 499 920 499 920 499 1089 c 0,43,44
 499 1119 499 1119 506 1151 c 0,45,46
 543 1324 543 1324 707 1440 c 0,47,48
 834 1530 834 1530 1020 1530 c 0,49,50
 1225 1530 1225 1530 1311 1426 c 0,51,52
 1352 1376 1352 1376 1366 1303 c 1,53,-1
 1112 1100 l 1,54,-1
 1104 1107 l 1,55,56
 1129 1168 1129 1168 1139 1217 c 0,57,58
 1145 1247 1145 1247 1145 1273 c 0,59,60
 1145 1314 1145 1314 1130 1344 c 0,61,62
 1096 1410 1096 1410 1008 1410 c 0,63,64
 941 1410 941 1410 889 1371 c 0,65,66
 830 1326 830 1326 810 1242 c 0,67,68
 805 1221 805 1221 805 1202 c 0,69,70
 805 1104 805 1104 944 1035 c 2,71,-1
 1156 930 l 2,72,73
 1398 810 1398 810 1398 595 c 0,74,75
 1398 552 1398 552 1388 506 c 0,76,77
 1343 294 1343 294 1140 144 c 0,78,18
 918 -20 918 -20 636 -20 c 128,-1,19
EndSplineSet
Validated: 19457
EndChar

StartChar: uni1E61
Encoding: 7777 7777 202
Width: 1026
Flags: W
HStem: -20 109<376.898 643.525> 1011 109<666.532 844.308> 1170 370<715.356 892.644>
VStem: 357 276<763 916.922> 755 307<271.38 435>
LayerCount: 2
Fore
SplineSet
843 1540 m 0,0,1
 918 1540 918 1540 960 1486 c 0,2,3
 990 1447 990 1447 990 1396 c 0,4,5
 990 1376 990 1376 986 1355 c 0,6,7
 970 1278 970 1278 905.5 1224 c 128,-1,8
 841 1170 841 1170 765 1170 c 0,9,10
 690 1170 690 1170 648 1224 c 0,11,12
 618 1263 618 1263 618 1314 c 0,13,14
 618 1334 618 1334 622 1355 c 0,15,16
 638 1432 638 1432 702.5 1486 c 128,-1,17
 767 1540 767 1540 843 1540 c 0,0,1
502 -20 m 0,18,19
 321 -20 321 -20 226.5 46.5 c 128,-1,20
 132 113 132 113 100 233 c 1,21,-1
 354 435 l 1,22,-1
 361 428 l 1,23,24
 338 377 338 377 327 326 c 0,25,26
 321 297 321 297 321 270 c 0,27,28
 321 206 321 206 356 156 c 0,29,30
 403 89 403 89 500 89 c 0,31,32
 604 89 604 89 682 163 c 0,33,34
 737 216 737 216 751 289 c 0,35,36
 755 310 755 310 755 330 c 0,37,38
 755 419 755 419 657 471 c 2,39,-1
 508 550 l 2,40,41
 357 630 357 630 357 763 c 0,42,43
 357 782 357 782 360 802 c 0,44,45
 385 945 385 945 513 1036 c 0,46,47
 632 1120 632 1120 776 1120 c 0,48,49
 886 1120 886 1120 955 1077 c 0,50,51
 1025 1033 1025 1033 1051 945 c 1,52,-1
 828 770 l 1,53,-1
 821 777 l 1,54,55
 845 825 845 825 854 865 c 0,56,57
 859 887 859 887 859 907 c 0,58,59
 859 932 859 932 851 953 c 0,60,61
 829 1011 829 1011 765 1011 c 0,62,63
 721 1011 721 1011 685 983 c 0,64,65
 642 951 642 951 635 904 c 0,66,67
 633 891 633 891 633 880 c 0,68,69
 633 807 633 807 712 765 c 2,70,-1
 895 667 l 2,71,72
 1062 578 1062 578 1062 435 c 0,73,74
 1062 407 1062 407 1056 378 c 0,75,76
 1020 207 1020 207 846 88 c 0,77,78
 688 -20 688 -20 502 -20 c 0,18,19
EndSplineSet
Validated: 19457
EndChar

StartChar: uni1E6A
Encoding: 7786 7786 203
Width: 1210
Flags: W
HStem: 0 21G<446 770.245> 1390 120<363.41 741 1061 1418.73> 1580 370<891.356 1068.64>
VStem: 276 10<1250 1258.61> 446 320<0 320> 1456 10<1250 1271.02>
DStem2: 446 0 766 0 0.207912 0.978148<66.5317 1420.96>
LayerCount: 2
Fore
SplineSet
1019 1950 m 0,0,1
 1094 1950 1094 1950 1136 1896 c 0,2,3
 1166 1857 1166 1857 1166 1806 c 0,4,5
 1166 1786 1166 1786 1162 1765 c 0,6,7
 1146 1688 1146 1688 1081.5 1634 c 128,-1,8
 1017 1580 1017 1580 941 1580 c 0,9,10
 866 1580 866 1580 824 1634 c 0,11,12
 794 1673 794 1673 794 1724 c 0,13,14
 794 1744 794 1744 798 1765 c 0,15,16
 814 1842 814 1842 878.5 1896 c 128,-1,17
 943 1950 943 1950 1019 1950 c 0,0,1
446 0 m 1,18,-1
 741 1390 l 1,19,-1
 495 1390 l 2,20,21
 362 1390 362 1390 286 1250 c 1,22,-1
 276 1250 l 1,23,-1
 331 1510 l 1,24,-1
 1521 1510 l 1,25,-1
 1466 1250 l 1,26,-1
 1456 1250 l 1,27,28
 1439 1390 1439 1390 1305 1390 c 2,29,-1
 1061 1390 l 1,30,-1
 766 0 l 1,31,-1
 446 0 l 1,18,-1
EndSplineSet
Validated: 19457
EndChar

StartChar: uni1E6B
Encoding: 7787 7787 204
Width: 825
Flags: W
HStem: 0 10<602.204 610> 990 110<704 1030> 1500 10<351 358.796> 1580 370<580.356 757.644>
DStem2: 170 0 469.614 0 0.207912 0.978148<213.073 1074.4 1186.99 1393.04>
LayerCount: 2
Fore
SplineSet
708 1950 m 0,0,1
 783 1950 783 1950 825 1896 c 0,2,3
 855 1857 855 1857 855 1806 c 0,4,5
 855 1786 855 1786 851 1765 c 0,6,7
 835 1688 835 1688 770.5 1634 c 128,-1,8
 706 1580 706 1580 630 1580 c 0,9,10
 555 1580 555 1580 513 1634 c 0,11,12
 483 1673 483 1673 483 1724 c 0,13,14
 483 1744 483 1744 487 1765 c 0,15,16
 503 1842 503 1842 567.5 1896 c 128,-1,17
 632 1950 632 1950 708 1950 c 0,0,1
170 0 m 1,18,-1
 451 1320 l 2,19,20
 456 1344 456 1344 456 1364 c 0,21,22
 456 1461 456 1461 349 1500 c 1,23,-1
 351 1510 l 1,24,-1
 791 1510 l 1,25,-1
 704 1100 l 1,26,-1
 1054 1100 l 1,27,-1
 1030 990 l 1,28,-1
 680 990 l 1,29,-1
 510 190 l 2,30,31
 505 166 505 166 505 146 c 0,32,33
 505 49 505 49 612 10 c 1,34,-1
 610 0 l 1,35,-1
 170 0 l 1,18,-1
EndSplineSet
Validated: 19457
EndChar

StartChar: Wgrave
Encoding: 7808 7808 205
Width: 2408
Flags: W
HStem: 0 10<1161.61 1170 1784.61 1793> 1500 10<326 334.481 949 957.481>
VStem: 2239 339<965.094 1340.55>
DStem2: 742 1510 458 1359 0.212818 -0.977092<0 1477.96> 1365 1510 1081 1359 0.212818 -0.977092<0 1477.96>
LayerCount: 2
Fore
SplineSet
754 0 m 1,0,-1
 458 1359 l 2,1,2
 438 1453 438 1453 324 1500 c 9,3,-1
 326 1510 l 1,4,-1
 742 1510 l 1,5,-1
 1038 151 l 2,6,7
 1059 57 1059 57 1172 10 c 9,8,-1
 1170 0 l 1,9,-1
 754 0 l 1,0,-1
2056 1510 m 1,10,11
 2578 1510 2578 1510 2578 1182 c 0,12,13
 2578 1130 2578 1130 2565 1070 c 0,14,15
 2459 587 2459 587 1732 116 c 1,16,-1
 1727 124 l 1,17,18
 2138 658 2138 658 2225 1070 c 0,19,20
 2239 1136 2239 1136 2239 1194 c 0,21,22
 2239 1404 2239 1404 2054 1500 c 1,23,-1
 2056 1510 l 1,10,11
1377 0 m 1,24,-1
 1081 1359 l 2,25,26
 1061 1453 1061 1453 947 1500 c 9,27,-1
 949 1510 l 1,28,-1
 1365 1510 l 1,29,-1
 1661 151 l 2,30,31
 1682 57 1682 57 1795 10 c 9,32,-1
 1793 0 l 1,33,-1
 1377 0 l 1,24,-1
1596 1964 m 1,34,35
 1718 1850 1718 1850 1718 1660 c 0,36,37
 1718 1612 1718 1612 1710 1560 c 1,38,-1
 1700 1560 l 1,39,40
 1569 1742 1569 1742 1369 1777 c 1,41,-1
 1596 1964 l 1,34,35
EndSplineSet
Validated: 1
EndChar

StartChar: wgrave
Encoding: 7809 7809 206
Width: 1979
Flags: W
HStem: 0 10<964.608 973 1505.61 1514> 1090 10<239 247.392 780 788.392>
VStem: 1751 330<668.833 974.236>
DStem2: 634 1100 371 949 0.213113 -0.977027<0 1062.8> 1175 1100 912 949 0.213113 -0.977027<0 1062.8>
LayerCount: 2
Fore
SplineSet
973 0 m 1,0,-1
 578 0 l 1,1,-1
 371 949 l 2,2,3
 350 1045 350 1045 237 1090 c 9,4,-1
 239 1100 l 1,5,-1
 634 1100 l 1,6,-1
 841 151 l 2,7,8
 862 55 862 55 975 10 c 9,9,-1
 973 0 l 1,0,-1
1514 0 m 1,10,-1
 1119 0 l 1,11,-1
 912 949 l 2,12,13
 891 1045 891 1045 778 1090 c 9,14,-1
 780 1100 l 1,15,-1
 1175 1100 l 1,16,-1
 1382 151 l 2,17,18
 1403 55 1403 55 1516 10 c 9,19,-1
 1514 0 l 1,10,-1
1609 1100 m 1,20,21
 2081 1100 2081 1100 2081 842 c 0,22,23
 2081 806 2081 806 2072 765 c 0,24,25
 2004 462 2004 462 1478 105 c 1,26,-1
 1474 113 l 1,27,28
 1681 435 1681 435 1736 693 c 0,29,30
 1751 762 1751 762 1751 821 c 0,31,32
 1751 1005 1751 1005 1607 1090 c 1,33,-1
 1609 1100 l 1,20,21
1273 1554 m 1,34,35
 1394 1441 1394 1441 1394 1252 c 0,36,37
 1394 1204 1394 1204 1386 1150 c 1,38,-1
 1376 1150 l 1,39,40
 1245 1332 1245 1332 1046 1367 c 1,41,-1
 1273 1554 l 1,34,35
EndSplineSet
Validated: 1
EndChar

StartChar: Wacute
Encoding: 7810 7810 207
Width: 2408
Flags: W
HStem: 0 10<1161.61 1170 1784.61 1793> 1500 10<326 334.481 949 957.481>
VStem: 2239 339<965.094 1340.55>
DStem2: 742 1510 458 1359 0.212818 -0.977092<0 1477.96> 1365 1510 1081 1359 0.212818 -0.977092<0 1477.96>
LayerCount: 2
Fore
SplineSet
754 0 m 1,0,-1
 458 1359 l 2,1,2
 438 1453 438 1453 324 1500 c 9,3,-1
 326 1510 l 1,4,-1
 742 1510 l 1,5,-1
 1038 151 l 2,6,7
 1059 57 1059 57 1172 10 c 9,8,-1
 1170 0 l 1,9,-1
 754 0 l 1,0,-1
2056 1510 m 1,10,11
 2578 1510 2578 1510 2578 1182 c 0,12,13
 2578 1130 2578 1130 2565 1070 c 0,14,15
 2459 587 2459 587 1732 116 c 1,16,-1
 1727 124 l 1,17,18
 2138 658 2138 658 2225 1070 c 0,19,20
 2239 1136 2239 1136 2239 1194 c 0,21,22
 2239 1404 2239 1404 2054 1500 c 1,23,-1
 2056 1510 l 1,10,11
1377 0 m 1,24,-1
 1081 1359 l 2,25,26
 1061 1453 1061 1453 947 1500 c 9,27,-1
 949 1510 l 1,28,-1
 1365 1510 l 1,29,-1
 1661 151 l 2,30,31
 1682 57 1682 57 1795 10 c 9,32,-1
 1793 0 l 1,33,-1
 1377 0 l 1,24,-1
1819 1964 m 1,34,-1
 1968 1777 l 1,35,36
 1754 1742 1754 1742 1545 1560 c 1,37,-1
 1535 1560 l 1,38,39
 1607 1822 1607 1822 1819 1964 c 1,34,-1
EndSplineSet
Validated: 1
EndChar

StartChar: wacute
Encoding: 7811 7811 208
Width: 1979
Flags: W
HStem: 0 10<964.608 973 1505.61 1514> 1090 10<239 247.392 780 788.392>
VStem: 1751 330<668.833 974.236>
DStem2: 634 1100 371 949 0.213113 -0.977027<0 1062.8> 1175 1100 912 949 0.213113 -0.977027<0 1062.8>
LayerCount: 2
Fore
SplineSet
973 0 m 1,0,-1
 578 0 l 1,1,-1
 371 949 l 2,2,3
 350 1045 350 1045 237 1090 c 9,4,-1
 239 1100 l 1,5,-1
 634 1100 l 1,6,-1
 841 151 l 2,7,8
 862 55 862 55 975 10 c 9,9,-1
 973 0 l 1,0,-1
1514 0 m 1,10,-1
 1119 0 l 1,11,-1
 912 949 l 2,12,13
 891 1045 891 1045 778 1090 c 9,14,-1
 780 1100 l 1,15,-1
 1175 1100 l 1,16,-1
 1382 151 l 2,17,18
 1403 55 1403 55 1516 10 c 9,19,-1
 1514 0 l 1,10,-1
1609 1100 m 1,20,21
 2081 1100 2081 1100 2081 842 c 0,22,23
 2081 806 2081 806 2072 765 c 0,24,25
 2004 462 2004 462 1478 105 c 1,26,-1
 1474 113 l 1,27,28
 1681 435 1681 435 1736 693 c 0,29,30
 1751 762 1751 762 1751 821 c 0,31,32
 1751 1005 1751 1005 1607 1090 c 1,33,-1
 1609 1100 l 1,20,21
1600 1554 m 1,34,-1
 1749 1367 l 1,35,36
 1535 1332 1535 1332 1325 1150 c 1,37,-1
 1315 1150 l 1,38,39
 1388 1412 1388 1412 1600 1554 c 1,34,-1
EndSplineSet
Validated: 1
EndChar

StartChar: Wdieresis
Encoding: 7812 7812 209
Width: 2408
Flags: W
HStem: 0 10<1161.61 1170 1784.61 1793> 1500 10<326 334.481 949 957.481> 1615 264<1402.4 1559.6 1743.4 1900.6>
VStem: 1348 266<1668.52 1825.48> 1689 266<1668.52 1825.48> 2239 339<965.094 1340.55>
DStem2: 742 1510 458 1359 0.212818 -0.977092<0 1477.96> 1365 1510 1081 1359 0.212818 -0.977092<0 1477.96>
LayerCount: 2
Fore
SplineSet
1850 1879 m 0,0,1
 1904 1878 1904 1878 1934 1840 c 0,2,3
 1955 1812 1955 1812 1955 1777 c 0,4,5
 1955 1763 1955 1763 1952 1747 c 0,6,7
 1940 1692 1940 1692 1894 1653.5 c 128,-1,8
 1848 1615 1848 1615 1794 1615 c 0,9,10
 1740 1616 1740 1616 1710 1654 c 0,11,12
 1689 1682 1689 1682 1689 1717 c 0,13,14
 1689 1731 1689 1731 1692 1747 c 0,15,16
 1704 1802 1704 1802 1750 1840.5 c 128,-1,17
 1796 1879 1796 1879 1850 1879 c 0,0,1
1509 1879 m 0,18,19
 1563 1878 1563 1878 1593 1840 c 0,20,21
 1614 1812 1614 1812 1614 1777 c 0,22,23
 1614 1763 1614 1763 1611 1747 c 0,24,25
 1599 1692 1599 1692 1553 1653.5 c 128,-1,26
 1507 1615 1507 1615 1453 1615 c 0,27,28
 1399 1616 1399 1616 1369 1654 c 0,29,30
 1348 1682 1348 1682 1348 1717 c 0,31,32
 1348 1731 1348 1731 1351 1747 c 0,33,34
 1363 1802 1363 1802 1409 1840.5 c 128,-1,35
 1455 1879 1455 1879 1509 1879 c 0,18,19
754 0 m 1,36,-1
 458 1359 l 2,37,38
 438 1453 438 1453 324 1500 c 9,39,-1
 326 1510 l 1,40,-1
 742 1510 l 1,41,-1
 1038 151 l 2,42,43
 1059 57 1059 57 1172 10 c 9,44,-1
 1170 0 l 1,45,-1
 754 0 l 1,36,-1
2056 1510 m 1,46,47
 2578 1510 2578 1510 2578 1182 c 0,48,49
 2578 1130 2578 1130 2565 1070 c 0,50,51
 2459 587 2459 587 1732 116 c 1,52,-1
 1727 124 l 1,53,54
 2138 658 2138 658 2225 1070 c 0,55,56
 2239 1136 2239 1136 2239 1194 c 0,57,58
 2239 1404 2239 1404 2054 1500 c 1,59,-1
 2056 1510 l 1,46,47
1377 0 m 1,60,-1
 1081 1359 l 2,61,62
 1061 1453 1061 1453 947 1500 c 9,63,-1
 949 1510 l 1,64,-1
 1365 1510 l 1,65,-1
 1661 151 l 2,66,67
 1682 57 1682 57 1795 10 c 9,68,-1
 1793 0 l 1,69,-1
 1377 0 l 1,60,-1
EndSplineSet
Validated: 1
EndChar

StartChar: wdieresis
Encoding: 7813 7813 210
Width: 1979
Flags: W
HStem: 0 10<964.608 973 1505.61 1514> 1090 10<239 247.392 780 788.392> 1205 264<1108.4 1265.6 1449.4 1606.6>
VStem: 1054 266<1258.52 1415.48> 1395 266<1258.52 1415.48> 1751 330<668.833 974.236>
DStem2: 634 1100 371 949 0.213113 -0.977027<0 1062.8> 1175 1100 912 949 0.213113 -0.977027<0 1062.8>
LayerCount: 2
Fore
SplineSet
1556 1469 m 0,0,1
 1610 1468 1610 1468 1640 1430 c 0,2,3
 1661 1402 1661 1402 1661 1367 c 0,4,5
 1661 1353 1661 1353 1658 1337 c 0,6,7
 1646 1282 1646 1282 1600 1243.5 c 128,-1,8
 1554 1205 1554 1205 1500 1205 c 0,9,10
 1446 1206 1446 1206 1416 1244 c 0,11,12
 1395 1272 1395 1272 1395 1307 c 0,13,14
 1395 1321 1395 1321 1398 1337 c 0,15,16
 1410 1392 1410 1392 1456 1430.5 c 128,-1,17
 1502 1469 1502 1469 1556 1469 c 0,0,1
1215 1469 m 0,18,19
 1269 1468 1269 1468 1299 1430 c 0,20,21
 1320 1402 1320 1402 1320 1367 c 0,22,23
 1320 1353 1320 1353 1317 1337 c 0,24,25
 1305 1282 1305 1282 1259 1243.5 c 128,-1,26
 1213 1205 1213 1205 1159 1205 c 0,27,28
 1105 1206 1105 1206 1075 1244 c 0,29,30
 1054 1272 1054 1272 1054 1307 c 0,31,32
 1054 1321 1054 1321 1057 1337 c 0,33,34
 1069 1392 1069 1392 1115 1430.5 c 128,-1,35
 1161 1469 1161 1469 1215 1469 c 0,18,19
973 0 m 1,36,-1
 578 0 l 1,37,-1
 371 949 l 2,38,39
 350 1045 350 1045 237 1090 c 9,40,-1
 239 1100 l 1,41,-1
 634 1100 l 1,42,-1
 841 151 l 2,43,44
 862 55 862 55 975 10 c 9,45,-1
 973 0 l 1,36,-1
1514 0 m 1,46,-1
 1119 0 l 1,47,-1
 912 949 l 2,48,49
 891 1045 891 1045 778 1090 c 9,50,-1
 780 1100 l 1,51,-1
 1175 1100 l 1,52,-1
 1382 151 l 2,53,54
 1403 55 1403 55 1516 10 c 9,55,-1
 1514 0 l 1,46,-1
1609 1100 m 1,56,57
 2081 1100 2081 1100 2081 842 c 0,58,59
 2081 806 2081 806 2072 765 c 0,60,61
 2004 462 2004 462 1478 105 c 1,62,-1
 1474 113 l 1,63,64
 1681 435 1681 435 1736 693 c 0,65,66
 1751 762 1751 762 1751 821 c 0,67,68
 1751 1005 1751 1005 1607 1090 c 1,69,-1
 1609 1100 l 1,56,57
EndSplineSet
Validated: 1
EndChar

StartChar: Ygrave
Encoding: 7922 7922 211
Width: 1567
Flags: W
HStem: 0 21G<660 984.26> 1500 10<326 335.606>
VStem: 660 320<0 320> 1419 336<1064.4 1388.28>
DStem2: 760 1510 482 1361 0.310821 -0.950468<0 958.347> 660 0 980 0 0.207912 0.978148<66.5317 515.233>
LayerCount: 2
Fore
SplineSet
660 0 m 1,0,-1
 767 504 l 1,1,-1
 482 1361 l 2,2,3
 450 1457 450 1457 324 1500 c 1,4,-1
 326 1510 l 1,5,-1
 760 1510 l 1,6,-1
 1088 507 l 1,7,-1
 980 0 l 1,8,-1
 660 0 l 1,0,-1
1319 1510 m 1,9,10
 1755 1510 1755 1510 1755 1250 c 0,11,12
 1755 1213 1755 1213 1746 1170 c 0,13,14
 1672 820 1672 820 1169 576 c 1,15,-1
 1165 584 l 1,16,17
 1340 816 1340 816 1401 1101 c 0,18,19
 1419 1184 1419 1184 1419 1253 c 0,20,21
 1419 1418 1419 1418 1317 1500 c 1,22,-1
 1319 1510 l 1,9,10
1014 1964 m 1,23,24
 1136 1850 1136 1850 1136 1660 c 0,25,26
 1136 1612 1136 1612 1128 1560 c 1,27,-1
 1118 1560 l 1,28,29
 987 1742 987 1742 787 1777 c 1,30,-1
 1014 1964 l 1,23,24
EndSplineSet
Validated: 1
EndChar

StartChar: ygrave
Encoding: 7923 7923 212
Width: 1328
Flags: W
HStem: -410 21G<343 705.5> 0 110<626.133 833> 1100 0G<690 803 1087.74 1392>
VStem: 174 318<245.456 652.936> 1092 300<800 1100>
DStem2: 770.466 -410 1070.47 -410 0.207912 0.978148<532.057 1543.85>
LayerCount: 2
Fore
SplineSet
738 0 m 2,0,1
 423 0 423 0 286 148 c 0,2,3
 174 270 174 270 174 434 c 0,4,5
 174 490 174 490 187 550 c 0,6,7
 236 780 236 780 439 943 c 0,8,9
 587 1061 587 1061 793 1120 c 1,10,-1
 803 1120 l 1,11,12
 690 992 690 992 616 852 c 0,13,14
 540 707 540 707 507 550 c 0,15,16
 492 481 492 481 492 421 c 0,17,18
 492 306 492 306 547 228 c 0,19,20
 630 110 630 110 781 110 c 2,21,-1
 877 110 l 1,22,23
 889 149 889 149 898 190 c 2,24,-1
 1092 1100 l 1,25,-1
 1392 1100 l 1,26,-1
 1198 190 l 2,27,28
 1070 -410 1070 -410 341 -410 c 1,29,-1
 343 -400 l 1,30,31
 696 -274 696 -274 833 0 c 1,32,-1
 738 0 l 2,0,1
849 1554 m 1,33,34
 970 1441 970 1441 970 1252 c 0,35,36
 970 1204 970 1204 962 1150 c 1,37,-1
 952 1150 l 1,38,39
 821 1332 821 1332 622 1367 c 1,40,-1
 849 1554 l 1,33,34
EndSplineSet
Validated: 19457
EndChar

